<svg xmlns="http://www.w3.org/2000/svg" xmlns:xlink="http://www.w3.org/1999/xlink" width="1920" zoomAndPan="magnify" viewBox="0 0 1440 809.999993" height="1080" preserveAspectRatio="xMidYMid meet" version="1.0"><defs><clipPath id="7be1e11ac6"><path d="M 776.484375 0 L 1440 0 L 1440 594 L 776.484375 594 Z M 776.484375 0 " clip-rule="nonzero"/></clipPath><clipPath id="6b6e2fbe86"><rect x="0" width="664" y="0" height="594"/></clipPath><clipPath id="17481b97a3"><path d="M 11 179.128906 L 658 179.128906 L 658 801 L 11 801 Z M 11 179.128906 " clip-rule="nonzero"/></clipPath><clipPath id="dbc0a3c318"><path d="M 9 320 L 500 320 L 500 809.878906 L 9 809.878906 Z M 9 320 " clip-rule="nonzero"/></clipPath></defs><g clip-path="url(#7be1e11ac6)"><g transform="matrix(1, 0, 0, 1, 776, 0.000000000000039746)"><g clip-path="url(#6b6e2fbe86)"><path fill="#aa8b56" d="M 639.796875 383.671875 C 620.554688 376.082031 599.628906 374.882812 580.019531 368.628906 C 570.28125 365.515625 561.007812 361.0625 553.113281 354.484375 C 544.785156 347.519531 538.578125 338.40625 534.265625 328.507812 C 516.820312 288.683594 524.597656 233.101562 484.496094 205.898438 C 467.378906 194.269531 446.289062 190.695312 425.984375 189.75 C 402.960938 188.6875 379.054688 189.308594 357.34375 180.3125 C 346.109375 175.652344 336.347656 168.566406 328.273438 159.476562 C 319.230469 149.324219 311.914062 137.765625 302.710938 127.753906 C 286.234375 109.800781 265.378906 95.589844 241.84375 88.761719 C 230.976562 85.621094 219.695312 84.097656 208.367188 84.445312 C 195.398438 84.835938 182.203125 87.398438 169.394531 84.191406 C 147.039062 78.5625 135.527344 55.074219 133.726562 33.6875 C 133.242188 28.078125 133.519531 22.472656 134.394531 16.914062 C 134.878906 13.84375 139.539062 15.136719 139.054688 18.203125 C 137.277344 29.601562 138.734375 41.4375 142.863281 52.167969 C 146.484375 61.605469 152.667969 70.832031 161.621094 75.910156 C 173.25 82.507812 187.023438 81.007812 199.78125 80.0625 C 211.410156 79.207031 222.855469 79.507812 234.300781 81.859375 C 257.371094 86.613281 278.574219 98.472656 295.972656 114.207031 C 305.617188 122.929688 313.621094 132.945312 321.445312 143.28125 C 329.335938 153.6875 337.546875 163.722656 348.832031 170.597656 C 368.949219 182.828125 393.085938 183.703125 415.949219 184.488281 C 436.320312 185.179688 456.855469 186.726562 475.636719 195.355469 C 484.9375 199.625 493.449219 205.691406 500.300781 213.304688 C 507.683594 221.542969 512.898438 231.300781 516.660156 241.660156 C 524.460938 263.1875 526.464844 286.261719 532.394531 308.292969 C 535.1875 318.699219 538.878906 328.992188 544.878906 338.011719 C 550.878906 347.035156 558.859375 353.863281 568.320312 358.683594 C 586.476562 367.9375 607.40625 369.296875 626.878906 374.375 C 631.675781 375.621094 636.429688 377.097656 641.042969 378.917969 C 643.90625 380.050781 642.660156 384.734375 639.753906 383.582031 Z M 639.796875 383.671875 " fill-opacity="1" fill-rule="nonzero"/><path fill="#aa8b56" d="M 646.859375 437.199219 C 619.792969 440.039062 591.554688 442.714844 565.226562 433.992188 C 542.5 426.472656 524.296875 410.738281 510.015625 391.910156 C 494.765625 371.789062 483.851562 348.511719 475.683594 324.722656 C 467.378906 300.496094 462.09375 271.449219 440.40625 255.066406 C 418.972656 238.871094 391.863281 240.855469 366.527344 239.722656 C 352.613281 239.101562 339.003906 236.929688 326.21875 231.234375 C 314.730469 226.085938 304.324219 218.566406 295.417969 209.683594 C 278.183594 192.515625 267.410156 170.296875 252.828125 151.078125 C 246.320312 142.496094 238.820312 134.257812 229.453125 128.746094 C 217.59375 121.753906 203.84375 120.738281 190.414062 119.953125 C 177.703125 119.238281 164.78125 118.429688 152.992188 113.171875 C 143.671875 109.019531 135.550781 102.371094 128.859375 94.734375 C 113.261719 76.96875 104.445312 53.597656 102.117188 30.25 C 101.492188 24.085938 101.402344 17.882812 101.746094 11.699219 C 101.933594 8.605469 106.777344 8.582031 106.59375 11.699219 C 105.207031 35.878906 111.324219 60.703125 124.566406 81.078125 C 130.449219 90.121094 137.925781 98.402344 146.992188 104.355469 C 157.050781 110.957031 168.449219 113.492188 180.308594 114.460938 C 193.253906 115.523438 206.542969 115.269531 219.117188 119.03125 C 230.03125 122.308594 239.304688 128.746094 247.152344 136.914062 C 263.1875 153.617188 273.523438 174.773438 287.433594 193.117188 C 303.101562 213.765625 324.765625 229.386719 350.746094 233.449219 C 376.726562 237.507812 403.996094 232.363281 428.960938 242.976562 C 439.851562 247.613281 449.265625 254.90625 456.304688 264.457031 C 463.824219 274.679688 468.394531 286.835938 472.382812 298.789062 C 476.605469 311.410156 480.320312 324.167969 485.210938 336.535156 C 489.894531 348.371094 495.386719 359.886719 501.847656 370.867188 C 513.523438 390.757812 528.75 409.558594 548.894531 421.351562 C 572.65625 435.261719 600.460938 436.253906 627.222656 434.203125 C 633.800781 433.695312 640.351562 433.023438 646.90625 432.332031 C 649.996094 432.007812 649.972656 436.855469 646.90625 437.179688 Z M 646.859375 437.199219 " fill-opacity="1" fill-rule="nonzero"/><path fill="#aa8b56" d="M 651.242188 486.578125 C 624.363281 497.421875 594.597656 499.703125 566.382812 493.011719 C 539.226562 486.578125 514.652344 472.109375 494.511719 452.984375 C 474.367188 433.855469 459.277344 411.683594 447.605469 387.410156 C 441.375 374.46875 436.183594 360.992188 432.121094 347.21875 C 428.0625 333.445312 425.570312 318.609375 419.457031 305.363281 C 416.570312 299.136719 412.835938 293.296875 407.480469 288.867188 C 402.128906 284.4375 395.828125 282.015625 389.207031 280.882812 C 373.609375 278.207031 358.015625 283.605469 342.578125 284.945312 C 317.566406 287.113281 293.25 277.425781 274.121094 261.6875 C 263.601562 253.035156 254.625 242.515625 247.359375 231.023438 C 240.089844 219.535156 234.300781 205.785156 228 193.046875 C 222.023438 180.957031 215.101562 168.335938 204.027344 160.167969 C 192.953125 152 178.578125 149.140625 165.058594 145.980469 C 152.851562 143.117188 141.363281 139.011719 130.632812 132.460938 C 119.90625 125.90625 109.753906 117.277344 101.355469 107.5625 C 92.472656 97.296875 85.25 85.644531 80.265625 73 C 74.566406 58.558594 72.859375 43.03125 72.5625 27.617188 C 72.398438 19.566406 72.628906 11.511719 72.859375 3.484375 C 72.953125 0.371094 77.796875 0.371094 77.707031 3.484375 C 77.246094 19.542969 76.691406 35.855469 79.414062 51.75 C 81.835938 65.894531 87.28125 79.160156 95.054688 91.183594 C 108.625 112.109375 129.433594 129.96875 153.335938 137.789062 C 166.144531 141.988281 179.734375 143.441406 192.308594 148.402344 C 204.882812 153.363281 214.503906 161.601562 222.023438 172.652344 C 229.890625 184.257812 235.3125 197.339844 241.40625 209.890625 C 247.496094 222.441406 254.511719 234.394531 263.761719 244.890625 C 280.375 263.695312 303.332031 278.046875 328.734375 280.167969 C 355.636719 282.40625 385.679688 265.863281 409.765625 284.53125 C 420.515625 292.859375 425.6875 306.078125 429.445312 318.722656 C 433.578125 332.636719 436.667969 346.78125 441.582031 360.484375 C 450.902344 386.441406 464.332031 411.199219 481.984375 432.472656 C 499.632812 453.742188 520.050781 470.242188 544.648438 480.785156 C 571.410156 492.273438 601.566406 495.183594 629.945312 488.398438 C 636.800781 486.761719 643.488281 484.59375 649.996094 481.960938 C 652.878906 480.785156 654.148438 485.46875 651.289062 486.621094 Z M 651.242188 486.578125 " fill-opacity="1" fill-rule="nonzero"/><path fill="#aa8b56" d="M 656.574219 542.597656 C 590.722656 559.300781 524.757812 526.46875 471.117188 491.050781 C 457.78125 482.261719 444.90625 472.570312 434.316406 460.527344 C 423.863281 448.644531 415.71875 434.917969 408.980469 420.65625 C 402.242188 406.398438 397.007812 391.5625 391.929688 376.636719 C 387.269531 362.90625 382.539062 348.878906 374.878906 336.464844 C 367.152344 323.960938 356.214844 315.148438 341.171875 313.695312 C 326.128906 312.242188 309.929688 315.976562 294.402344 312.65625 C 277.929688 309.101562 263.070312 299.851562 248.789062 291.289062 C 242.257812 287.367188 235.84375 283.167969 230.285156 277.910156 C 225.300781 273.203125 221.171875 267.617188 217.664062 261.734375 C 210.394531 249.574219 205.480469 236.191406 199.757812 223.296875 C 194.039062 210.398438 187.96875 198.355469 177.816406 189.054688 C 157.03125 170.066406 126.875 170.414062 102.464844 158.667969 C 79.921875 147.824219 63.148438 127.152344 52.050781 105.210938 C 39.335938 80.109375 32.898438 51.660156 33.335938 23.535156 C 33.453125 16.660156 34.007812 9.804688 34.953125 2.976562 C 35.367188 -0.09375 40.050781 1.199219 39.613281 4.269531 C 35.738281 32.417969 39.519531 61.582031 49.695312 88.066406 C 58.71875 111.53125 73.4375 134.375 94.617188 148.5625 C 116.605469 163.308594 144.222656 163.46875 167.273438 175.789062 C 179.316406 182.226562 188.546875 191.964844 195.375 203.683594 C 202.367188 215.683594 207.1875 228.765625 212.820312 241.40625 C 218.449219 254.050781 224.46875 266.003906 234.507812 275.1875 C 240.597656 280.769531 247.726562 284.992188 254.8125 289.191406 C 261.894531 293.390625 269.160156 297.660156 276.660156 301.234375 C 284.160156 304.8125 292.765625 307.949219 301.371094 308.917969 C 308.960938 309.75 316.597656 309.171875 324.191406 308.800781 C 338.957031 308.0625 353.722656 308.710938 365.742188 318.378906 C 375.78125 326.429688 382.148438 338.3125 387.132812 349.917969 C 392.808594 363.183594 396.960938 377.003906 401.828125 390.570312 C 412.765625 421.074219 427.460938 450.445312 452.65625 471.601562 C 465.210938 482.144531 479.304688 490.914062 493.335938 499.359375 C 507.363281 507.804688 522.152344 515.785156 537.289062 522.523438 C 566.867188 535.675781 599.238281 544.417969 631.839844 541.859375 C 639.777344 541.234375 647.597656 539.898438 655.304688 537.9375 C 658.324219 537.175781 659.617188 541.835938 656.59375 542.597656 Z M 656.574219 542.597656 " fill-opacity="1" fill-rule="nonzero"/><path fill="#aa8b56" d="M 660.285156 593.726562 C 623.117188 591.164062 586.246094 584.957031 550.300781 575.242188 C 518.296875 566.613281 486.226562 555.792969 456.71875 540.542969 C 430.578125 527.046875 406.675781 509.117188 388.675781 485.675781 C 379.242188 473.378906 371.925781 459.859375 365.742188 445.691406 C 359.605469 431.640625 354.324219 417.21875 347.585938 403.421875 C 341.609375 391.171875 334.363281 378.941406 323.566406 370.335938 C 310.785156 360.140625 294.496094 357.671875 278.78125 355.523438 C 263.925781 353.472656 248.902344 351.09375 236.007812 342.902344 C 224.492188 335.589844 215.449219 325.023438 207.902344 313.785156 C 189.863281 286.929688 180.242188 255.734375 164.042969 227.910156 C 155.507812 213.234375 144.5 201.421875 129.480469 193.347656 C 116.421875 186.332031 102.117188 182.042969 88.550781 176.160156 C 74.984375 170.273438 63.515625 162.867188 53.6875 152.441406 C 43.859375 142.011719 36.867188 130.730469 30.847656 118.453125 C 17.324219 90.765625 10.148438 60.242188 4.957031 30.015625 C 3.667969 22.496094 2.511719 14.929688 1.453125 7.382812 C 1.011719 4.335938 5.695312 3.023438 6.113281 6.089844 C 10.449219 36.800781 16.125 67.671875 26.878906 96.859375 C 36.429688 122.769531 50.917969 148.839844 75.03125 163.792969 C 100.433594 179.550781 132.179688 182.941406 153.546875 205.367188 C 165.175781 217.550781 172.71875 233.054688 179.734375 248.167969 C 186.308594 262.359375 192.585938 276.707031 199.851562 290.550781 C 206.679688 303.589844 214.363281 316.484375 224.585938 327.191406 C 234.808594 337.898438 247.3125 344.75 261.917969 347.933594 C 276.820312 351.164062 292.328125 351.464844 306.886719 356.261719 C 320.40625 360.714844 331.226562 369.136719 339.625 380.511719 C 357.066406 404.070312 363.964844 433.625 377.464844 459.304688 C 391.746094 486.484375 413.480469 508.5625 439.253906 525.015625 C 465.371094 541.695312 494.648438 552.980469 524.019531 562.460938 C 559.574219 573.953125 596.214844 582.097656 633.339844 586.433594 C 642.289062 587.472656 651.265625 588.304688 660.242188 588.925781 C 663.332031 589.132812 663.355469 593.980469 660.242188 593.769531 Z M 660.285156 593.726562 " fill-opacity="1" fill-rule="nonzero"/></g></g></g><g clip-path="url(#17481b97a3)"><path fill="#e7ddd3" d="M 162.921875 183.742188 C 208.074219 191.238281 251.082031 211.082031 278.105469 241.917969 C 306.460938 274.273438 315.238281 315.53125 318.402344 355.410156 C 321.566406 395.285156 320.019531 435.757812 331.058594 474.660156 C 342.097656 513.5625 368.359375 552.011719 411.867188 569.402344 C 422.359375 573.589844 433.5625 576.445312 444.71875 579.300781 C 484.421875 589.414062 524.484375 599.667969 560.546875 616.679688 C 596.609375 633.714844 628.867188 658.316406 644.757812 690.03125 C 661.457031 723.34375 658.722656 760.839844 655.722656 796.816406 C 626.082031 797.933594 596.445312 799.074219 566.804688 800.195312 C 560.640625 800.433594 554.265625 800.644531 548.507812 798.8125 C 534.238281 794.316406 529.503906 780.015625 525.269531 767.882812 C 516.964844 743.996094 502.550781 720.441406 478.121094 705.925781 C 453.546875 691.316406 422.265625 687.652344 393.480469 679.945312 C 316.5 659.339844 253.628906 605.804688 231.003906 541.589844 C 217.730469 503.925781 217.730469 464.046875 210.355469 425.289062 C 202.980469 386.53125 186.164062 346.367188 148.53125 322.480469 C 115.035156 301.234375 70.410156 296.308594 28.160156 296.855469 C 25.640625 296.878906 22.976562 296.902344 20.785156 295.855469 C 16.597656 293.855469 16.101562 289.097656 16.074219 285.078125 C 16.074219 262.261719 0.328125 193.070312 26.519531 185.648438 C 30.847656 184.410156 46.714844 186.027344 52.472656 185.457031 C 65.316406 184.195312 77.878906 181.648438 90.820312 180.746094 C 114.871094 179.054688 139.207031 179.769531 162.898438 183.695312 Z M 162.921875 183.742188 " fill-opacity="1" fill-rule="nonzero"/></g><g clip-path="url(#dbc0a3c318)"><path fill="#caa98a" d="M 74.285156 467.832031 C 63.84375 440.445312 48 425.242188 18.050781 412.894531 C 15.550781 411.871094 12.9375 410.75 11.390625 408.824219 C 9.628906 406.613281 9.605469 403.78125 9.652344 401.140625 C 9.867188 388.695312 10.082031 376.25 10.320312 363.808594 C 10.484375 353.863281 10.769531 343.558594 15.933594 334.589844 C 37.105469 297.832031 120.460938 344.394531 141.585938 363.023438 C 171.675781 389.574219 182.59375 427.359375 185.285156 463.691406 C 187.972656 500 183.664062 536.59375 188.683594 572.757812 C 193.726562 608.898438 209.90625 646.109375 244.730469 668.355469 C 279.082031 690.269531 324.851562 693.933594 367.621094 699.835938 C 410.394531 705.757812 456.6875 717.015625 480.09375 747.207031 C 492.679688 763.433594 496.863281 783.085938 499.171875 802.265625 C 499.363281 803.859375 499.527344 805.546875 498.578125 806.949219 C 496.914062 809.449219 492.796875 809.734375 489.347656 809.734375 C 446.410156 809.617188 403.449219 809.496094 360.507812 809.378906 C 314.191406 809.257812 267.566406 809.09375 221.988281 802.3125 C 208.644531 800.3125 194.75 797.480469 184.855469 789.820312 C 177.601562 784.203125 173.222656 776.519531 169.703125 768.835938 C 158.234375 743.828125 153.90625 716.753906 140.394531 692.460938 C 125.171875 665.074219 98.695312 642.019531 88.75 613.015625 C 81.96875 593.242188 83.46875 572.304688 84.183594 551.773438 C 85.15625 523.554688 84.515625 494.8125 74.238281 467.878906 Z M 74.285156 467.832031 " fill-opacity="1" fill-rule="nonzero"/></g></svg>