<svg xmlns="http://www.w3.org/2000/svg" xmlns:xlink="http://www.w3.org/1999/xlink" width="1920" zoomAndPan="magnify" viewBox="0 0 1440 809.999993" height="1080" preserveAspectRatio="xMidYMid meet" version="1.0"><defs><filter x="0%" y="0%" width="100%" height="100%" id="f7075b50c8"><feColorMatrix values="0 0 0 0 1 0 0 0 0 1 0 0 0 0 1 0 0 0 1 0" color-interpolation-filters="sRGB"/></filter><mask id="1525525341"><g filter="url(#f7075b50c8)"><rect x="-144" width="1728" fill="#000000" y="-80.999999" height="971.999992" fill-opacity="0.64"/></g></mask><clipPath id="967fa7da3d"><path d="M 0.640625 0.921875 L 339.039062 0.921875 L 339.039062 336.679688 L 0.640625 336.679688 Z M 0.640625 0.921875 " clip-rule="nonzero"/></clipPath><clipPath id="358b92cd73"><path d="M 0.640625 0.921875 L 320 0.921875 L 320 316 L 0.640625 316 Z M 0.640625 0.921875 " clip-rule="nonzero"/></clipPath><clipPath id="97f0ca46df"><path d="M 0.640625 0.921875 L 288 0.921875 L 288 277 L 0.640625 277 Z M 0.640625 0.921875 " clip-rule="nonzero"/></clipPath><clipPath id="ed7a477f16"><path d="M 0.640625 0.921875 L 261 0.921875 L 261 245 L 0.640625 245 Z M 0.640625 0.921875 " clip-rule="nonzero"/></clipPath><clipPath id="032091a73c"><path d="M 0.640625 0.921875 L 226 0.921875 L 226 210 L 0.640625 210 Z M 0.640625 0.921875 " clip-rule="nonzero"/></clipPath><clipPath id="8053d18084"><path d="M 0.640625 0.921875 L 191 0.921875 L 191 177 L 0.640625 177 Z M 0.640625 0.921875 " clip-rule="nonzero"/></clipPath><clipPath id="b1e519ea88"><path d="M 0.640625 0.921875 L 160 0.921875 L 160 146 L 0.640625 146 Z M 0.640625 0.921875 " clip-rule="nonzero"/></clipPath><clipPath id="3fd908f7fc"><path d="M 0.640625 0.921875 L 126 0.921875 L 126 113 L 0.640625 113 Z M 0.640625 0.921875 " clip-rule="nonzero"/></clipPath><clipPath id="1b1b7bb3bd"><path d="M 0.640625 0.921875 L 81 0.921875 L 81 71 L 0.640625 71 Z M 0.640625 0.921875 " clip-rule="nonzero"/></clipPath><clipPath id="e9eb134ead"><rect x="0" width="340" y="0" height="337"/></clipPath><clipPath id="d06b98011a"><path d="M 0 0 L 819.75 0 L 819.75 636 L 0 636 Z M 0 0 " clip-rule="nonzero"/></clipPath></defs><path fill="#e7ddd3" d="M 522.578125 5.742188 C 517.164062 13.410156 510.132812 22.625 501.476562 33.933594 C 477.664062 65.097656 456.957031 92.1875 419.105469 108.519531 C 408.28125 113.199219 380.664062 124.757812 346.753906 120.761719 C 330.058594 118.800781 329.726562 115.191406 301.117188 108.519531 C 271.667969 101.660156 251.460938 96.941406 227.644531 100.726562 C 218.871094 102.125 191.019531 106.539062 169.761719 127.441406 C 160.699219 136.359375 152.382812 148.703125 137.480469 222.066406 C 125.304688 281.996094 128.128906 287.148438 118.539062 313.339844 C 111.582031 332.367188 101.097656 360.207031 76.242188 386.808594 C 58.242188 406.082031 30.59375 426.949219 6.851562 433.894531 L 6.851562 5.742188 Z M 522.578125 5.742188 " fill-opacity="1" fill-rule="nonzero"/><g mask="url(#1525525341)"><g transform="matrix(1, 0, 0, 1, 2, 1)"><g clip-path="url(#e9eb134ead)"><g clip-path="url(#967fa7da3d)"><path stroke-linecap="butt" transform="matrix(0.451022, 0, 0, 0.451022, -39.854241, -109.966764)" fill="none" stroke-linejoin="miter" d="M 98.246441 981.369965 C 136.787412 963.727727 174.505598 944.491885 211.418321 923.662439 C 248.322383 902.824332 284.291069 880.470569 319.298395 856.592489 C 354.314383 832.714409 388.265081 807.398621 421.133167 780.653785 C 454.001253 753.900289 485.682797 725.804355 516.177799 696.365982 C 548.924633 664.727742 580.155811 631.651794 609.879993 597.15546 C 639.604175 562.659126 667.70011 526.872319 694.150475 489.812361 C 720.609501 452.743742 745.319027 414.549207 768.279052 375.228756 C 791.247739 335.908305 812.371655 295.617834 831.659462 254.366004 " stroke="#231f20" stroke-width="1.59" stroke-opacity="1" stroke-miterlimit="10"/></g><g clip-path="url(#358b92cd73)"><path stroke-linecap="butt" transform="matrix(0.451022, 0, 0, 0.451022, -39.854241, -109.966764)" fill="none" stroke-linejoin="miter" d="M 98.246441 920.163439 C 138.164494 898.658443 177.155831 875.594487 215.211792 850.954248 C 253.276413 826.322671 290.293067 800.201419 326.253092 772.599156 C 362.221778 744.996892 397.021243 715.991564 430.651488 685.591832 C 464.290393 655.1921 496.647487 623.493234 527.74009 590.486573 C 575.470268 539.751066 619.883324 486.261395 660.979258 430.017561 C 702.075192 373.773726 739.550873 315.208772 773.388979 254.322699 " stroke="#231f20" stroke-width="1.59" stroke-opacity="1" stroke-miterlimit="10"/></g><g clip-path="url(#97f0ca46df)"><path stroke-linecap="butt" transform="matrix(0.451022, 0, 0, 0.451022, -39.854241, -109.966764)" fill="none" stroke-linejoin="miter" d="M 98.246441 835.226068 C 160.985945 801.344657 221.127181 763.366644 278.687471 721.29203 C 336.239101 679.217415 390.68147 633.435938 441.997257 583.938939 C 492.654816 535.065523 539.830696 483.039543 583.524898 427.860998 C 627.219099 372.682454 667.041882 314.827693 703.001907 254.322699 " stroke="#231f20" stroke-width="1.59" stroke-opacity="1" stroke-miterlimit="10"/></g><g clip-path="url(#ed7a477f16)"><path stroke-linecap="butt" transform="matrix(0.451022, 0, 0, 0.451022, -39.854241, -109.966764)" fill="none" stroke-linejoin="miter" d="M 99.147174 762.760382 C 210.058561 696.773044 312.387003 619.439936 406.149823 530.76106 C 494.820039 446.89764 573.824698 354.745746 643.14648 254.296717 " stroke="#231f20" stroke-width="1.56" stroke-opacity="1" stroke-miterlimit="10"/></g><g clip-path="url(#032091a73c)"><path stroke-linecap="butt" transform="matrix(0.451022, 0, 0, 0.451022, -39.854241, -109.966764)" fill="none" stroke-linejoin="miter" d="M 99.147174 685.409953 C 149.891342 659.496563 198.513591 630.084173 245.013922 597.15546 C 291.514253 564.235409 335.407655 528.14547 376.70279 488.894307 C 413.364347 454.016893 447.66148 416.948274 479.59419 377.69711 C 511.518239 338.437285 540.826699 297.315369 567.510908 254.322699 " stroke="#231f20" stroke-width="1.55" stroke-opacity="1" stroke-miterlimit="10"/></g><g clip-path="url(#8053d18084)"><path stroke-linecap="butt" transform="matrix(0.451022, 0, 0, 0.451022, -39.854241, -109.966764)" fill="none" stroke-linejoin="miter" d="M 99.649506 613.836339 C 176.878682 563.845668 249.049898 507.385312 316.171813 444.47259 C 378.668812 385.872993 435.874006 322.492583 487.778733 254.33136 " stroke="#231f20" stroke-width="1.57" stroke-opacity="1" stroke-miterlimit="10"/></g><g clip-path="url(#b1e519ea88)"><path stroke-linecap="butt" transform="matrix(0.451022, 0, 0, 0.451022, -39.854241, -109.966764)" fill="none" stroke-linejoin="miter" d="M 100.238446 544.783045 C 160.405665 504.26739 217.299067 459.585847 270.90999 410.721093 C 324.157156 362.194113 373.60219 310.064202 419.253753 254.33136 " stroke="#231f20" stroke-width="1.56" stroke-opacity="1" stroke-miterlimit="10"/></g><g clip-path="url(#3fd908f7fc)"><path stroke-linecap="butt" transform="matrix(0.451022, 0, 0, 0.451022, -39.854241, -109.966764)" fill="none" stroke-linejoin="miter" d="M 99.155835 471.511896 C 137.436979 440.367327 176.393672 407.360666 216.017255 372.509236 C 261.218452 332.651809 303.90799 293.25341 344.077208 254.33136 " stroke="#231f20" stroke-width="1.57" stroke-opacity="1" stroke-miterlimit="10"/></g><g clip-path="url(#1b1b7bb3bd)"><path stroke-linecap="butt" transform="matrix(0.451022, 0, 0, 0.451022, -39.854241, -109.966764)" fill="none" stroke-linejoin="miter" d="M 99.147174 378.623826 C 128.966626 357.11883 160.267091 332.487252 192.147836 304.348013 C 211.262425 287.493917 229.025915 270.752412 245.516254 254.348682 " stroke="#231f20" stroke-width="1.49" stroke-opacity="1" stroke-miterlimit="10"/></g></g></g></g><g clip-path="url(#d06b98011a)"><path stroke-linecap="butt" transform="matrix(0.451022, 0, 0, 0.451022, -37.854242, -108.966757)" fill="none" stroke-linejoin="miter" d="M 87.63685 1642.213353 C 165.541576 1609.873581 286.560225 1546.207362 383.813384 1422.547142 C 471.383666 1311.159406 501.809381 1199.217373 534.357014 1074.552489 C 602.622167 813.166759 553.740091 722.90294 653.357675 542.357979 C 708.068531 443.182101 759.271726 404.363982 800.939279 383.491231 C 879.337676 344.222746 959.243069 351.004224 1022.995897 356.339334 C 1116.368977 364.212085 1138.003886 386.565848 1247.598817 408.166113 C 1299.226396 418.342662 1383.340982 434.373973 1487.003202 427.912948 C 1561.382945 423.27937 1721.107121 411.162782 1847.339626 297.098831 C 1864.228366 281.838338 1879.861277 265.382643 1894.238358 247.740405 " stroke="#726658" stroke-width="19.33" stroke-opacity="1" stroke-miterlimit="10"/></g></svg>