<svg xmlns="http://www.w3.org/2000/svg" xmlns:xlink="http://www.w3.org/1999/xlink" width="1920" zoomAndPan="magnify" viewBox="0 0 1440 809.999993" height="1080" preserveAspectRatio="xMidYMid meet" version="1.0"><defs><filter x="0%" y="0%" width="100%" height="100%" id="aff4bd6307"><feColorMatrix values="0 0 0 0 1 0 0 0 0 1 0 0 0 0 1 0 0 0 1 0" color-interpolation-filters="sRGB"/></filter><clipPath id="f956998d0b"><path d="M 0 388.039062 L 547.894531 388.039062 L 547.894531 810 L 0 810 Z M 0 388.039062 " clip-rule="nonzero"/></clipPath><clipPath id="4cd0afe6c7"><path d="M 0 136 L 347 136 L 347 422 L 0 422 Z M 0 136 " clip-rule="nonzero"/></clipPath><mask id="653ff49ef6"><g filter="url(#aff4bd6307)"><rect x="-316.8" width="2073.6" fill="#000000" y="-566.199998" height="1166.39999" fill-opacity="0.64"/></g></mask><clipPath id="96fe7681f3"><path d="M 0 0.441406 L 224.398438 0.441406 L 224.398438 221 L 0 221 Z M 0 0.441406 " clip-rule="nonzero"/></clipPath><clipPath id="30e62d0e7d"><path d="M 0 15 L 211 15 L 211 221 L 0 221 Z M 0 15 " clip-rule="nonzero"/></clipPath><clipPath id="8c4ca022ca"><path d="M 0 40 L 190 40 L 190 221 L 0 221 Z M 0 40 " clip-rule="nonzero"/></clipPath><clipPath id="d62acfa7c4"><path d="M 0 63 L 171 63 L 171 221 L 0 221 Z M 0 63 " clip-rule="nonzero"/></clipPath><clipPath id="d38e23da10"><path d="M 0 86 L 148 86 L 148 221 L 0 221 Z M 0 86 " clip-rule="nonzero"/></clipPath><clipPath id="228536c0e4"><path d="M 0 108 L 124 108 L 124 221 L 0 221 Z M 0 108 " clip-rule="nonzero"/></clipPath><clipPath id="ea2e73b2c6"><path d="M 0 129 L 103 129 L 103 221 L 0 221 Z M 0 129 " clip-rule="nonzero"/></clipPath><clipPath id="4089f3959c"><path d="M 0 151 L 80 151 L 80 221 L 0 221 Z M 0 151 " clip-rule="nonzero"/></clipPath><clipPath id="cf90050bb0"><path d="M 0 180 L 50 180 L 50 221 L 0 221 Z M 0 180 " clip-rule="nonzero"/></clipPath><clipPath id="dd7241d88e"><rect x="0" width="225" y="0" height="221"/></clipPath><clipPath id="984ad50762"><path d="M 0 0.0742188 L 547.894531 0.0742188 L 547.894531 422 L 0 422 Z M 0 0.0742188 " clip-rule="nonzero"/></clipPath><clipPath id="e9d8d1284a"><rect x="0" width="548" y="0" height="422"/></clipPath><clipPath id="cf806ddfd7"><path d="M 862.804688 388.039062 L 1440 388.039062 L 1440 810 L 862.804688 810 Z M 862.804688 388.039062 " clip-rule="nonzero"/></clipPath><clipPath id="d9a1da87e4"><path d="M 212 143 L 578 143 L 578 422 L 212 422 Z M 212 143 " clip-rule="nonzero"/></clipPath><mask id="46489419fd"><g filter="url(#aff4bd6307)"><rect x="-1178.8" width="2073.6" fill="#000000" y="-566.199998" height="1166.39999" fill-opacity="0.64"/></g></mask><clipPath id="4b614c7136"><path d="M 0.078125 0.480469 L 236 0.480469 L 236 210 L 0.078125 210 Z M 0.078125 0.480469 " clip-rule="nonzero"/></clipPath><clipPath id="ca55ffa5d3"><path d="M 14 15 L 236 15 L 236 210 L 14 210 Z M 14 15 " clip-rule="nonzero"/></clipPath><clipPath id="4c26f6e583"><path d="M 36 43 L 236 43 L 236 210 L 36 210 Z M 36 43 " clip-rule="nonzero"/></clipPath><clipPath id="f04395bc00"><path d="M 56 66 L 236 66 L 236 210 L 56 210 Z M 56 66 " clip-rule="nonzero"/></clipPath><clipPath id="3a3114d426"><path d="M 80 91 L 236 91 L 236 210 L 80 210 Z M 80 91 " clip-rule="nonzero"/></clipPath><clipPath id="987cabe59b"><path d="M 106 114 L 236 114 L 236 210 L 106 210 Z M 106 114 " clip-rule="nonzero"/></clipPath><clipPath id="05f79fc153"><path d="M 128 136 L 236 136 L 236 210 L 128 210 Z M 128 136 " clip-rule="nonzero"/></clipPath><clipPath id="099ef40d49"><path d="M 152 160 L 236 160 L 236 210 L 152 210 Z M 152 160 " clip-rule="nonzero"/></clipPath><clipPath id="d2546af6a2"><path d="M 184 190 L 236 190 L 236 210 L 184 210 Z M 184 190 " clip-rule="nonzero"/></clipPath><clipPath id="bfb00e0a46"><rect x="0" width="236" y="0" height="210"/></clipPath><clipPath id="0980608380"><path d="M 0.980469 0.214844 L 578 0.214844 L 578 422 L 0.980469 422 Z M 0.980469 0.214844 " clip-rule="nonzero"/></clipPath><clipPath id="c00c5a29a6"><rect x="0" width="578" y="0" height="422"/></clipPath></defs><g clip-path="url(#f956998d0b)"><g transform="matrix(1, 0, 0, 1, 0, 388)"><g clip-path="url(#e9d8d1284a)"><g clip-path="url(#4cd0afe6c7)"><path fill="#e7ddd3" d="M 346.925781 425.945312 C 343.265625 420.761719 338.511719 414.53125 332.660156 406.886719 C 316.5625 385.820312 302.5625 367.503906 276.976562 356.460938 C 269.660156 353.300781 250.984375 345.484375 228.0625 348.1875 C 216.773438 349.511719 216.550781 351.953125 197.210938 356.460938 C 177.300781 361.101562 163.640625 364.289062 147.539062 361.730469 C 141.609375 360.785156 122.78125 357.800781 108.40625 343.671875 C 102.28125 337.644531 96.660156 329.296875 86.585938 279.703125 C 78.351562 239.1875 80.265625 235.703125 73.78125 217.996094 C 69.078125 205.132812 61.988281 186.3125 45.183594 168.328125 C 33.015625 155.300781 14.324219 141.191406 -1.726562 136.496094 L -1.726562 425.945312 Z M 346.925781 425.945312 " fill-opacity="1" fill-rule="nonzero"/></g><g mask="url(#653ff49ef6)"><g transform="matrix(1, 0, 0, 1, 0, 201)"><g clip-path="url(#dd7241d88e)"><g clip-path="url(#96fe7681f3)"><path stroke-linecap="butt" transform="matrix(0.304908, 0, 0, -0.304908, -31.947535, 302.492105)" fill="none" stroke-linejoin="miter" d="M 98.243902 981.366586 C 175.457265 946.033177 249.147536 904.43507 319.301905 856.597888 C 389.456273 808.747894 455.088272 755.350632 516.185091 696.367668 C 548.930629 664.723897 580.16444 631.658078 609.886525 597.1574 C 639.608609 562.656722 667.690854 526.87492 694.146072 489.811993 C 720.601289 452.749066 745.314177 414.55875 768.284737 375.228233 C 791.242485 335.910527 812.368225 295.619167 831.661957 254.366964 " stroke="#231f20" stroke-width="1.59" stroke-opacity="1" stroke-miterlimit="10"/></g><g clip-path="url(#30e62d0e7d)"><path stroke-linecap="butt" transform="matrix(0.304908, 0, 0, -0.304908, -31.947535, 302.492105)" fill="none" stroke-linejoin="miter" d="M 98.243902 920.154466 C 178.211682 877.083066 254.207978 827.900703 326.25841 772.594566 C 398.296031 717.30124 465.465379 656.601569 527.740833 590.495554 C 575.462714 539.750219 619.879294 486.263278 660.977763 430.009109 C 702.076231 373.767751 739.549118 315.207558 773.383611 254.315719 " stroke="#231f20" stroke-width="1.59" stroke-opacity="1" stroke-miterlimit="10"/></g><g clip-path="url(#8c4ca022ca)"><path stroke-linecap="butt" transform="matrix(0.304908, 0, 0, -0.304908, -31.947535, 302.492105)" fill="none" stroke-linejoin="miter" d="M 98.243902 835.228734 C 160.98056 801.342996 221.129347 763.370471 278.677452 721.298348 C 336.238368 679.213413 390.686152 633.438841 441.995182 583.936197 C 492.650837 535.074115 539.834646 483.047656 583.520986 427.85682 C 627.220137 372.678796 667.050292 314.836032 702.998641 254.315719 " stroke="#231f20" stroke-width="1.59" stroke-opacity="1" stroke-miterlimit="10"/></g><g clip-path="url(#d62acfa7c4)"><path stroke-linecap="butt" transform="matrix(0.304908, 0, 0, -0.304908, -31.947535, 302.492105)" fill="none" stroke-linejoin="miter" d="M 99.1535 762.755531 C 210.060433 696.764817 312.383833 619.436152 406.149323 530.756726 C 494.815938 446.894328 573.822875 354.743055 643.144512 254.302908 " stroke="#231f20" stroke-width="1.56" stroke-opacity="1" stroke-miterlimit="10"/></g><g clip-path="url(#d38e23da10)"><path stroke-linecap="butt" transform="matrix(0.304908, 0, 0, -0.304908, -31.947535, 302.492105)" fill="none" stroke-linejoin="miter" d="M 99.1535 685.414055 C 149.898835 659.49691 198.517503 630.082296 245.009505 597.1574 C 291.514318 564.232505 335.405637 528.143233 376.696275 488.889583 C 450.32249 418.850516 513.930313 340.663499 567.506932 254.315719 " stroke="#231f20" stroke-width="1.55" stroke-opacity="1" stroke-miterlimit="10"/></g><g clip-path="url(#228536c0e4)"><path stroke-linecap="butt" transform="matrix(0.304908, 0, 0, -0.304908, -31.947535, 302.492105)" fill="none" stroke-linejoin="miter" d="M 99.653139 613.837639 C 176.879313 563.848168 249.045047 507.389019 316.175961 444.473003 C 378.669206 385.874376 435.871407 322.484344 487.782565 254.32853 " stroke="#231f20" stroke-width="1.57" stroke-opacity="1" stroke-miterlimit="10"/></g><g clip-path="url(#ea2e73b2c6)"><path stroke-linecap="butt" transform="matrix(0.304908, 0, 0, -0.304908, -31.947535, 302.492105)" fill="none" stroke-linejoin="miter" d="M 100.242456 544.785038 C 160.404054 504.263075 217.298786 459.577459 270.913839 410.715377 C 324.157366 362.199199 373.608765 310.07025 419.255225 254.32853 " stroke="#231f20" stroke-width="1.56" stroke-opacity="1" stroke-miterlimit="10"/></g><g clip-path="url(#4089f3959c)"><path stroke-linecap="butt" transform="matrix(0.304908, 0, 0, -0.304908, -31.947535, 302.492105)" fill="none" stroke-linejoin="miter" d="M 99.166311 471.504726 C 137.446306 440.360594 176.392486 407.358831 216.017661 372.512249 C 261.215728 332.64366 303.90279 293.261898 344.078849 254.32853 " stroke="#231f20" stroke-width="1.57" stroke-opacity="1" stroke-miterlimit="10"/></g><g clip-path="url(#cf90050bb0)"><path stroke-linecap="butt" transform="matrix(0.304908, 0, 0, -0.304908, -31.947535, 302.492105)" fill="none" stroke-linejoin="miter" d="M 99.1535 378.623212 C 128.965263 357.125946 160.275942 332.489925 192.150315 304.343624 C 211.26469 287.484028 229.033885 270.752544 245.521955 254.354153 " stroke="#231f20" stroke-width="1.49" stroke-opacity="1" stroke-miterlimit="10"/></g></g></g></g><g clip-path="url(#984ad50762)"><path stroke-linecap="butt" transform="matrix(0.304908, 0, 0, -0.304908, -31.947535, 503.492095)" fill="none" stroke-linejoin="miter" d="M 87.636192 1642.208917 C 165.541363 1609.873339 286.556367 1546.214271 383.806515 1422.547339 C 471.384174 1311.153579 501.810876 1199.221747 534.364246 1074.555538 C 602.62255 813.167742 553.734845 722.899722 653.355073 542.363681 C 708.071893 443.179036 759.265621 404.360969 800.940596 383.491453 C 879.345405 344.224993 959.236318 351.00214 1022.997875 356.344429 C 1116.366216 364.210532 1138.004406 386.566152 1247.604593 408.165908 C 1299.233903 418.338035 1383.339715 434.3649 1486.995485 427.908034 C 1561.377563 423.283175 1721.108144 411.163739 1847.337324 297.10524 C 1864.222543 281.834238 1879.865071 265.384602 1894.239286 247.74352 " stroke="#726658" stroke-width="19.33" stroke-opacity="1" stroke-miterlimit="10"/></g></g></g></g><g clip-path="url(#cf806ddfd7)"><g transform="matrix(1, 0, 0, 1, 862, 388)"><g clip-path="url(#c00c5a29a6)"><g clip-path="url(#d9a1da87e4)"><path fill="#e7ddd3" d="M 212.722656 449.125 C 216.582031 443.660156 221.59375 437.089844 227.761719 429.027344 C 244.738281 406.8125 259.5 387.5 286.480469 375.859375 C 294.195312 372.527344 313.882812 364.285156 338.054688 367.132812 C 349.957031 368.53125 350.191406 371.105469 370.585938 375.859375 C 391.578125 380.75 405.980469 384.113281 422.960938 381.414062 C 429.214844 380.417969 449.066406 377.269531 464.222656 362.375 C 470.679688 356.015625 476.609375 347.21875 487.230469 294.921875 C 495.910156 252.199219 493.894531 248.53125 500.734375 229.859375 C 505.691406 216.296875 513.167969 196.449219 530.886719 177.488281 C 543.714844 163.75 563.425781 148.875 580.347656 143.921875 L 580.347656 449.125 Z M 212.722656 449.125 " fill-opacity="1" fill-rule="nonzero"/></g><g mask="url(#46489419fd)"><g transform="matrix(1, 0, 0, 1, 342, 212)"><g clip-path="url(#bfb00e0a46)"><g clip-path="url(#4b614c7136)"><path stroke-linecap="butt" transform="matrix(-0.321502, 0, 0, -0.321502, 270.215282, 318.89142)" fill="none" stroke-linejoin="miter" d="M 98.246387 981.371342 C 175.459733 946.026949 249.149574 904.437447 319.303761 856.590687 C 389.457948 808.756078 455.08018 755.344612 516.182606 696.368438 C 548.926896 664.729799 580.164585 631.657458 609.883522 597.151415 C 639.602459 562.657522 667.693294 526.875728 694.156027 489.806032 C 720.60661 452.748486 745.31974 414.548838 768.283269 375.231389 C 791.246797 335.913941 812.375674 295.624491 831.657748 254.375189 " stroke="#231f20" stroke-width="1.59" stroke-opacity="1" stroke-miterlimit="10"/></g><g clip-path="url(#ca55ffa5d3)"><path stroke-linecap="butt" transform="matrix(-0.321502, 0, 0, -0.321502, 270.215282, 318.89142)" fill="none" stroke-linejoin="miter" d="M 98.246387 920.159566 C 178.205636 877.087763 254.20398 827.904502 326.25357 772.597633 C 398.303159 717.302914 465.456293 656.601439 527.73727 590.493207 C 575.462529 539.754744 619.882985 486.258227 660.974336 430.015807 C 702.077837 373.773388 739.548483 315.210315 773.386275 254.314439 " stroke="#231f20" stroke-width="1.59" stroke-opacity="1" stroke-miterlimit="10"/></g><g clip-path="url(#4c26f6e583)"><path stroke-linecap="butt" transform="matrix(-0.321502, 0, 0, -0.321502, 270.215282, 318.89142)" fill="none" stroke-linejoin="miter" d="M 98.246387 835.230961 C 160.976915 801.344569 221.131639 763.363622 278.686261 721.288119 C 336.240882 679.212617 390.6851 633.43136 441.994614 583.944349 C 492.660177 535.064838 539.826535 483.038473 583.530139 427.865255 C 627.221594 372.679886 667.049343 314.833664 703.001238 254.314439 " stroke="#231f20" stroke-width="1.59" stroke-opacity="1" stroke-miterlimit="10"/></g><g clip-path="url(#f04395bc00)"><path stroke-linecap="butt" transform="matrix(-0.321502, 0, 0, -0.321502, 270.215282, 318.89142)" fill="none" stroke-linejoin="miter" d="M 99.145488 762.756121 C 210.050825 696.769389 312.390403 619.434543 406.152069 530.763733 C 494.822879 446.892178 573.822277 354.746464 643.150264 254.302289 " stroke="#231f20" stroke-width="1.56" stroke-opacity="1" stroke-miterlimit="10"/></g><g clip-path="url(#3a3114d426)"><path stroke-linecap="butt" transform="matrix(-0.321502, 0, 0, -0.321502, 270.215282, 318.89142)" fill="none" stroke-linejoin="miter" d="M 99.145488 685.409125 C 149.896101 659.505293 198.508311 630.077956 245.006419 597.163565 C 291.516677 564.237024 335.402531 528.151479 376.700433 488.894781 C 450.329524 418.849944 513.922703 340.664596 567.50427 254.314439 " stroke="#231f20" stroke-width="1.55" stroke-opacity="1" stroke-miterlimit="10"/></g><g clip-path="url(#987cabe59b)"><path stroke-linecap="butt" transform="matrix(-0.321502, 0, 0, -0.321502, 270.215282, 318.89142)" fill="none" stroke-linejoin="miter" d="M 99.655788 613.845536 C 176.881284 563.848224 249.052374 507.387104 316.169057 444.474325 C 378.668735 385.874803 435.871006 322.488174 487.77587 254.326589 " stroke="#231f20" stroke-width="1.57" stroke-opacity="1" stroke-miterlimit="10"/></g><g clip-path="url(#05f79fc153)"><path stroke-linecap="butt" transform="matrix(-0.321502, 0, 0, -0.321502, 270.215282, 318.89142)" fill="none" stroke-linejoin="miter" d="M 100.238989 544.78485 C 160.405864 504.26455 217.304384 459.576794 270.910251 410.721584 C 324.151617 362.194423 373.602179 310.058708 419.249785 254.326589 " stroke="#231f20" stroke-width="1.56" stroke-opacity="1" stroke-miterlimit="10"/></g><g clip-path="url(#099ef40d49)"><path stroke-linecap="butt" transform="matrix(-0.321502, 0, 0, -0.321502, 270.215282, 318.89142)" fill="none" stroke-linejoin="miter" d="M 99.157638 471.508109 C 137.442335 440.36762 176.395284 407.368179 216.016483 372.509786 C 261.214539 332.645587 303.909692 293.255238 344.077642 254.326589 " stroke="#231f20" stroke-width="1.57" stroke-opacity="1" stroke-miterlimit="10"/></g><g clip-path="url(#d2546af6a2)"><path stroke-linecap="butt" transform="matrix(-0.321502, 0, 0, -0.321502, 270.215282, 318.89142)" fill="none" stroke-linejoin="miter" d="M 99.145488 378.621244 C 128.973775 357.115717 160.272214 332.487636 192.153853 304.348201 C 211.265827 287.48398 229.029149 270.75341 245.51672 254.350889 " stroke="#231f20" stroke-width="1.49" stroke-opacity="1" stroke-miterlimit="10"/></g></g></g></g><g clip-path="url(#0980608380)"><path stroke-linecap="butt" transform="matrix(-0.321502, 0, 0, -0.321502, 612.215292, 530.891358)" fill="none" stroke-linejoin="miter" d="M 87.639453 1642.210469 C 165.54535 1609.867129 286.5595 1546.2132 383.808221 1422.550346 C 471.38553 1311.159008 501.809168 1199.220919 534.359058 1074.549614 C 602.617843 813.166339 553.738332 722.903877 653.356306 542.354653 C 708.067824 443.17408 759.267988 404.354782 800.942539 383.493206 C 879.334437 344.224357 959.245086 351.004065 1022.996215 356.337922 C 1116.369081 364.211132 1137.996108 386.567159 1247.601394 408.169886 C 1299.226808 418.339449 1383.341363 434.365319 1487.005292 427.913661 C 1561.375534 423.284505 1721.111782 411.15879 1847.338289 297.094448 C 1864.22681 281.834029 1879.86388 265.382909 1894.237348 247.741087 " stroke="#726658" stroke-width="19.33" stroke-opacity="1" stroke-miterlimit="10"/></g></g></g></g></svg>