<svg xmlns="http://www.w3.org/2000/svg" xmlns:xlink="http://www.w3.org/1999/xlink" width="1920" zoomAndPan="magnify" viewBox="0 0 1440 809.999993" height="1080" preserveAspectRatio="xMidYMid meet" version="1.0"><defs><filter x="0%" y="0%" width="100%" height="100%" id="51ddd9a492"><feColorMatrix values="0 0 0 0 1 0 0 0 0 1 0 0 0 0 1 0 0 0 1 0" color-interpolation-filters="sRGB"/></filter><mask id="35c7f2de29"><g filter="url(#51ddd9a492)"><rect x="-144" width="1728" fill="#000000" y="-80.999999" height="971.999992" fill-opacity="0.64"/></g></mask><clipPath id="f13f7ed64f"><path d="M 0 0 L 338.398438 0 L 338.398438 338.878906 L 0 338.878906 Z M 0 0 " clip-rule="nonzero"/></clipPath><clipPath id="fe284c53cf"><path d="M 0 0 L 319 0 L 319 318 L 0 318 Z M 0 0 " clip-rule="nonzero"/></clipPath><clipPath id="11f31e1836"><path d="M 0 0 L 286 0 L 286 278 L 0 278 Z M 0 0 " clip-rule="nonzero"/></clipPath><clipPath id="94a26681b7"><path d="M 0 0 L 258 0 L 258 245 L 0 245 Z M 0 0 " clip-rule="nonzero"/></clipPath><clipPath id="6c79fccc48"><path d="M 0 0 L 223 0 L 223 209 L 0 209 Z M 0 0 " clip-rule="nonzero"/></clipPath><clipPath id="7137896492"><path d="M 0 0 L 187 0 L 187 176 L 0 176 Z M 0 0 " clip-rule="nonzero"/></clipPath><clipPath id="ca486990d2"><path d="M 0 0 L 155 0 L 155 144 L 0 144 Z M 0 0 " clip-rule="nonzero"/></clipPath><clipPath id="fc4473581f"><path d="M 0 0 L 121 0 L 121 111 L 0 111 Z M 0 0 " clip-rule="nonzero"/></clipPath><clipPath id="abe8e4df6d"><path d="M 0 0 L 75 0 L 75 67 L 0 67 Z M 0 0 " clip-rule="nonzero"/></clipPath><clipPath id="5de00bcfdc"><rect x="0" width="339" y="0" height="339"/></clipPath><clipPath id="b4ac33d5e8"><path d="M 0 0 L 827.835938 0 L 827.835938 643.582031 L 0 643.582031 Z M 0 0 " clip-rule="nonzero"/></clipPath></defs><path fill="#e7ddd3" d="M 523.84375 -0.0507812 C 518.3125 7.78125 511.132812 17.191406 502.292969 28.746094 C 477.96875 60.574219 456.820312 88.246094 418.160156 104.925781 C 407.101562 109.703125 378.890625 121.511719 344.257812 117.429688 C 327.203125 115.425781 326.867188 111.738281 297.644531 104.925781 C 267.566406 97.917969 246.925781 93.101562 222.601562 96.964844 C 213.640625 98.394531 185.191406 102.902344 163.476562 124.25 C 154.222656 133.359375 145.726562 145.96875 130.507812 220.902344 C 118.070312 282.113281 120.957031 287.375 111.160156 314.125 C 104.054688 333.5625 93.34375 362 67.957031 389.171875 C 49.570312 408.855469 21.332031 430.171875 -2.917969 437.265625 L -2.917969 -0.0507812 Z M 523.84375 -0.0507812 " fill-opacity="1" fill-rule="nonzero"/><g mask="url(#35c7f2de29)"><g transform="matrix(1, 0, 0, 1, 0, 0.000000000000039746)"><g clip-path="url(#5de00bcfdc)"><g clip-path="url(#f13f7ed64f)"><path stroke-linecap="butt" transform="matrix(0.460672, 0, 0, 0.460672, -48.579711, -117.214325)" fill="none" stroke-linejoin="miter" d="M 98.246414 981.368647 C 136.785539 963.73138 174.510636 944.491496 211.413226 923.657474 C 248.324295 902.831931 284.285666 880.471607 319.305817 856.593461 C 354.317488 832.715315 388.260748 807.40414 421.135597 780.651458 C 454.001966 753.898776 485.689691 725.806341 516.181813 696.374151 C 548.92099 664.728823 580.159304 631.650468 609.879795 597.156043 C 639.608766 562.653139 667.692722 526.878316 694.148623 489.806137 C 720.604524 452.742438 745.313657 414.550971 768.284502 375.231736 C 791.246867 335.912501 812.37767 295.618129 831.659952 254.374058 " stroke="#231f20" stroke-width="1.59" stroke-opacity="1" stroke-miterlimit="10"/></g><g clip-path="url(#fe284c53cf)"><path stroke-linecap="butt" transform="matrix(0.460672, 0, 0, 0.460672, -48.579711, -117.214325)" fill="none" stroke-linejoin="miter" d="M 98.246414 920.163938 C 138.16769 898.660039 177.156226 875.587441 215.212022 850.954623 C 253.276297 826.321805 290.28912 800.205082 326.250491 772.595976 C 362.220341 744.995348 397.020026 715.987131 430.649546 685.588284 C 464.287546 655.189436 496.653627 623.493232 527.73931 590.491191 C 575.470165 539.75013 619.877073 486.261725 660.976993 430.017497 C 702.076914 373.773269 739.547627 315.205671 773.389134 254.323181 " stroke="#231f20" stroke-width="1.59" stroke-opacity="1" stroke-miterlimit="10"/></g><g clip-path="url(#11f31e1836)"><path stroke-linecap="butt" transform="matrix(0.460672, 0, 0, 0.460672, -48.579711, -117.214325)" fill="none" stroke-linejoin="miter" d="M 98.246414 835.233713 C 160.977425 801.349809 221.122202 763.370328 278.680746 721.29527 C 336.239289 679.220213 390.677393 633.431153 442.003537 583.936572 C 492.659803 535.06947 539.831014 483.039532 583.525648 427.863716 C 627.220281 372.67942 667.048283 314.832575 703.001174 254.323181 " stroke="#231f20" stroke-width="1.59" stroke-opacity="1" stroke-miterlimit="10"/></g><g clip-path="url(#94a26681b7)"><path stroke-linecap="butt" transform="matrix(0.460672, 0, 0, 0.460672, -48.579711, -117.214325)" fill="none" stroke-linejoin="miter" d="M 99.153716 762.759807 C 210.056513 696.772685 312.386581 619.440052 406.152399 530.761907 C 494.822064 446.900093 573.825151 354.745371 643.153178 254.297743 " stroke="#231f20" stroke-width="1.56" stroke-opacity="1" stroke-miterlimit="10"/></g><g clip-path="url(#6c79fccc48)"><path stroke-linecap="butt" transform="matrix(0.460672, 0, 0, 0.460672, -48.579711, -117.214325)" fill="none" stroke-linejoin="miter" d="M 99.153716 685.410215 C 149.894777 659.496999 198.515974 630.081768 245.008828 597.156043 C 291.510162 564.238797 335.408303 528.150235 376.70325 488.890356 C 413.359936 454.014356 447.659333 416.950656 479.592963 377.690778 C 511.518112 338.439379 540.83159 297.31402 567.507956 254.323181 " stroke="#231f20" stroke-width="1.55" stroke-opacity="1" stroke-miterlimit="10"/></g><g clip-path="url(#7137896492)"><path stroke-linecap="butt" transform="matrix(0.460672, 0, 0, 0.460672, -48.579711, -117.214325)" fill="none" stroke-linejoin="miter" d="M 99.654004 613.843611 C 176.876404 563.840263 249.053529 507.384048 316.168418 444.466489 C 378.670484 385.864973 435.87289 322.489523 487.784116 254.33166 " stroke="#231f20" stroke-width="1.57" stroke-opacity="1" stroke-miterlimit="10"/></g><g clip-path="url(#ca486990d2)"><path stroke-linecap="butt" transform="matrix(0.460672, 0, 0, 0.460672, -48.579711, -117.214325)" fill="none" stroke-linejoin="miter" d="M 100.239086 544.778447 C 160.409302 504.272088 217.297968 459.585358 270.913565 410.718257 C 324.156065 362.198813 373.59977 310.067121 419.253158 254.33166 " stroke="#231f20" stroke-width="1.56" stroke-opacity="1" stroke-miterlimit="10"/></g><g clip-path="url(#fc4473581f)"><path stroke-linecap="butt" transform="matrix(0.460672, 0, 0, 0.460672, -48.579711, -117.214325)" fill="none" stroke-linejoin="miter" d="M 99.162195 471.507473 C 137.438457 440.362433 176.393075 407.360392 216.01757 372.509831 C 261.221547 332.647911 303.907126 293.26084 344.082785 254.33166 " stroke="#231f20" stroke-width="1.57" stroke-opacity="1" stroke-miterlimit="10"/></g><g clip-path="url(#abe8e4df6d)"><path stroke-linecap="butt" transform="matrix(0.460672, 0, 0, 0.460672, -48.579711, -117.214325)" fill="none" stroke-linejoin="miter" d="M 99.153716 378.623518 C 128.967481 357.119619 160.27363 332.486801 192.147903 304.351968 C 211.260596 287.486331 229.033534 270.747886 245.517596 254.348619 " stroke="#231f20" stroke-width="1.49" stroke-opacity="1" stroke-miterlimit="10"/></g></g></g></g><g clip-path="url(#b4ac33d5e8)"><path stroke-linecap="butt" transform="matrix(0.460672, 0, 0, 0.460672, -48.579719, -117.214325)" fill="none" stroke-linejoin="miter" d="M 87.638631 1642.206526 C 165.539388 1609.865883 286.558176 1546.210611 383.80905 1422.546233 C 471.376386 1311.160107 501.809151 1199.222816 534.361781 1074.549383 C 602.621397 813.17017 553.737336 722.897887 653.362458 542.361802 C 708.071904 443.177612 759.270856 404.358665 800.9389 383.490725 C 879.339945 344.222367 959.241853 350.997452 1022.998879 356.339509 C 1116.366162 364.208444 1137.997253 386.568768 1247.602694 408.165941 C 1299.234098 418.341287 1383.341816 434.367458 1487.003159 427.906113 C 1561.376462 423.27633 1721.112443 411.159188 1847.337617 297.102034 C 1864.228692 281.839014 1879.864808 265.38887 1894.237485 247.743124 " stroke="#726658" stroke-width="19.33" stroke-opacity="1" stroke-miterlimit="10"/></g></svg>