<svg xmlns="http://www.w3.org/2000/svg" xmlns:xlink="http://www.w3.org/1999/xlink" width="1920" zoomAndPan="magnify" viewBox="0 0 1440 809.999993" height="1080" preserveAspectRatio="xMidYMid meet" version="1.0"><defs><clipPath id="e86c75fcbc"><path d="M 680 452 L 1053 452 L 1053 810 L 680 810 Z M 680 452 " clip-rule="nonzero"/></clipPath><clipPath id="ca697a2908"><path d="M 723.496094 452.125 L 1052.777344 496.445312 L 1009.554688 817.550781 L 680.277344 773.226562 Z M 723.496094 452.125 " clip-rule="nonzero"/></clipPath><clipPath id="fea54a24cf"><path d="M 85 13 L 342 13 L 342 279 L 85 279 Z M 85 13 " clip-rule="nonzero"/></clipPath><clipPath id="ec7363e582"><path d="M 43.496094 0.125 L 372.777344 44.445312 L 329.554688 365.550781 L 0.277344 321.226562 Z M 43.496094 0.125 " clip-rule="nonzero"/></clipPath><clipPath id="5e2128ced6"><path d="M 0.277344 321.226562 L 329.554688 365.550781 L 372.777344 44.445312 L 43.496094 0.125 Z M 0.277344 321.226562 " clip-rule="nonzero"/></clipPath><clipPath id="15c8ed00d2"><path d="M 75 26 L 327 26 L 327 319 L 75 319 Z M 75 26 " clip-rule="nonzero"/></clipPath><clipPath id="24d1d4fc8c"><path d="M 43.496094 0.125 L 372.777344 44.445312 L 329.554688 365.550781 L 0.277344 321.226562 Z M 43.496094 0.125 " clip-rule="nonzero"/></clipPath><clipPath id="e78b8eef17"><path d="M 0.277344 321.226562 L 329.554688 365.550781 L 372.777344 44.445312 L 43.496094 0.125 Z M 0.277344 321.226562 " clip-rule="nonzero"/></clipPath><clipPath id="db7dc66fbd"><path d="M 58 26 L 328 26 L 328 341 L 58 341 Z M 58 26 " clip-rule="nonzero"/></clipPath><clipPath id="c0863e6e26"><path d="M 43.496094 0.125 L 372.777344 44.445312 L 329.554688 365.550781 L 0.277344 321.226562 Z M 43.496094 0.125 " clip-rule="nonzero"/></clipPath><clipPath id="d3f71334c0"><path d="M 0.277344 321.226562 L 329.554688 365.550781 L 372.777344 44.445312 L 43.496094 0.125 Z M 0.277344 321.226562 " clip-rule="nonzero"/></clipPath><clipPath id="7a0f1030c1"><path d="M 40 26 L 328 26 L 328 358 L 40 358 Z M 40 26 " clip-rule="nonzero"/></clipPath><clipPath id="5d92de3944"><path d="M 43.496094 0.125 L 372.777344 44.445312 L 329.554688 365.550781 L 0.277344 321.226562 Z M 43.496094 0.125 " clip-rule="nonzero"/></clipPath><clipPath id="98fd00935f"><path d="M 0.277344 321.226562 L 329.554688 365.550781 L 372.777344 44.445312 L 43.496094 0.125 Z M 0.277344 321.226562 " clip-rule="nonzero"/></clipPath><clipPath id="034074ed11"><path d="M 94 8 L 342 8 L 342 262 L 94 262 Z M 94 8 " clip-rule="nonzero"/></clipPath><clipPath id="f8bf5df664"><path d="M 43.496094 0.125 L 372.777344 44.445312 L 329.554688 365.550781 L 0.277344 321.226562 Z M 43.496094 0.125 " clip-rule="nonzero"/></clipPath><clipPath id="70b407cb1e"><path d="M 0.277344 321.226562 L 329.554688 365.550781 L 372.777344 44.445312 L 43.496094 0.125 Z M 0.277344 321.226562 " clip-rule="nonzero"/></clipPath><clipPath id="5158dd90c0"><rect x="0" width="373" y="0" height="358"/></clipPath><clipPath id="bda5816d18"><path d="M 789 8 L 912 8 L 912 269 L 789 269 Z M 789 8 " clip-rule="nonzero"/></clipPath><clipPath id="4e3a614bae"><path d="M 693.367188 124.214844 L 952.335938 -28.710938 L 1089.242188 203.132812 L 830.273438 356.058594 Z M 693.367188 124.214844 " clip-rule="nonzero"/></clipPath><clipPath id="951bfdf63e"><path d="M 693.367188 124.214844 L 952.335938 -28.710938 L 1089.242188 203.132812 L 830.273438 356.058594 Z M 693.367188 124.214844 " clip-rule="nonzero"/></clipPath><clipPath id="f98205c04b"><path d="M 799 0 L 925 0 L 925 292 L 799 292 Z M 799 0 " clip-rule="nonzero"/></clipPath><clipPath id="76cb36a963"><path d="M 693.367188 124.214844 L 952.335938 -28.710938 L 1089.242188 203.132812 L 830.273438 356.058594 Z M 693.367188 124.214844 " clip-rule="nonzero"/></clipPath><clipPath id="c0a39f3e97"><path d="M 693.367188 124.214844 L 952.335938 -28.710938 L 1089.242188 203.132812 L 830.273438 356.058594 Z M 693.367188 124.214844 " clip-rule="nonzero"/></clipPath><clipPath id="8fff153c02"><path d="M 809 0 L 939 0 L 939 312 L 809 312 Z M 809 0 " clip-rule="nonzero"/></clipPath><clipPath id="290b2971dd"><path d="M 693.367188 124.214844 L 952.335938 -28.710938 L 1089.242188 203.132812 L 830.273438 356.058594 Z M 693.367188 124.214844 " clip-rule="nonzero"/></clipPath><clipPath id="07e57b95ba"><path d="M 693.367188 124.214844 L 952.335938 -28.710938 L 1089.242188 203.132812 L 830.273438 356.058594 Z M 693.367188 124.214844 " clip-rule="nonzero"/></clipPath><clipPath id="1d8ff38595"><path d="M 819 0 L 957 0 L 957 335 L 819 335 Z M 819 0 " clip-rule="nonzero"/></clipPath><clipPath id="0f0578e30d"><path d="M 693.367188 124.214844 L 952.335938 -28.710938 L 1089.242188 203.132812 L 830.273438 356.058594 Z M 693.367188 124.214844 " clip-rule="nonzero"/></clipPath><clipPath id="68f92a4bae"><path d="M 693.367188 124.214844 L 952.335938 -28.710938 L 1089.242188 203.132812 L 830.273438 356.058594 Z M 693.367188 124.214844 " clip-rule="nonzero"/></clipPath><clipPath id="3f1bdbf78e"><path d="M 830 0 L 969 0 L 969 356 L 830 356 Z M 830 0 " clip-rule="nonzero"/></clipPath><clipPath id="f16ce3206b"><path d="M 693.367188 124.214844 L 952.335938 -28.710938 L 1089.242188 203.132812 L 830.273438 356.058594 Z M 693.367188 124.214844 " clip-rule="nonzero"/></clipPath><clipPath id="b256bf2678"><path d="M 693.367188 124.214844 L 952.335938 -28.710938 L 1089.242188 203.132812 L 830.273438 356.058594 Z M 693.367188 124.214844 " clip-rule="nonzero"/></clipPath></defs><path fill="#8b6d53" d="M 782.074219 430.910156 C 780.085938 423.078125 777.75 416.648438 772.257812 410.921875 C 766.761719 405.078125 757.996094 400.050781 749.582031 397.011719 C 741.28125 393.972656 733.21875 393.039062 723.75 395.726562 C 714.164062 398.53125 703.0625 404.960938 695.929688 413.027344 C 688.800781 421.207031 685.761719 430.792969 686.464844 442.246094 C 687.046875 453.585938 691.488281 466.675781 699.320312 476.960938 C 707.269531 487.128906 718.722656 494.609375 729.828125 497.765625 C 741.046875 500.804688 751.917969 499.519531 761.503906 492.039062 C 770.96875 484.675781 779.269531 471 782.542969 459.546875 C 785.8125 448.089844 784.0625 438.738281 782.074219 430.910156 Z M 782.074219 430.910156 " fill-opacity="1" fill-rule="evenodd"/><path fill="#8b6d53" d="M 893.699219 191.882812 C 880.722656 183.816406 869.386719 178.089844 854.425781 177.507812 C 839.347656 176.804688 820.878906 181.128906 805.566406 187.910156 C 790.257812 194.570312 778.21875 203.6875 768.75 219.816406 C 759.28125 235.949219 752.621094 259.207031 753.4375 279.429688 C 754.257812 299.648438 762.671875 316.714844 778.332031 331.441406 C 793.996094 346.050781 816.90625 358.089844 840.867188 361.832031 C 864.945312 365.570312 890.191406 360.777344 909.359375 350.609375 C 928.527344 340.324219 941.621094 324.546875 945.007812 301.988281 C 948.398438 279.429688 941.96875 250.089844 931.566406 230.335938 C 921.164062 210.46875 906.671875 199.949219 893.699219 191.882812 Z M 893.699219 191.882812 " fill-opacity="1" fill-rule="evenodd"/><path fill="#aa8b56" d="M 764.542969 271.363281 C 756.710938 266.453125 749.464844 262.363281 741.867188 259.324219 C 734.269531 256.285156 726.320312 254.414062 717.4375 253.949219 C 708.789062 253.597656 698.96875 254.648438 689.269531 256.753906 C 678.867188 258.972656 668.464844 262.363281 658.996094 266.453125 C 649.761719 270.546875 641.582031 275.21875 634.332031 281.414062 C 626.96875 287.492188 620.542969 295.089844 614.929688 304.675781 C 609.085938 314.726562 604.0625 327 600.789062 339.855469 C 597.632812 351.894531 596.113281 364.402344 596.582031 376.089844 C 597.046875 388.128906 599.851562 399.351562 604.761719 409.636719 C 609.789062 420.039062 616.917969 429.507812 626.386719 438.273438 C 636.085938 447.390625 648.007812 455.570312 661.332031 462 C 673.722656 467.960938 687.164062 472.285156 700.839844 474.15625 C 714.632812 476.140625 728.660156 475.441406 741.984375 472.871094 C 756.007812 470.179688 769.101562 465.273438 780.203125 458.726562 C 791.074219 452.53125 799.957031 444.699219 806.621094 435.234375 C 813.398438 425.765625 817.957031 414.660156 820.179688 401.453125 C 822.398438 388.246094 822.28125 373.167969 820.292969 358.324219 C 818.191406 343.363281 814.101562 328.753906 808.488281 316.949219 C 802.996094 305.257812 795.867188 296.257812 788.152344 289.011719 C 780.554688 281.648438 772.257812 276.15625 764.542969 271.363281 Z M 742.332031 258.273438 C 749.929688 261.3125 757.292969 265.402344 765.125 270.3125 C 772.957031 275.21875 781.257812 280.832031 788.96875 288.078125 C 796.800781 295.441406 803.929688 304.558594 809.542969 316.480469 C 815.269531 328.402344 819.359375 343.128906 821.347656 358.207031 C 823.449219 373.050781 823.566406 388.363281 821.347656 401.570312 C 819.007812 415.011719 814.449219 426.351562 807.554688 435.933594 C 800.777344 445.519531 791.777344 453.351562 780.789062 459.777344 C 769.566406 466.324219 756.359375 471.234375 742.101562 474.039062 C 728.777344 476.609375 714.632812 477.3125 700.722656 475.324219 C 686.929688 473.453125 673.371094 469.128906 660.867188 463.050781 C 647.425781 456.621094 635.386719 448.324219 625.566406 439.089844 C 616.101562 430.207031 608.738281 420.621094 603.710938 410.101562 C 598.683594 399.699219 595.878906 388.363281 595.410156 376.089844 C 594.945312 364.285156 596.582031 351.660156 599.621094 339.507812 C 603.007812 326.648438 608.035156 314.257812 613.878906 304.089844 C 619.605469 294.390625 626.152344 286.675781 633.515625 280.480469 C 640.996094 274.285156 649.292969 269.492188 658.527344 265.402344 C 667.996094 261.195312 678.515625 257.804688 689.035156 255.585938 C 698.851562 253.480469 708.671875 252.429688 717.4375 252.777344 C 726.554688 253.246094 734.621094 255.117188 742.332031 258.273438 Z M 742.332031 258.273438 " fill-opacity="1" fill-rule="nonzero"/><path fill="#aa8b56" d="M 782.425781 292.285156 C 776.8125 285.972656 771.320312 280.363281 765.125 275.6875 C 759.046875 271.011719 752.269531 267.390625 744.203125 264.816406 C 736.371094 262.363281 727.140625 260.960938 717.671875 260.375 C 707.738281 259.910156 697.332031 260.492188 687.632812 261.894531 C 678.28125 263.414062 669.632812 265.636719 661.449219 269.492188 C 653.152344 273.351562 645.4375 278.609375 637.957031 286.089844 C 630.125 293.804688 622.644531 303.855469 616.449219 314.84375 C 610.605469 325.011719 606.046875 336.117188 603.710938 346.871094 C 601.140625 358.089844 600.90625 368.960938 603.007812 379.597656 C 604.996094 390.351562 609.203125 400.753906 615.632812 411.039062 C 622.292969 421.675781 631.179688 432.195312 641.582031 441.195312 C 651.28125 449.726562 662.269531 456.855469 673.722656 461.648438 C 685.179688 466.324219 697.101562 468.777344 709.257812 469.246094 C 722.230469 469.714844 735.4375 467.84375 748.527344 464.21875 C 761.96875 460.480469 775.292969 454.753906 786.398438 446.804688 C 796.101562 439.910156 804.164062 431.375 809.425781 421.089844 C 814.683594 410.804688 817.023438 398.765625 817.488281 386.375 C 817.957031 371.882812 815.738281 357.039062 812.113281 344.414062 C 808.722656 332.726562 804.164062 322.910156 799.023438 314.375 C 793.761719 305.84375 788.035156 298.714844 782.425781 292.285156 Z M 765.828125 274.753906 C 772.023438 279.429688 777.632812 285.15625 783.359375 291.585938 C 788.96875 298.011719 794.699219 305.257812 799.957031 313.792969 C 805.21875 322.324219 809.777344 332.257812 813.28125 344.066406 C 816.90625 356.804688 819.125 371.765625 818.660156 386.492188 C 818.191406 398.882812 815.738281 411.15625 810.476562 421.558594 C 805.101562 432.078125 796.917969 440.84375 787.101562 447.738281 C 775.761719 455.804688 762.4375 461.53125 748.761719 465.273438 C 735.671875 469.011719 722.347656 470.882812 709.257812 470.414062 C 696.984375 469.949219 684.828125 467.492188 673.257812 462.699219 C 661.683594 457.910156 650.582031 450.660156 640.878906 442.128906 C 630.359375 433.011719 621.359375 422.492188 614.699219 411.738281 C 608.152344 401.21875 603.828125 390.699219 601.839844 379.832031 C 599.738281 368.960938 599.96875 357.972656 602.542969 346.636719 C 604.996094 335.765625 609.554688 324.546875 615.398438 314.257812 C 621.59375 303.15625 629.308594 293.105469 637.140625 285.273438 C 644.738281 277.675781 652.566406 272.296875 660.867188 268.441406 C 669.164062 264.585938 677.929688 262.246094 687.515625 260.84375 C 697.21875 259.324219 707.621094 258.738281 717.789062 259.207031 C 727.371094 259.792969 736.605469 261.195312 744.554688 263.765625 C 752.738281 266.335938 759.632812 270.078125 765.828125 274.753906 Z M 765.828125 274.753906 " fill-opacity="1" fill-rule="nonzero"/><path fill="#aa8b56" d="M 750.046875 276.855469 C 742.683594 273.234375 735.789062 270.195312 728.777344 268.207031 C 721.761719 266.21875 714.515625 265.285156 706.566406 265.753906 C 698.851562 266.21875 690.320312 267.972656 681.789062 270.777344 C 672.789062 273.699219 663.789062 277.675781 655.722656 282.234375 C 647.890625 286.675781 641.113281 291.585938 635.152344 297.429688 C 629.191406 303.273438 624.164062 310.050781 619.957031 318 C 615.632812 326.296875 612.359375 335.882812 610.488281 346.285156 C 608.96875 355.753906 608.621094 365.804688 610.140625 375.972656 C 611.777344 386.960938 615.398438 398.179688 621.125 408.699219 C 626.503906 418.519531 633.632812 427.871094 642.515625 435.699219 C 651.75 443.882812 662.738281 450.546875 674.777344 455.335938 C 686.699219 460.011719 699.671875 462.933594 712.644531 463.636719 C 725.503906 464.21875 738.476562 462.699219 750.515625 459.195312 C 762.671875 455.804688 773.890625 450.429688 782.890625 443.53125 C 791.777344 436.871094 798.554688 428.804688 803.230469 419.335938 C 808.023438 409.753906 810.59375 398.765625 811.179688 386.609375 C 811.761719 374.335938 810.242188 360.894531 807.085938 347.921875 C 803.929688 335.066406 799.140625 322.792969 793.179688 312.972656 C 787.332031 303.273438 780.203125 296.027344 772.722656 290.296875 C 765.242188 284.570312 757.410156 280.363281 750.046875 276.855469 Z M 729.125 267.15625 C 736.257812 269.140625 743.152344 272.179688 750.632812 275.804688 C 757.996094 279.429688 765.828125 283.636719 773.425781 289.363281 C 781.023438 295.207031 788.152344 302.570312 794.230469 312.390625 C 800.191406 322.324219 804.984375 334.714844 808.140625 347.6875 C 811.410156 360.660156 812.929688 374.335938 812.347656 386.609375 C 811.761719 399 809.074219 410.101562 804.28125 419.804688 C 799.488281 429.390625 792.59375 437.6875 783.59375 444.46875 C 774.476562 451.363281 763.140625 456.855469 750.867188 460.363281 C 738.710938 463.753906 725.621094 465.390625 712.527344 464.804688 C 699.4375 464.101562 686.464844 461.179688 674.308594 456.390625 C 662.152344 451.597656 651.046875 444.816406 641.699219 436.519531 C 632.699219 428.570312 625.449219 419.21875 620.074219 409.167969 C 614.347656 398.648438 610.605469 387.3125 608.96875 376.207031 C 607.449219 365.804688 607.800781 355.636719 609.4375 346.050781 C 611.191406 335.648438 614.582031 325.832031 618.90625 317.414062 C 623.113281 309.351562 628.257812 302.570312 634.332031 296.609375 C 640.292969 290.765625 647.308594 285.738281 655.140625 281.179688 C 663.203125 276.621094 672.320312 272.648438 681.4375 269.609375 C 689.96875 266.921875 698.621094 265.050781 706.566406 264.585938 C 714.632812 264.117188 721.996094 265.050781 729.125 267.15625 Z M 729.125 267.15625 " fill-opacity="1" fill-rule="nonzero"/><path fill="#aa8b56" d="M 769.917969 295.675781 C 764.191406 290.414062 758.8125 285.855469 752.96875 282.234375 C 747.125 278.609375 740.929688 275.804688 733.566406 274.050781 C 726.4375 272.414062 718.257812 271.714844 709.839844 271.949219 C 700.957031 272.179688 691.722656 273.46875 683.308594 275.335938 C 675.125 277.324219 667.644531 279.894531 660.632812 283.871094 C 653.621094 287.84375 647.074219 293.105469 640.996094 300.234375 C 634.566406 307.597656 628.605469 316.949219 623.8125 327.117188 C 619.488281 336.585938 616.21875 346.636719 614.8125 356.453125 C 613.292969 366.507812 613.878906 376.089844 616.449219 385.441406 C 618.90625 394.792969 623.464844 403.675781 629.777344 412.441406 C 636.4375 421.441406 645.203125 430.207031 655.371094 437.570312 C 664.722656 444.234375 675.359375 449.84375 686.582031 453.234375 C 698.035156 456.738281 710.191406 458.027344 721.996094 457.675781 C 734.621094 457.207031 747.007812 454.753906 757.878906 450.660156 C 768.75 446.6875 778.101562 441.195312 785.582031 433.949219 C 792.710938 427.050781 798.203125 418.636719 801.59375 408.46875 C 805.101562 398.414062 806.503906 386.726562 806.386719 375.039062 C 806.152344 362.53125 804.046875 350.027344 800.542969 339.507812 C 797.152344 329.335938 792.242188 320.921875 786.867188 313.792969 C 781.488281 306.777344 775.527344 300.816406 769.917969 295.675781 Z M 753.554688 281.296875 C 759.515625 284.921875 764.890625 289.597656 770.621094 294.855469 C 776.347656 300.117188 782.425781 305.960938 787.800781 313.089844 C 793.292969 320.335938 798.203125 328.753906 801.59375 339.15625 C 805.21875 349.792969 807.320312 362.414062 807.554688 375.039062 C 807.671875 386.84375 806.269531 398.648438 802.761719 408.816406 C 799.257812 419.101562 793.644531 427.753906 786.398438 434.765625 C 778.800781 442.128906 769.332031 447.738281 758.347656 451.832031 C 747.359375 455.921875 734.851562 458.375 722.113281 458.84375 C 710.074219 459.195312 697.800781 457.910156 686.230469 454.402344 C 674.890625 450.894531 664.140625 445.285156 654.789062 438.507812 C 644.503906 431.140625 635.621094 422.257812 628.839844 413.140625 C 622.410156 404.257812 617.851562 395.140625 615.28125 385.675781 C 612.710938 376.207031 612.125 366.507812 613.644531 356.21875 C 615.046875 346.402344 618.320312 336.117188 622.761719 326.53125 C 627.554688 316.363281 633.632812 306.894531 640.0625 299.414062 C 646.371094 292.167969 652.917969 286.910156 660.046875 282.933594 C 667.179688 278.84375 674.777344 276.15625 683.074219 274.285156 C 691.605469 272.296875 700.839844 271.011719 709.839844 270.777344 C 718.371094 270.546875 726.671875 271.246094 733.917969 272.882812 C 741.398438 274.636719 747.710938 277.558594 753.554688 281.296875 Z M 753.554688 281.296875 " fill-opacity="1" fill-rule="nonzero"/><path fill="#aa8b56" d="M 753.320312 291.117188 C 747.242188 287.375 741.515625 284.105469 735.4375 281.648438 C 729.476562 279.3125 723.28125 277.792969 716.269531 277.441406 C 709.371094 277.207031 701.777344 278.027344 694.0625 279.660156 C 685.878906 281.414062 677.582031 284.105469 670.101562 287.375 C 662.851562 290.53125 656.425781 294.273438 650.699219 299.066406 C 644.851562 303.972656 639.828125 309.816406 635.386719 317.53125 C 630.828125 325.363281 626.851562 335.066406 624.28125 345.234375 C 621.828125 354.699219 620.542969 364.519531 620.890625 373.753906 C 621.359375 383.335938 623.464844 392.101562 627.4375 400.167969 C 631.292969 408.351562 637.023438 415.832031 644.386719 422.726562 C 651.984375 429.855469 661.449219 436.402344 671.96875 441.546875 C 681.789062 446.335938 692.542969 449.84375 703.527344 451.597656 C 714.867188 453.351562 726.4375 453.117188 737.308594 451.128906 C 748.292969 449.140625 758.582031 445.402344 767.113281 440.140625 C 775.527344 435 782.308594 428.335938 787.332031 420.390625 C 792.476562 412.324219 795.75 402.855469 797.386719 392.21875 C 799.023438 381.585938 798.789062 369.777344 797.152344 358.324219 C 795.515625 346.753906 792.359375 335.648438 788.035156 326.648438 C 783.59375 317.648438 778.101562 310.636719 772.023438 305.027344 C 765.945312 299.296875 759.515625 294.972656 753.320312 291.117188 Z M 735.90625 280.597656 C 741.984375 283.050781 747.828125 286.324219 754.023438 290.179688 C 760.21875 294.039062 766.761719 298.480469 772.839844 304.207031 C 778.917969 309.933594 784.644531 316.949219 789.085938 326.066406 C 793.527344 335.296875 796.683594 346.519531 798.320312 358.089844 C 799.957031 369.660156 800.191406 381.585938 798.554688 392.335938 C 796.917969 403.207031 793.527344 412.792969 788.386719 420.972656 C 783.242188 429.15625 776.347656 435.933594 767.699219 441.195312 C 759.046875 446.453125 748.644531 450.3125 737.542969 452.296875 C 726.554688 454.285156 714.867188 454.519531 703.410156 452.765625 C 692.308594 451.011719 681.4375 447.390625 671.503906 442.597656 C 660.867188 437.453125 651.28125 430.792969 643.566406 423.660156 C 636.085938 416.648438 630.359375 409.050781 626.386719 400.753906 C 622.410156 392.453125 620.191406 383.453125 619.722656 373.871094 C 619.371094 364.519531 620.660156 354.46875 623.113281 344.882812 C 625.800781 334.597656 629.777344 324.894531 634.332031 316.949219 C 638.890625 309.117188 644.035156 303.15625 649.878906 298.246094 C 655.839844 293.335938 662.386719 289.480469 669.632812 286.324219 C 677.230469 282.933594 685.527344 280.246094 693.710938 278.492188 C 701.542969 276.855469 709.371094 276.039062 716.269531 276.273438 C 723.515625 276.621094 729.828125 278.140625 735.90625 280.597656 Z M 735.90625 280.597656 " fill-opacity="1" fill-rule="nonzero"/><path fill="#aa8b56" d="M 767.8125 309.234375 C 763.257812 304.207031 758.929688 299.765625 754.140625 296.140625 C 749.347656 292.519531 744.203125 289.597656 737.890625 287.492188 C 731.8125 285.507812 724.800781 284.335938 717.4375 283.871094 C 709.605469 283.402344 701.542969 283.636719 694.0625 284.804688 C 686.699219 285.738281 679.917969 287.492188 673.605469 290.414062 C 667.179688 293.21875 661.101562 297.3125 655.257812 303.039062 C 649.0625 309 643.101562 316.597656 638.191406 325.128906 C 633.632812 332.960938 630.007812 341.609375 628.023438 349.910156 C 625.917969 358.558594 625.683594 366.972656 627.085938 375.273438 C 628.605469 383.6875 631.761719 391.753906 636.671875 399.816406 C 641.8125 408.234375 648.710938 416.53125 656.777344 423.660156 C 664.371094 430.324219 673.023438 436.050781 682.371094 439.910156 C 691.605469 443.882812 701.425781 446.101562 711.359375 446.804688 C 722.113281 447.621094 732.75 446.804688 742.566406 444.585938 C 751.917969 442.597656 760.449219 439.324219 767.582031 434.414062 C 774.828125 429.507812 780.671875 422.84375 784.878906 414.078125 C 788.96875 405.660156 791.425781 395.027344 792.476562 384.273438 C 793.527344 372.699219 792.945312 360.777344 790.722656 350.726562 C 788.738281 341.140625 785.230469 333.195312 781.140625 326.53125 C 777.046875 319.753906 772.371094 314.140625 767.8125 309.234375 Z M 754.839844 295.207031 C 759.632812 298.949219 764.074219 303.390625 768.632812 308.414062 C 773.191406 313.441406 777.984375 319.050781 782.191406 325.832031 C 786.28125 332.726562 789.789062 340.675781 791.890625 350.492188 C 794.113281 360.660156 794.699219 372.699219 793.644531 384.390625 C 792.59375 395.257812 790.023438 406.011719 785.929688 414.660156 C 781.605469 423.546875 775.644531 430.324219 768.28125 435.351562 C 760.917969 440.375 752.386719 443.648438 742.800781 445.753906 C 732.984375 447.972656 722.113281 448.792969 711.242188 447.972656 C 701.308594 447.15625 691.257812 444.933594 681.90625 441.078125 C 672.4375 436.988281 663.671875 431.257812 656.074219 424.597656 C 647.777344 417.351562 640.878906 408.933594 635.738281 400.519531 C 630.710938 392.21875 627.4375 383.921875 626.035156 375.507812 C 624.515625 367.089844 624.75 358.441406 626.851562 349.675781 C 628.839844 341.140625 632.582031 332.492188 637.257812 324.546875 C 642.164062 316.011719 648.242188 308.179688 654.4375 302.21875 C 660.398438 296.375 666.59375 292.285156 673.140625 289.363281 C 679.566406 286.324219 686.464844 284.6875 693.828125 283.636719 C 701.425781 282.585938 709.605469 282.234375 717.4375 282.699219 C 724.917969 283.167969 732.046875 284.335938 738.242188 286.441406 C 744.671875 288.546875 749.929688 291.46875 754.839844 295.207031 Z M 754.839844 295.207031 " fill-opacity="1" fill-rule="nonzero"/><path fill="#aa8b56" d="M 734.738281 295.324219 C 728.890625 293.105469 723.398438 291.234375 717.90625 290.296875 C 712.410156 289.246094 706.917969 289.011719 700.839844 289.949219 C 694.996094 290.765625 688.566406 292.753906 682.371094 295.441406 C 675.710938 298.363281 669.164062 301.988281 663.320312 306.078125 C 657.710938 309.933594 652.917969 314.257812 648.828125 319.285156 C 644.738281 324.3125 641.347656 330.273438 638.890625 337.519531 C 636.320312 345 634.566406 353.765625 634.101562 362.882812 C 633.632812 371.296875 634.21875 379.949219 636.085938 387.660156 C 637.957031 395.726562 641.347656 402.855469 646.023438 409.050781 C 650.699219 415.363281 656.777344 420.738281 664.257812 425.414062 C 671.851562 430.207031 681.085938 434.066406 690.789062 436.753906 C 700.023438 439.089844 709.722656 440.375 719.308594 439.910156 C 729.242188 439.441406 739.0625 437.335938 747.945312 433.832031 C 756.945312 430.324219 764.890625 425.296875 770.96875 419.335938 C 776.929688 413.609375 781.257812 406.714844 783.945312 399.117188 C 786.75 391.167969 787.800781 382.402344 787.332031 372.933594 C 786.984375 363.46875 784.996094 353.414062 781.839844 343.949219 C 778.800781 334.714844 774.59375 326.179688 769.683594 319.402344 C 764.660156 312.621094 758.8125 307.714844 752.851562 303.972656 C 746.777344 300.117188 740.582031 297.546875 734.738281 295.324219 Z M 718.140625 289.128906 C 723.75 290.179688 729.242188 291.933594 735.085938 294.15625 C 741.046875 296.492188 747.359375 299.066406 753.4375 302.921875 C 759.515625 306.777344 765.476562 311.804688 770.621094 318.699219 C 775.644531 325.597656 779.851562 334.246094 783.007812 343.597656 C 786.164062 353.179688 788.152344 363.351562 788.503906 372.816406 C 788.96875 382.519531 787.917969 391.402344 784.996094 399.585938 C 782.308594 407.296875 777.867188 414.3125 771.789062 420.273438 C 765.59375 426.234375 757.410156 431.257812 748.410156 434.882812 C 739.410156 438.507812 729.476562 440.609375 719.425781 441.078125 C 709.605469 441.546875 699.789062 440.257812 690.554688 437.804688 C 680.621094 435.234375 671.386719 431.257812 663.554688 426.351562 C 656.074219 421.675781 649.878906 416.179688 645.085938 409.753906 C 640.292969 403.441406 636.90625 396.195312 634.917969 388.011719 C 633.046875 380.066406 632.464844 371.414062 632.929688 362.765625 C 633.398438 353.648438 635.152344 344.648438 637.839844 337.050781 C 640.292969 329.804688 643.683594 323.726562 647.890625 318.585938 C 652.101562 313.441406 657.007812 309.117188 662.738281 305.140625 C 668.582031 301.050781 675.125 297.3125 681.90625 294.390625 C 688.21875 291.699219 694.761719 289.714844 700.722656 288.777344 C 706.917969 287.84375 712.527344 288.078125 718.140625 289.128906 Z M 718.140625 289.128906 " fill-opacity="1" fill-rule="nonzero"/><path fill="#aa8b56" d="M 750.28125 309.351562 C 745.722656 305.84375 741.28125 302.804688 736.722656 300.46875 C 732.164062 298.128906 727.371094 296.492188 721.761719 295.792969 C 716.269531 294.972656 710.191406 295.089844 703.878906 295.792969 C 697.21875 296.609375 690.554688 298.128906 684.359375 300.234375 C 678.398438 302.21875 672.90625 304.675781 667.996094 308.066406 C 663.085938 311.570312 658.644531 315.894531 654.554688 321.621094 C 650.230469 327.585938 646.488281 334.949219 643.566406 342.894531 C 640.996094 350.257812 639.242188 357.972656 638.890625 365.335938 C 638.542969 372.933594 639.59375 380.066406 642.046875 386.84375 C 644.621094 393.621094 648.59375 399.933594 653.96875 406.011719 C 659.464844 412.207031 666.59375 418.167969 674.542969 422.960938 C 682.023438 427.519531 690.320312 431.140625 698.851562 433.246094 C 707.621094 435.46875 716.738281 436.167969 725.503906 435.46875 C 734.738281 434.882812 743.503906 432.777344 751.21875 429.507812 C 758.929688 426.234375 765.59375 421.792969 770.851562 415.949219 C 775.644531 410.453125 779.269531 403.675781 781.257812 395.609375 C 783.242188 387.546875 783.59375 378.078125 782.660156 368.726562 C 781.722656 358.675781 779.386719 348.855469 776.113281 340.792969 C 772.839844 332.960938 768.75 326.882812 764.191406 321.855469 C 759.75 316.714844 754.839844 312.855469 750.28125 309.351562 Z M 737.308594 299.414062 C 741.984375 301.871094 746.308594 304.910156 750.984375 308.414062 C 755.660156 311.921875 760.566406 315.894531 765.125 321.039062 C 769.683594 326.179688 773.890625 332.375 777.164062 340.324219 C 780.554688 348.507812 782.890625 358.558594 783.828125 368.609375 C 784.761719 378.078125 784.410156 387.660156 782.308594 395.84375 C 780.320312 404.140625 776.699219 411.039062 771.671875 416.648438 C 766.410156 422.726562 759.515625 427.285156 751.683594 430.558594 C 743.851562 433.949219 734.851562 436.050781 725.621094 436.636719 C 716.738281 437.335938 707.503906 436.636719 698.621094 434.414062 C 689.851562 432.195312 681.4375 428.570312 673.957031 424.011719 C 665.890625 419.101562 658.644531 413.140625 653.035156 406.832031 C 647.660156 400.636719 643.566406 394.207031 640.996094 387.195312 C 638.425781 380.296875 637.371094 373.050781 637.722656 365.21875 C 638.074219 357.855469 639.828125 349.910156 642.515625 342.429688 C 645.320312 334.480469 649.292969 327 653.621094 320.921875 C 657.710938 315.078125 662.269531 310.636719 667.292969 307.128906 C 672.4375 303.621094 677.929688 301.167969 684.007812 299.066406 C 690.203125 296.960938 697.101562 295.441406 703.761719 294.621094 C 710.074219 293.921875 716.386719 293.804688 721.878906 294.621094 C 727.605469 295.324219 732.515625 297.078125 737.308594 299.414062 Z M 737.308594 299.414062 " fill-opacity="1" fill-rule="nonzero"/><path fill="#aa8b56" d="M 736.257812 308.066406 C 731.582031 305.726562 727.023438 303.855469 722.582031 302.570312 C 718.023438 301.285156 713.347656 300.699219 708.203125 301.050781 C 703.179688 301.285156 697.683594 302.453125 692.191406 304.324219 C 686.347656 306.195312 680.621094 308.765625 675.476562 311.804688 C 670.449219 314.609375 666.007812 317.882812 662.152344 321.855469 C 658.410156 325.832031 655.140625 330.507812 652.449219 336.351562 C 649.761719 342.429688 647.660156 349.792969 646.605469 357.390625 C 645.554688 364.519531 645.320312 371.765625 646.371094 378.429688 C 647.425781 385.324219 649.644531 391.636719 653.152344 397.246094 C 656.660156 402.855469 661.332031 407.882812 667.179688 412.324219 C 673.371094 416.882812 680.738281 420.855469 688.800781 423.777344 C 696.28125 426.46875 704.347656 428.21875 712.527344 428.6875 C 720.828125 429.039062 729.125 427.988281 736.839844 425.882812 C 744.90625 423.660156 752.503906 420.15625 758.8125 415.832031 C 765.242188 411.507812 770.386719 406.246094 774.007812 400.050781 C 777.398438 394.207031 779.386719 387.546875 779.621094 379.949219 C 779.96875 372.351562 778.566406 363.816406 776.113281 355.519531 C 773.542969 346.753906 769.566406 338.335938 765.125 331.675781 C 760.800781 325.246094 756.007812 320.453125 751.101562 316.714844 C 746.074219 313.089844 741.046875 310.402344 736.257812 308.066406 Z M 722.8125 301.402344 C 727.488281 302.6875 731.929688 304.675781 736.839844 307.011719 C 741.632812 309.351562 746.777344 312.039062 751.800781 315.777344 C 756.828125 319.636719 761.738281 324.429688 766.0625 330.972656 C 770.621094 337.753906 774.59375 346.285156 777.28125 355.167969 C 779.738281 363.585938 781.140625 372.234375 780.789062 380.066406 C 780.554688 387.777344 778.449219 394.675781 774.945312 400.636719 C 771.320312 407.066406 765.945312 412.324219 759.398438 416.765625 C 752.96875 421.207031 745.371094 424.714844 737.191406 426.933594 C 729.242188 429.15625 720.828125 430.207031 712.527344 429.738281 C 704.230469 429.390625 696.046875 427.636719 688.332031 424.832031 C 680.269531 421.910156 672.671875 417.933594 666.476562 413.257812 C 660.515625 408.699219 655.722656 403.558594 652.101562 397.832031 C 648.59375 392.101562 646.257812 385.675781 645.203125 378.660156 C 644.152344 371.882812 644.386719 364.402344 645.4375 357.273438 C 646.488281 349.558594 648.710938 342.078125 651.398438 335.882812 C 654.085938 329.921875 657.476562 325.011719 661.332031 321.039062 C 665.308594 316.949219 669.75 313.675781 674.890625 310.753906 C 680.035156 307.714844 685.996094 305.140625 691.839844 303.15625 C 697.449219 301.402344 703.0625 300.117188 708.203125 299.882812 C 713.464844 299.53125 718.140625 300.117188 722.8125 301.402344 Z M 722.8125 301.402344 " fill-opacity="1" fill-rule="nonzero"/><path fill="#aa8b56" d="M 734.851562 313.675781 C 730.644531 311.453125 726.554688 309.699219 722.464844 308.414062 C 718.371094 307.246094 714.164062 306.660156 709.488281 306.777344 C 704.929688 307.011719 699.90625 308.066406 694.878906 309.585938 C 689.621094 311.21875 684.359375 313.558594 679.566406 316.128906 C 675.007812 318.699219 670.917969 321.507812 667.410156 325.011719 C 663.90625 328.636719 660.867188 332.84375 658.410156 338.101562 C 655.839844 343.597656 653.738281 350.257812 652.683594 357.15625 C 651.632812 363.585938 651.398438 370.128906 652.101562 376.207031 C 652.917969 382.519531 654.90625 388.246094 658.0625 393.390625 C 661.101562 398.53125 665.308594 403.089844 670.566406 407.296875 C 676.0625 411.507812 682.722656 415.246094 689.96875 418.050781 C 696.75 420.621094 704.113281 422.375 711.476562 422.84375 C 718.957031 423.3125 726.554688 422.492188 733.683594 420.621094 C 741.046875 418.753906 747.945312 415.714844 753.671875 411.855469 C 759.632812 408 764.425781 403.324219 767.699219 397.832031 C 770.851562 392.570312 772.839844 386.492188 773.191406 379.597656 C 773.660156 372.699219 772.488281 364.988281 770.386719 357.390625 C 768.046875 349.324219 764.660156 341.609375 760.683594 335.53125 C 756.945312 329.570312 752.621094 325.246094 748.179688 321.738281 C 743.738281 318.351562 739.179688 315.777344 734.851562 313.675781 Z M 722.8125 307.363281 C 727.023438 308.53125 731.113281 310.402344 735.4375 312.621094 C 739.761719 314.84375 744.4375 317.414062 748.878906 320.921875 C 753.4375 324.429688 757.878906 328.871094 761.738281 334.949219 C 765.710938 341.140625 769.21875 348.972656 771.4375 357.039062 C 773.660156 364.753906 774.828125 372.699219 774.359375 379.714844 C 774.007812 386.84375 772.023438 393.039062 768.75 398.414062 C 765.242188 404.140625 760.332031 408.933594 754.371094 412.910156 C 748.410156 416.765625 741.398438 419.804688 733.917969 421.792969 C 726.671875 423.660156 719.074219 424.480469 711.476562 424.011719 C 703.878906 423.546875 696.515625 421.792969 689.621094 419.101562 C 682.257812 416.296875 675.476562 412.558594 669.867188 408.234375 C 664.488281 404.027344 660.164062 399.234375 657.007812 393.972656 C 653.851562 388.714844 651.867188 382.871094 651.046875 376.441406 C 650.230469 370.246094 650.464844 363.46875 651.515625 356.921875 C 652.683594 350.027344 654.671875 343.246094 657.359375 337.636719 C 659.8125 332.140625 662.96875 327.816406 666.59375 324.195312 C 670.21875 320.570312 674.308594 317.648438 678.984375 315.078125 C 683.777344 312.507812 689.152344 310.167969 694.527344 308.53125 C 699.671875 306.894531 704.8125 305.84375 709.488281 305.726562 C 714.28125 305.492188 718.605469 306.078125 722.8125 307.363281 Z M 722.8125 307.363281 " fill-opacity="1" fill-rule="nonzero"/><g clip-path="url(#e86c75fcbc)"><g clip-path="url(#ca697a2908)"><g transform="matrix(1, 0, 0, 1, 680, 452)"><g clip-path="url(#5158dd90c0)"><g clip-path="url(#fea54a24cf)"><g clip-path="url(#ec7363e582)"><g clip-path="url(#5e2128ced6)"><path fill="#aa8b56" d="M 340.03125 277.578125 C 323.023438 280.183594 305.058594 276.640625 291.132812 266.269531 C 279.03125 257.261719 270.539062 243.625 267.582031 228.847656 C 263.964844 210.796875 268.835938 192.164062 275.867188 175.5625 C 283.355469 157.859375 293.867188 141.394531 299.988281 123.113281 C 302.851562 114.566406 304.449219 105.503906 303.25 96.507812 C 302.269531 89.082031 299.539062 81.910156 295.554688 75.570312 C 286.96875 61.921875 273.460938 52.894531 258.195312 48.195312 C 249.472656 45.515625 240.375 44.195312 231.304688 43.488281 C 222.234375 42.78125 212.40625 42.144531 203.144531 43.320312 C 188.265625 45.207031 175.492188 53.816406 162.339844 60.34375 C 156.121094 63.4375 149.628906 66.210938 142.753906 67.449219 C 135.882812 68.691406 128.421875 68.117188 121.789062 65.277344 C 105.996094 58.511719 96.660156 42.679688 90.371094 27.480469 C 88.671875 23.371094 87.132812 19.1875 85.640625 14.996094 C 85.085938 13.453125 87.433594 12.472656 87.984375 14.015625 C 93.730469 30.160156 100.484375 47.527344 114.644531 58.171875 C 120.769531 62.777344 128.058594 65.617188 135.761719 65.578125 C 142.597656 65.53125 149.230469 63.4375 155.441406 60.75 C 168.566406 55.0625 180.484375 46.535156 194.335938 42.550781 C 202.867188 40.101562 211.667969 40.074219 220.464844 40.363281 C 229.261719 40.65625 238.632812 41.328125 247.574219 43.007812 C 263.566406 46.019531 278.84375 52.53125 290.15625 64.503906 C 300.324219 75.257812 306.617188 89.59375 306.152344 104.507812 C 305.863281 113.917969 303.015625 123.082031 299.441406 131.71875 C 295.867188 140.355469 291.492188 148.859375 287.269531 157.308594 C 278.886719 174.046875 270.695312 191.4375 269.152344 210.359375 C 267.808594 226.710938 272.550781 242.855469 283.246094 255.40625 C 294.152344 268.21875 310.199219 275.273438 326.910156 275.859375 C 331.1875 276.007812 335.449219 275.710938 339.675781 275.054688 C 341.296875 274.808594 341.632812 277.328125 340.019531 277.574219 Z M 340.03125 277.578125 " fill-opacity="1" fill-rule="nonzero"/></g></g></g><g clip-path="url(#15c8ed00d2)"><g clip-path="url(#24d1d4fc8c)"><g clip-path="url(#e78b8eef17)"><path fill="#aa8b56" d="M 78.570312 28.054688 C 77.210938 43.429688 84.476562 58.824219 96.273438 68.550781 C 102.894531 74.003906 110.738281 77.742188 118.949219 80.09375 C 127.164062 82.449219 136.867188 84.011719 145.679688 83.179688 C 154.492188 82.34375 163.324219 78.027344 171.792969 74.738281 C 180.265625 71.445312 188.941406 68.355469 197.738281 65.832031 C 206.535156 63.308594 215.136719 61.40625 224.054688 60.355469 C 233.109375 59.273438 242.691406 58.726562 251.640625 60.886719 C 266.480469 64.460938 278.273438 76.328125 283.035156 90.675781 C 285.609375 98.453125 286.269531 106.828125 285.140625 114.933594 C 283.925781 123.609375 280.488281 131.40625 275.75 138.722656 C 270.773438 146.410156 265.566406 153.8125 261.394531 161.988281 C 257.222656 170.164062 253.851562 178.484375 251.15625 187.128906 C 248.464844 195.773438 246.476562 204.90625 245.308594 214.015625 C 244.144531 223.121094 244.058594 232.507812 246.777344 241.476562 C 249.296875 249.773438 253.433594 257.574219 257.804688 265.027344 C 261.796875 271.820312 266.253906 278.34375 271.261719 284.425781 C 276.269531 290.507812 281.660156 295.996094 287.492188 301.148438 C 290.640625 303.933594 293.84375 306.949219 297.453125 309.136719 C 301.597656 311.636719 306.710938 312.203125 311.367188 313.148438 C 316.023438 314.09375 320.550781 315.035156 325.148438 315.972656 C 326.742188 316.296875 326.414062 318.820312 324.808594 318.496094 C 320.03125 317.523438 315.269531 316.539062 310.492188 315.566406 C 305.988281 314.640625 301.128906 314.035156 297.035156 311.808594 C 293.269531 309.757812 289.996094 306.710938 286.789062 303.90625 C 283.800781 301.300781 280.90625 298.597656 278.117188 295.773438 C 266.851562 284.382812 257.761719 271.164062 250.488281 256.921875 C 246.4375 249.007812 243.113281 240.605469 242.246094 231.691406 C 241.378906 222.773438 242.601562 213.148438 244.316406 204.125 C 247.71875 186.203125 254.144531 168.832031 263.386719 153.101562 C 268.085938 145.105469 274.128906 137.832031 278.15625 129.464844 C 281.839844 121.820312 283.503906 113.210938 283.078125 104.730469 C 282.277344 88.835938 273.65625 73.433594 259.117188 66.261719 C 250.875 62.203125 241.609375 61.675781 232.582031 62.175781 C 223.507812 62.667969 214.507812 64.183594 205.683594 66.351562 C 196.863281 68.515625 187.851562 71.464844 179.15625 74.675781 C 174.742188 76.308594 170.347656 78.03125 165.972656 79.792969 C 161.601562 81.550781 157.507812 83.214844 153.105469 84.398438 C 144.34375 86.742188 135.125 86.027344 126.300781 84.402344 C 117.953125 82.859375 109.761719 80.179688 102.410156 75.886719 C 88.917969 68.011719 78.9375 54.613281 76.441406 39.042969 C 75.84375 35.300781 75.734375 31.492188 76.054688 27.730469 C 76.203125 26.097656 78.726562 26.4375 78.578125 28.070312 Z M 78.570312 28.054688 " fill-opacity="1" fill-rule="nonzero"/></g></g></g><g clip-path="url(#db7dc66fbd)"><g clip-path="url(#c0863e6e26)"><g clip-path="url(#d3f71334c0)"><path fill="#aa8b56" d="M 326.140625 340.949219 C 316.90625 340.378906 307.542969 339.730469 298.691406 336.863281 C 289.835938 333.992188 282.613281 328.285156 275.710938 322.105469 C 264.144531 311.75 254.484375 299.410156 246.734375 285.996094 C 238.980469 272.578125 232.667969 256.933594 228.675781 241.304688 C 224.632812 225.511719 222.707031 209.195312 223 192.910156 C 223.359375 173.4375 230.484375 154.855469 239.460938 137.828125 C 246.332031 124.777344 258.101562 103.976562 242.113281 92.574219 C 235.035156 87.519531 226.09375 87.46875 217.867188 88.953125 C 213.1875 89.792969 208.589844 91.058594 203.980469 92.199219 C 199.105469 93.40625 194.21875 94.535156 189.3125 95.597656 C 179.53125 97.734375 169.683594 99.589844 159.789062 101.183594 C 149.894531 102.777344 140.628906 104.0625 130.941406 103.859375 C 121.53125 103.65625 112.089844 101.789062 103.8125 97.171875 C 95.539062 92.558594 89.378906 86.492188 83.203125 79.996094 C 72.304688 68.503906 61.894531 55.023438 58.988281 39.066406 C 58.273438 35.175781 58.097656 31.222656 58.394531 27.273438 C 58.519531 25.640625 61.042969 25.980469 60.921875 27.613281 C 59.671875 44.175781 68.503906 59.097656 78.816406 71.316406 C 84.433594 77.957031 90.539062 84.433594 97.390625 89.808594 C 104.882812 95.6875 113.402344 99.394531 122.847656 100.691406 C 132.339844 101.992188 141.984375 101.171875 151.425781 99.875 C 160.863281 98.574219 170.90625 96.78125 180.582031 94.828125 C 190.179688 92.890625 199.699219 90.632812 209.207031 88.265625 C 217.703125 86.15625 226.738281 84.238281 235.371094 86.648438 C 242.410156 88.625 248.695312 93.398438 251.265625 100.402344 C 254.058594 108.023438 252.203125 116.265625 249.289062 123.546875 C 245.933594 131.90625 241.128906 139.617188 237.324219 147.769531 C 233.21875 156.566406 229.757812 165.722656 227.671875 175.21875 C 224.007812 191.894531 225.222656 209.609375 228.074219 226.332031 C 230.925781 243.050781 235.59375 257.742188 242.453125 272.335938 C 249.105469 286.472656 257.710938 299.734375 268.300781 311.246094 C 273.882812 317.320312 280.074219 323.046875 286.738281 327.921875 C 294.480469 333.589844 303.574219 336.125 313 337.308594 C 317.476562 337.859375 321.976562 338.160156 326.46875 338.433594 C 328.105469 338.53125 327.753906 341.054688 326.128906 340.960938 Z M 326.140625 340.949219 " fill-opacity="1" fill-rule="nonzero"/></g></g></g><g clip-path="url(#7a0f1030c1)"><g clip-path="url(#5d92de3944)"><g clip-path="url(#98fd00935f)"><path fill="#aa8b56" d="M 326.121094 365.007812 C 295.71875 359.675781 262.578125 352.953125 240.390625 329.675781 C 228.015625 316.6875 221.339844 299.722656 215.839844 282.9375 C 209.949219 264.972656 205.609375 246.484375 203.277344 227.71875 C 202.085938 218.195312 201.382812 208.589844 201.339844 198.992188 C 201.292969 189.890625 202.117188 180.871094 204.691406 172.101562 C 206.023438 167.570312 207.9375 163.261719 209.117188 158.683594 C 210.296875 154.105469 211.019531 149.640625 211.492188 145.039062 C 211.964844 140.441406 212.152344 135.59375 212.066406 130.871094 C 212.027344 128.800781 211.949219 126.734375 211.824219 124.671875 C 211.6875 122.414062 211.714844 119.921875 211.054688 117.75 C 210.390625 115.582031 208.675781 114.777344 206.585938 114.296875 C 204.378906 113.792969 202.101562 113.523438 199.84375 113.378906 C 195.234375 113.089844 190.601562 113.480469 186.039062 114.199219 C 176.8125 115.652344 167.847656 118.410156 158.75 120.453125 C 149.652344 122.496094 139.550781 123.632812 129.808594 123.546875 C 120.296875 123.453125 110.335938 122.539062 101.199219 119.78125 C 92.542969 117.171875 84.722656 112.164062 77.617188 106.691406 C 70.507812 101.21875 63.398438 95.121094 57.4375 88.300781 C 51.480469 81.476562 47.542969 74.09375 45.019531 65.726562 C 42.5 57.359375 41.425781 48.792969 40.796875 40.179688 C 40.484375 35.964844 40.28125 31.738281 40.09375 27.515625 C 40.015625 25.890625 42.539062 25.53125 42.609375 27.167969 C 43.367188 44.085938 44.050781 62.300781 52.679688 77.378906 C 57.199219 85.269531 63.789062 91.589844 70.5625 97.53125 C 77.339844 103.472656 85.070312 109.691406 93.484375 113.90625 C 102.027344 118.191406 111.46875 119.765625 120.917969 120.574219 C 130.367188 121.382812 140.464844 121.027344 150.113281 119.511719 C 167.957031 116.699219 185.75 108.519531 204.117188 111.261719 C 207.707031 111.792969 211.769531 112.523438 213.242188 116.308594 C 213.960938 118.144531 214.042969 120.183594 214.195312 122.128906 C 214.363281 124.351562 214.488281 126.585938 214.546875 128.808594 C 214.804688 137.800781 214.292969 146.875 212.421875 155.679688 C 210.550781 164.484375 206.566406 172.734375 205.074219 181.722656 C 203.496094 191.15625 203.707031 200.789062 204.25 210.296875 C 205.324219 229.03125 208.511719 247.636719 213.367188 265.753906 C 215.777344 274.753906 218.605469 283.664062 221.835938 292.410156 C 225.027344 301.050781 228.75 309.59375 233.832031 317.300781 C 251.9375 344.800781 284.589844 354.53125 315.25 360.410156 C 318.984375 361.121094 322.722656 361.796875 326.464844 362.457031 C 328.078125 362.738281 327.738281 365.261719 326.125 364.980469 Z M 326.121094 365.007812 " fill-opacity="1" fill-rule="nonzero"/></g></g></g><g clip-path="url(#034074ed11)"><g clip-path="url(#f8bf5df664)"><g clip-path="url(#70b407cb1e)"><path fill="#aa8b56" d="M 339.859375 261.398438 C 325.992188 258.148438 311.355469 254.050781 300.691406 244.074219 C 289.886719 233.964844 285.878906 219.644531 286.074219 205.195312 C 286.28125 190.023438 290.230469 175.0625 297.042969 161.550781 C 304.101562 147.542969 313.382812 134.242188 316.707031 118.65625 C 319.628906 104.941406 318.296875 90.113281 313.46875 76.96875 C 311.179688 70.710938 308.019531 64.730469 303.738281 59.601562 C 298.847656 53.753906 292.824219 48.769531 286.414062 44.675781 C 273.417969 36.390625 258.210938 31.898438 242.921875 30.5625 C 225.597656 29.050781 208.15625 31.523438 191.335938 35.574219 C 182.710938 37.644531 174.269531 40.265625 165.78125 42.84375 C 161.609375 44.105469 157.355469 45.269531 153 45.699219 C 148.648438 46.128906 144.386719 45.789062 140.191406 44.855469 C 132.121094 43.074219 124.558594 39.351562 117.703125 34.804688 C 111.445312 30.65625 105.738281 25.59375 101.0625 19.703125 C 98.707031 16.742188 96.648438 13.578125 94.847656 10.238281 C 94.0625 8.796875 96.429688 7.832031 97.191406 9.257812 C 104.578125 22.941406 117.457031 33.546875 131.722656 39.496094 C 139.949219 42.925781 148.644531 44.246094 157.429688 42.429688 C 161.773438 41.53125 165.980469 40.117188 170.203125 38.8125 C 174.429688 37.507812 178.429688 36.347656 182.574219 35.214844 C 199.316406 30.664062 216.515625 27.421875 233.921875 27.597656 C 249.257812 27.753906 264.671875 30.796875 278.5625 37.4375 C 291.472656 43.621094 303.75 53.066406 310.984375 65.605469 C 318.21875 78.144531 320.953125 91.742188 320.71875 105.480469 C 320.605469 112.5 319.464844 119.421875 317.296875 126.09375 C 314.839844 133.617188 311.242188 140.683594 307.460938 147.605469 C 303.679688 154.523438 299.714844 161.332031 296.527344 168.554688 C 293.339844 175.773438 291.398438 182.917969 290.074219 190.484375 C 287.636719 204.5 287.546875 219.992188 294.820312 232.683594 C 302.097656 245.375 316.105469 252.21875 329.921875 256.21875 C 333.316406 257.203125 336.75 258.054688 340.203125 258.863281 C 341.777344 259.234375 341.464844 261.761719 339.863281 261.386719 Z M 339.859375 261.398438 " fill-opacity="1" fill-rule="nonzero"/></g></g></g></g></g></g></g><g clip-path="url(#bda5816d18)"><g clip-path="url(#4e3a614bae)"><g clip-path="url(#951bfdf63e)"><path fill="#aa8b56" d="M 791.238281 268.378906 C 796.996094 260.980469 804.886719 255.6875 811.101562 248.726562 C 814.183594 245.269531 816.777344 241.394531 818.339844 237.007812 C 819.984375 232.367188 820.308594 227.382812 819.710938 222.523438 C 817.339844 202.960938 801.496094 183.0625 810.875 163.203125 C 814.878906 154.71875 822.285156 148.460938 829.992188 143.414062 C 838.734375 137.691406 848.207031 132.425781 854.605469 123.910156 C 857.917969 119.503906 860.09375 114.488281 861.148438 109.078125 C 862.339844 103.035156 862.53125 96.835938 863.816406 90.804688 C 866.105469 80.003906 870.972656 69.648438 878.582031 61.5625 C 882.101562 57.832031 886.152344 54.636719 890.65625 52.160156 C 895.804688 49.324219 901.546875 47.285156 905.804688 43.082031 C 913.234375 35.730469 912.3125 23.910156 908.085938 15.148438 C 906.984375 12.847656 905.582031 10.722656 903.960938 8.757812 C 903.0625 7.671875 901.542969 9.25 902.4375 10.335938 C 905.757812 14.375 907.917969 19.328125 908.78125 24.46875 C 909.542969 28.984375 909.253906 34.011719 906.929688 38.054688 C 903.914062 43.3125 898.191406 45.902344 892.996094 48.472656 C 888.257812 50.820312 883.863281 53.574219 879.9375 57.128906 C 872.027344 64.300781 866.484375 73.816406 863.324219 83.96875 C 861.570312 89.59375 860.753906 95.347656 860.082031 101.183594 C 859.398438 107.0625 858.507812 112.875 855.6875 118.160156 C 850.65625 127.566406 841.4375 133.472656 832.695312 139.046875 C 824.902344 144.011719 817.246094 149.347656 811.902344 157.046875 C 809.257812 160.855469 807.335938 165.183594 806.414062 169.734375 C 805.433594 174.652344 805.644531 179.664062 806.566406 184.574219 C 808.484375 194.773438 813.015625 204.238281 815.78125 214.207031 C 817.089844 218.910156 818.019531 223.777344 817.757812 228.679688 C 817.496094 233.582031 815.957031 238.089844 813.375 242.152344 C 808.421875 249.945312 800.566406 255.300781 794.136719 261.769531 C 792.550781 263.363281 791.035156 265.035156 789.65625 266.808594 C 788.796875 267.910156 790.363281 269.449219 791.234375 268.332031 Z M 791.238281 268.378906 " fill-opacity="1" fill-rule="nonzero"/></g></g></g><g clip-path="url(#f98205c04b)"><g clip-path="url(#76cb36a963)"><g clip-path="url(#c0a39f3e97)"><path fill="#aa8b56" d="M 800.816406 290.894531 C 812.035156 285.765625 823.671875 280.300781 831.9375 270.832031 C 839.074219 262.65625 842.550781 252.320312 843.785156 241.679688 C 845.101562 230.3125 843.996094 218.710938 841.703125 207.546875 C 839.359375 196.175781 834.726562 183.621094 839.417969 172.230469 C 844.046875 160.96875 855.085938 155.496094 864.714844 149.214844 C 870 145.765625 874.8125 141.78125 878.488281 136.613281 C 881.785156 131.957031 884.113281 126.621094 885.542969 121.101562 C 888.3125 110.429688 887.398438 99.277344 888.660156 88.414062 C 889.21875 83.566406 890.25 78.621094 892.632812 74.3125 C 895.652344 68.847656 900.785156 65.285156 905.84375 61.882812 C 910.640625 58.671875 915.496094 55.378906 918.886719 50.609375 C 921.566406 46.839844 923.207031 42.375 924.058594 37.851562 C 926.050781 27.324219 924.101562 16.171875 919.632812 6.523438 C 918.453125 3.972656 917.058594 1.53125 915.5 -0.804688 C 914.714844 -1.96875 912.820312 -0.859375 913.609375 0.3125 C 919.722656 9.429688 923.058594 20.53125 922.582031 31.53125 C 922.371094 36.417969 921.363281 41.375 919.195312 45.789062 C 916.792969 50.679688 912.929688 54.300781 908.523438 57.410156 C 903.714844 60.808594 898.46875 63.773438 894.429688 68.136719 C 890.925781 71.929688 888.789062 76.582031 887.609375 81.578125 C 885.203125 91.792969 886.042969 102.433594 884.839844 112.796875 C 883.484375 124.46875 878.628906 135.554688 869.425781 143.128906 C 860.222656 150.699219 848.394531 154.976562 841.097656 164.875 C 837.914062 169.195312 835.921875 174.210938 835.375 179.558594 C 834.796875 185.28125 835.816406 191.078125 837.011719 196.664062 C 838.273438 202.5625 839.765625 208.398438 840.703125 214.351562 C 841.605469 220.050781 842.117188 225.8125 842.125 231.585938 C 842.152344 242.039062 840.542969 252.886719 835.398438 262.132812 C 829.332031 273.039062 818.707031 279.832031 807.789062 285.199219 C 805.105469 286.515625 802.394531 287.765625 799.675781 289.007812 C 798.398438 289.59375 799.523438 291.476562 800.792969 290.898438 Z M 800.816406 290.894531 " fill-opacity="1" fill-rule="nonzero"/></g></g></g><g clip-path="url(#8fff153c02)"><g clip-path="url(#290b2971dd)"><g clip-path="url(#07e57b95ba)"><path fill="#aa8b56" d="M 810.484375 311.175781 C 823.476562 309.214844 835.617188 303.246094 845.089844 294.128906 C 854.203125 285.359375 860.460938 274.050781 863.914062 261.941406 C 867.367188 249.835938 868.144531 237.703125 867.109375 225.539062 C 866.554688 219.054688 865.476562 212.597656 863.886719 206.285156 C 862.296875 199.976562 859.851562 193.609375 859.183594 187.03125 C 858.875 183.9375 858.988281 180.796875 860.054688 177.835938 C 861.125 174.871094 863.023438 172.472656 865.347656 170.507812 C 870.820312 165.867188 878.148438 164.378906 884.484375 161.34375 C 894.742188 156.425781 902 147.039062 905.839844 136.492188 C 907.953125 130.691406 909.03125 124.515625 909.21875 118.355469 C 909.40625 112.195312 908.5 105.496094 908.019531 99.070312 C 907.566406 92.976562 907.359375 86.457031 909.800781 80.714844 C 912.238281 74.976562 917.191406 70.546875 921.738281 66.195312 C 925.84375 62.265625 929.378906 58.015625 932.058594 52.984375 C 934.734375 47.957031 936.707031 42.246094 937.746094 36.519531 C 938.847656 30.46875 938.980469 24.253906 938.011719 18.171875 C 936.90625 11.222656 933.996094 4.769531 930.558594 -1.316406 C 928.765625 -4.496094 926.820312 -7.585938 924.878906 -10.667969 C 924.125 -11.859375 922.234375 -10.746094 922.988281 -9.550781 C 926.871094 -3.390625 930.847656 2.851562 933.449219 9.683594 C 935.761719 15.761719 936.695312 22.191406 936.429688 28.675781 C 935.957031 39.96875 931.953125 51.738281 924.425781 60.296875 C 920.394531 64.886719 915.425781 68.585938 911.664062 73.421875 C 907.898438 78.253906 906.042969 83.6875 905.652344 89.734375 C 905.257812 96.078125 906.15625 102.433594 906.671875 108.734375 C 907.1875 115.039062 907.203125 121.320312 906.011719 127.546875 C 903.863281 138.714844 898.210938 149.609375 888.785156 156.289062 C 878.800781 163.363281 863.265625 163.832031 858.164062 176.667969 C 855.886719 182.394531 856.917969 188.746094 858.363281 194.546875 C 859.960938 200.929688 862.011719 207.164062 863.253906 213.644531 C 865.597656 225.921875 866.0625 238.679688 864.074219 251.050781 C 862.089844 263.421875 857.921875 274.566406 850.753906 284.347656 C 842.957031 295 831.855469 303.085938 819.21875 306.980469 C 816.164062 307.917969 813.054688 308.613281 809.910156 309.089844 C 808.511719 309.292969 809.097656 311.414062 810.480469 311.203125 Z M 810.484375 311.175781 " fill-opacity="1" fill-rule="nonzero"/></g></g></g><g clip-path="url(#1d8ff38595)"><g clip-path="url(#0f0578e30d)"><g clip-path="url(#68f92a4bae)"><path fill="#aa8b56" d="M 821.316406 334.269531 C 850.867188 325.613281 869.042969 297.59375 881.820312 271.410156 C 884.996094 264.90625 887.789062 258.15625 889.144531 251.015625 C 890.488281 243.96875 890.5 236.734375 889.84375 229.617188 C 889.1875 222.496094 887.8125 215.5 886.351562 208.503906 C 885.007812 202.074219 883.621094 195.507812 883.75 188.898438 C 883.882812 182.234375 886.121094 176.273438 891.65625 172.242188 C 897.195312 168.207031 904.375 165.933594 909.671875 161.058594 C 915.28125 155.875 918.949219 148.839844 922.550781 142.207031 C 924.195312 139.171875 925.730469 136.054688 926.6875 132.71875 C 927.546875 129.734375 927.871094 126.601562 927.886719 123.496094 C 927.917969 117.078125 926.753906 110.722656 926.015625 104.367188 C 925.273438 98.015625 924.867188 91.917969 926.6875 85.949219 C 930.421875 73.746094 942.273438 66.933594 949.09375 56.722656 C 955.390625 47.292969 957.171875 35.359375 956.449219 24.238281 C 955.625 11.511719 951.582031 -1.074219 944.925781 -11.949219 C 943.296875 -14.605469 941.5 -17.152344 939.558594 -19.601562 C 938.6875 -20.703125 937.160156 -19.121094 938.039062 -18.023438 C 946.039062 -7.929688 951.28125 4.324219 953.414062 17.007812 C 955.304688 28.242188 954.820312 40.550781 949.824219 50.96875 C 944.640625 61.792969 933.902344 68.21875 927.746094 78.339844 C 924.527344 83.628906 923.167969 89.554688 923.207031 95.703125 C 923.242188 102 924.375 108.214844 925.09375 114.449219 C 925.808594 120.679688 926.214844 126.730469 924.414062 132.628906 C 923.320312 136.210938 921.511719 139.503906 919.714844 142.773438 C 917.917969 146.046875 916.066406 149.386719 913.964844 152.511719 C 911.863281 155.632812 909.226562 158.84375 906.089844 161.203125 C 903.320312 163.277344 900.207031 164.8125 897.15625 166.417969 C 891.226562 169.53125 885.609375 173.1875 883.148438 179.730469 C 881.085938 185.1875 881.339844 191.292969 882.070312 196.972656 C 882.910156 203.457031 884.476562 209.808594 885.703125 216.226562 C 888.464844 230.648438 889.496094 245.5 884.539062 259.5625 C 882.070312 266.570312 878.589844 273.242188 875.0625 279.773438 C 871.53125 286.300781 867.601562 292.824219 863.246094 298.941406 C 854.734375 310.890625 844.113281 321.765625 830.800781 328.28125 C 827.558594 329.867188 824.199219 331.144531 820.738281 332.15625 C 819.382812 332.554688 819.953125 334.671875 821.308594 334.273438 Z M 821.316406 334.269531 " fill-opacity="1" fill-rule="nonzero"/></g></g></g><g clip-path="url(#3f1bdbf78e)"><g clip-path="url(#f16ce3206b)"><g clip-path="url(#b256bf2678)"><path fill="#aa8b56" d="M 831.652344 355.078125 C 845.566406 345.511719 858.527344 334.59375 870.316406 322.515625 C 880.820312 311.773438 890.839844 300.160156 898.84375 287.40625 C 905.933594 276.113281 911.132812 263.609375 912.753906 250.3125 C 913.601562 243.335938 913.339844 236.375 912.488281 229.421875 C 911.644531 222.523438 910.386719 215.675781 909.835938 208.738281 C 909.34375 202.578125 909.351562 196.136719 911.582031 190.289062 C 914.222656 183.363281 920.011719 178.648438 925.648438 174.1875 C 930.972656 169.960938 936.289062 165.574219 939.433594 159.402344 C 942.242188 153.894531 943.335938 147.6875 943.691406 141.5625 C 944.542969 126.921875 941.109375 112.53125 941.015625 97.9375 C 940.96875 90.242188 942.539062 83.097656 946.539062 76.484375 C 950.019531 70.734375 954.613281 65.765625 958.554688 60.339844 C 962.492188 54.917969 965.261719 49.386719 966.695312 43.050781 C 968.125 36.714844 968.253906 30.699219 967.777344 24.519531 C 966.671875 10.597656 962.4375 -2.96875 957.496094 -15.960938 C 956.269531 -19.195312 954.972656 -22.414062 953.648438 -25.601562 C 953.117188 -26.890625 950.988281 -26.324219 951.53125 -25.03125 C 956.917969 -12.046875 961.816406 1.308594 964.347656 15.179688 C 966.589844 27.492188 966.945312 41.007812 960.980469 52.398438 C 954.699219 64.402344 943.089844 73.042969 939.917969 86.722656 C 938.1875 94.15625 938.816406 101.945312 939.5625 109.460938 C 940.265625 116.515625 941.125 123.5625 941.480469 130.640625 C 941.816406 137.300781 941.792969 144.105469 940.269531 150.640625 C 938.75 157.171875 935.445312 162.730469 930.480469 167.339844 C 925.40625 172.035156 919.425781 175.722656 914.851562 180.953125 C 910.597656 185.808594 908.316406 191.585938 907.660156 197.960938 C 906.28125 211.175781 910.402344 224.300781 911.050781 237.433594 C 911.742188 251.335938 908.347656 264.960938 902.082031 277.320312 C 895.734375 289.851562 886.90625 301.003906 877.628906 311.472656 C 866.398438 324.152344 853.976562 335.773438 840.488281 346.023438 C 837.234375 348.492188 833.921875 350.882812 830.5625 353.195312 C 829.402344 353.988281 830.511719 355.886719 831.679688 355.085938 Z M 831.652344 355.078125 " fill-opacity="1" fill-rule="nonzero"/></g></g></g></svg>