<svg xmlns="http://www.w3.org/2000/svg" xmlns:xlink="http://www.w3.org/1999/xlink" width="1920" zoomAndPan="magnify" viewBox="0 0 1440 809.999993" height="1080" preserveAspectRatio="xMidYMid meet" version="1.0"><defs><clipPath id="18f9433119"><path d="M 165 468.328125 L 184 468.328125 L 184 492 L 165 492 Z M 165 468.328125 " clip-rule="nonzero"/></clipPath><clipPath id="80b9009956"><path d="M 42 774 L 57 774 L 57 792.328125 L 42 792.328125 Z M 42 774 " clip-rule="nonzero"/></clipPath><clipPath id="4bf73bbe10"><path d="M 15 9.1875 L 234.734375 9.1875 L 234.734375 333.1875 L 15 333.1875 Z M 15 9.1875 " clip-rule="nonzero"/></clipPath><clipPath id="97436b9386"><path d="M 50 300 L 69 300 L 69 324.1875 L 50 324.1875 Z M 50 300 " clip-rule="nonzero"/></clipPath><clipPath id="6bc4f32ed7"><path d="M 178 0.1875 L 193 0.1875 L 193 18 L 178 18 Z M 178 0.1875 " clip-rule="nonzero"/></clipPath><clipPath id="191c74ff90"><rect x="0" width="220" y="0" height="325"/></clipPath></defs><path fill="#fafafa" d="M 69.765625 780.148438 C 69.320312 777.789062 69.058594 775.410156 68.976562 773.011719 C 69.039062 769.925781 69.777344 766.859375 70.046875 763.78125 C 70.703125 759.308594 72.203125 755.132812 74.542969 751.265625 C 78.65625 743.371094 83.527344 736.003906 92.820312 733.234375 C 94.320312 732.785156 95.785156 732.207031 97.242188 731.621094 C 97.894531 731.296875 98.574219 731.074219 99.289062 730.949219 C 100.003906 730.828125 100.722656 730.8125 101.441406 730.902344 C 102.160156 730.988281 102.851562 731.179688 103.515625 731.476562 C 104.179688 731.769531 104.785156 732.152344 105.335938 732.625 C 105.832031 732.941406 106.269531 733.328125 106.648438 733.785156 C 107.023438 734.242188 107.320312 734.742188 107.539062 735.292969 C 107.753906 735.839844 107.882812 736.410156 107.921875 737 C 107.960938 737.585938 107.910156 738.167969 107.765625 738.742188 C 105.804688 745.582031 103.117188 752.125 99.703125 758.371094 C 97.082031 763.613281 92.855469 767.621094 89.308594 772.160156 C 85.863281 776.566406 81.078125 779.160156 77.078125 782.769531 C 74.972656 784.664062 72 783.726562 69.765625 780.148438 Z M 77.664062 774.195312 C 87.976562 769.527344 99.605469 747.121094 99.371094 740.027344 C 84.703125 742.023438 74.652344 762.085938 77.664062 774.195312 Z M 77.664062 774.195312 " fill-opacity="1" fill-rule="nonzero"/><path fill="#fafafa" d="M 231.007812 613.570312 C 231.574219 614.15625 232.039062 614.816406 232.398438 615.546875 C 232.757812 616.273438 233 617.042969 233.121094 617.847656 C 233.242188 618.652344 233.238281 619.457031 233.109375 620.261719 C 232.980469 621.066406 232.734375 621.832031 232.367188 622.558594 C 230.75 626.597656 229.511719 630.816406 227.589844 634.703125 C 226.3125 637.335938 224.554688 639.605469 222.324219 641.503906 C 218.851562 644.339844 215.128906 646.796875 211.152344 648.871094 C 206.519531 651.273438 201.679688 650.292969 197.171875 648.070312 C 196.933594 647.96875 196.703125 647.84375 196.488281 647.691406 C 196.269531 647.542969 196.070312 647.371094 195.890625 647.183594 C 195.710938 646.992188 195.550781 646.785156 195.410156 646.5625 C 195.273438 646.339844 195.15625 646.105469 195.066406 645.855469 C 194.976562 645.609375 194.910156 645.355469 194.871094 645.097656 C 194.832031 644.835938 194.820312 644.574219 194.832031 644.3125 C 194.847656 644.050781 194.886719 643.792969 194.953125 643.539062 C 195.023438 643.285156 195.113281 643.039062 195.230469 642.804688 C 197.398438 638.007812 198.28125 632.542969 202.382812 628.71875 C 202.921875 628.058594 203.351562 627.335938 203.664062 626.546875 C 204.730469 624.296875 206.175781 622.328125 207.996094 620.632812 C 209.8125 618.933594 211.882812 617.632812 214.199219 616.730469 C 217.277344 615.558594 220.296875 614.21875 223.457031 613.144531 C 226.308594 612.167969 228.65625 613.4375 231.007812 613.570312 Z M 222.410156 621.808594 C 214.152344 620.640625 206.121094 633.6875 205.257812 641.007812 C 211.332031 640.898438 222.40625 630.257812 222.410156 621.8125 Z M 222.410156 621.808594 " fill-opacity="1" fill-rule="nonzero"/><path fill="#fafafa" d="M 144.382812 616.878906 C 145.386719 618.914062 146.71875 621.234375 147.699219 623.695312 C 148.671875 626.042969 149.324219 628.480469 149.65625 631.003906 C 149.984375 633.527344 149.980469 636.050781 149.640625 638.570312 C 149.5625 639.289062 149.292969 639.929688 148.828125 640.488281 C 148.367188 641.046875 147.789062 641.429688 147.097656 641.644531 C 146.226562 642.019531 145.324219 642.273438 144.382812 642.398438 C 143.445312 642.527344 142.507812 642.527344 141.566406 642.394531 C 140.628906 642.261719 139.726562 642.007812 138.859375 641.625 C 137.992188 641.246094 137.191406 640.753906 136.457031 640.152344 C 134.773438 639.128906 133.183594 637.96875 131.699219 636.671875 C 130.210938 635.378906 128.84375 633.964844 127.597656 632.4375 C 126.351562 630.90625 125.246094 629.28125 124.277344 627.5625 C 123.308594 625.84375 122.496094 624.054688 121.835938 622.195312 C 120.058594 616.730469 118.421875 611.101562 119.929688 605.140625 C 119.96875 604.886719 120.023438 604.636719 120.09375 604.390625 C 120.160156 604.144531 120.246094 603.902344 120.347656 603.664062 C 120.445312 603.429688 120.5625 603.199219 120.6875 602.976562 C 120.816406 602.757812 120.960938 602.542969 121.117188 602.339844 C 121.269531 602.136719 121.4375 601.941406 121.617188 601.757812 C 121.800781 601.578125 121.988281 601.40625 122.191406 601.246094 C 122.394531 601.089844 122.601562 600.941406 122.824219 600.808594 C 123.042969 600.679688 123.269531 600.558594 123.503906 600.457031 C 123.738281 600.351562 123.980469 600.265625 124.226562 600.191406 C 124.472656 600.117188 124.71875 600.058594 124.972656 600.019531 C 125.226562 599.976562 125.480469 599.949219 125.738281 599.941406 C 125.992188 599.929688 126.25 599.9375 126.503906 599.957031 C 126.761719 599.980469 127.011719 600.019531 127.265625 600.074219 C 127.515625 600.128906 127.761719 600.195312 128.003906 600.28125 C 128.246094 600.367188 128.480469 600.46875 128.710938 600.582031 C 128.941406 600.695312 129.160156 600.824219 129.375 600.96875 C 132.46875 602.992188 135.285156 605.347656 137.820312 608.035156 C 140.359375 610.722656 142.546875 613.671875 144.382812 616.878906 Z M 140.742188 632.394531 C 141.515625 625.691406 134.40625 611.914062 128.578125 608.816406 C 126.210938 617.171875 133.003906 630.328125 140.730469 632.394531 Z M 140.742188 632.394531 " fill-opacity="1" fill-rule="nonzero"/><path fill="#fafafa" d="M 115.992188 682.609375 C 112.539062 683.683594 109.214844 684.738281 105.878906 685.738281 C 104.613281 686.117188 103.265625 686.242188 102.039062 686.710938 C 101.613281 686.859375 101.171875 686.941406 100.71875 686.960938 C 100.265625 686.984375 99.816406 686.941406 99.375 686.832031 C 98.9375 686.722656 98.519531 686.558594 98.128906 686.328125 C 97.734375 686.101562 97.382812 685.824219 97.070312 685.496094 C 96.730469 685.234375 96.449219 684.925781 96.21875 684.566406 C 95.988281 684.207031 95.824219 683.820312 95.726562 683.40625 C 95.628906 682.992188 95.605469 682.570312 95.652344 682.148438 C 95.699219 681.722656 95.816406 681.320312 96.003906 680.9375 C 97.785156 675.085938 100.542969 669.738281 104.277344 664.894531 C 107.242188 661.203125 110.554688 657.851562 114.207031 654.839844 C 116.964844 652.667969 119.921875 650.804688 123.070312 649.253906 C 123.386719 649.089844 123.71875 648.964844 124.0625 648.878906 C 124.410156 648.792969 124.761719 648.75 125.117188 648.75 C 125.476562 648.75 125.828125 648.792969 126.171875 648.875 C 126.519531 648.960938 126.851562 649.085938 127.167969 649.253906 C 127.480469 649.417969 127.773438 649.617188 128.039062 649.855469 C 128.308594 650.089844 128.542969 650.355469 128.746094 650.648438 C 128.949219 650.941406 129.117188 651.253906 129.242188 651.585938 C 129.371094 651.917969 129.457031 652.261719 129.5 652.617188 C 129.699219 653.910156 129.773438 655.207031 129.726562 656.515625 C 129.726562 658.808594 129.578125 661.101562 129.652344 663.390625 C 129.730469 664.421875 129.613281 665.433594 129.3125 666.421875 C 129.007812 667.414062 128.535156 668.3125 127.894531 669.128906 C 126.632812 670.714844 125.886719 672.738281 124.527344 674.210938 C 121.847656 677.117188 118.898438 679.78125 115.992188 682.609375 Z M 121.742188 660.074219 C 115.398438 662.476562 107.777344 671.78125 107.523438 676.996094 C 112.902344 674.46875 117.601562 671.476562 120.265625 666.167969 C 120.96875 664.1875 121.460938 662.15625 121.742188 660.074219 Z M 121.742188 660.074219 " fill-opacity="1" fill-rule="nonzero"/><path fill="#fafafa" d="M 146.71875 537.003906 C 147.707031 538.636719 148.734375 540.25 149.675781 541.90625 C 150.90625 544.253906 151.742188 546.734375 152.183594 549.351562 C 152.625 551.964844 152.652344 554.582031 152.261719 557.207031 C 151.632812 562.585938 150.351562 567.804688 148.421875 572.863281 C 147.007812 576.894531 145.367188 577.625 141.292969 576.652344 C 135.109375 575.152344 133.355469 573.164062 132.710938 566.851562 C 132.453125 564.34375 132.226562 561.824219 132.007812 559.308594 C 131.738281 554.910156 132.445312 550.671875 134.128906 546.59375 C 135.058594 544.113281 136.070312 541.65625 137.089844 539.210938 C 137.464844 538.320312 137.933594 537.484375 138.5 536.703125 C 141.253906 532.933594 144.171875 533.089844 146.71875 537.003906 Z M 143.714844 545.019531 C 138.71875 550.902344 137.59375 561.628906 141.359375 567.121094 C 144.085938 563.039062 144.289062 558.378906 144.722656 553.945312 C 145.007812 551.171875 146.121094 547.976562 143.714844 545.015625 Z M 143.714844 545.019531 " fill-opacity="1" fill-rule="nonzero"/><path fill="#fafafa" d="M 133.023438 691.796875 C 129.546875 689.644531 128.6875 687.910156 129.765625 683.898438 C 130.332031 680.414062 131.546875 677.175781 133.410156 674.179688 C 134.476562 672.300781 135.324219 670.328125 135.949219 668.257812 C 136.367188 667.261719 136.894531 666.324219 137.523438 665.445312 C 138.519531 663.933594 139.695312 662.578125 141.050781 661.375 C 142.402344 660.175781 143.890625 659.167969 145.507812 658.359375 C 147.125 657.546875 148.820312 656.960938 150.59375 656.597656 C 152.367188 656.234375 154.15625 656.105469 155.964844 656.214844 C 156.714844 656.191406 157.453125 656.101562 158.1875 655.949219 C 158.628906 656.257812 159 656.636719 159.296875 657.082031 C 159.59375 657.527344 159.800781 658.011719 159.914062 658.539062 C 160.03125 659.0625 160.046875 659.589844 159.964844 660.121094 C 159.878906 660.648438 159.703125 661.148438 159.433594 661.609375 C 158.679688 664.386719 158.167969 667.210938 157.894531 670.074219 C 157.664062 671.214844 157.363281 672.335938 156.988281 673.433594 C 156.617188 674.535156 156.175781 675.609375 155.664062 676.652344 C 155.15625 677.699219 154.582031 678.707031 153.941406 679.675781 C 153.300781 680.648438 152.601562 681.574219 151.84375 682.453125 C 151.085938 683.335938 150.277344 684.164062 149.410156 684.945312 C 148.546875 685.722656 147.636719 686.441406 146.679688 687.101562 C 145.726562 687.761719 144.730469 688.359375 143.699219 688.894531 C 142.664062 689.425781 141.601562 689.890625 140.511719 690.289062 C 138.0625 691.035156 135.566406 691.539062 133.023438 691.796875 Z M 153.007812 663.179688 C 152.242188 663.046875 151.472656 663.019531 150.703125 663.09375 C 149.929688 663.171875 149.179688 663.347656 148.453125 663.625 C 147.730469 663.902344 147.054688 664.273438 146.429688 664.730469 C 145.800781 665.191406 145.25 665.726562 144.769531 666.335938 C 143.179688 668.25 141.855469 670.332031 140.804688 672.585938 C 139.75 674.839844 139 677.1875 138.550781 679.632812 C 138.410156 680.65625 138.332031 681.679688 138.308594 682.707031 C 140.230469 681.800781 142.019531 680.671875 143.671875 679.328125 C 145.320312 677.984375 146.789062 676.460938 148.066406 674.757812 C 149.347656 673.058594 150.40625 671.226562 151.242188 669.269531 C 152.078125 667.3125 152.667969 665.28125 153.007812 663.179688 Z M 153.007812 663.179688 " fill-opacity="1" fill-rule="nonzero"/><path fill="#fafafa" d="M 100.175781 718.648438 C 96.289062 721.835938 91.808594 722.445312 87.476562 723.480469 C 86.4375 723.738281 85.441406 724.109375 84.488281 724.597656 C 83.523438 725.105469 82.496094 725.359375 81.40625 725.351562 C 80.3125 725.34375 79.289062 725.078125 78.332031 724.558594 C 78.023438 724.113281 77.78125 723.632812 77.597656 723.125 C 77.417969 722.613281 77.304688 722.089844 77.261719 721.550781 C 77.21875 721.011719 77.25 720.476562 77.347656 719.945312 C 77.445312 719.414062 77.613281 718.902344 77.84375 718.414062 C 78.5625 716.445312 79.480469 714.574219 80.597656 712.800781 C 81.714844 711.027344 83.007812 709.394531 84.476562 707.898438 C 85.945312 706.402344 87.554688 705.078125 89.304688 703.925781 C 91.058594 702.777344 92.910156 701.824219 94.867188 701.066406 C 99.066406 699.164062 103.421875 697.746094 107.941406 696.816406 C 109.621094 696.496094 111.265625 696.640625 112.867188 697.25 C 116.320312 698.609375 116.769531 701.710938 114.214844 704.367188 C 111.664062 707.082031 109.28125 709.9375 107.066406 712.929688 C 105.332031 715.515625 103.035156 717.421875 100.175781 718.648438 Z M 87.96875 716.722656 C 94.875 714.96875 101.515625 709.941406 102.996094 705.535156 C 94.144531 708.21875 89.390625 711.695312 87.96875 716.722656 Z M 87.96875 716.722656 " fill-opacity="1" fill-rule="nonzero"/><path fill="#fafafa" d="M 126.898438 708.621094 C 128.085938 707.832031 129.347656 707.179688 130.675781 706.664062 C 132.003906 706.148438 133.375 705.777344 134.78125 705.554688 C 136.191406 705.332031 137.609375 705.257812 139.03125 705.339844 C 140.457031 705.421875 141.855469 705.652344 143.230469 706.03125 C 145.402344 706.65625 147.753906 706.65625 149.957031 707.203125 C 153.699219 708.132812 154.363281 709.613281 153.554688 713.292969 C 153.375 714.339844 153.050781 715.339844 152.589844 716.296875 C 152.125 717.253906 151.539062 718.125 150.832031 718.914062 C 150.121094 719.707031 149.320312 720.382812 148.417969 720.949219 C 147.519531 721.511719 146.558594 721.941406 145.539062 722.234375 C 139.953125 724.140625 134.488281 726.460938 128.859375 728.253906 C 126.160156 728.953125 123.417969 729.347656 120.632812 729.433594 C 120.316406 729.480469 120 729.488281 119.679688 729.457031 C 119.363281 729.425781 119.050781 729.359375 118.75 729.253906 C 118.449219 729.148438 118.164062 729.007812 117.894531 728.832031 C 117.628906 728.65625 117.386719 728.453125 117.167969 728.21875 C 116.949219 727.984375 116.761719 727.726562 116.609375 727.445312 C 116.453125 727.167969 116.332031 726.871094 116.25 726.5625 C 116.164062 726.253906 116.121094 725.941406 116.113281 725.621094 C 116.105469 725.300781 116.136719 724.984375 116.207031 724.671875 C 117.246094 720.089844 118.488281 715.542969 122.792969 712.585938 C 124.296875 711.40625 125.664062 710.082031 126.898438 708.621094 Z M 124.023438 723.394531 C 125.890625 724.8125 127.121094 723.660156 128.375 723.152344 C 132.019531 721.636719 135.664062 720.101562 139.269531 718.476562 C 141.140625 717.640625 142.9375 716.679688 144.671875 715.585938 C 144.980469 715.441406 145.222656 715.222656 145.394531 714.925781 C 145.570312 714.632812 145.644531 714.3125 145.625 713.972656 C 145.601562 713.628906 145.484375 713.324219 145.273438 713.054688 C 145.0625 712.785156 144.796875 712.597656 144.46875 712.492188 C 142.714844 711.632812 140.859375 711.160156 138.90625 711.074219 C 136.957031 710.992188 135.066406 711.300781 133.246094 712.007812 C 132.085938 712.53125 131.003906 713.179688 129.996094 713.957031 C 128.988281 714.734375 128.085938 715.617188 127.285156 716.605469 C 126.484375 717.59375 125.808594 718.664062 125.257812 719.808594 C 124.707031 720.957031 124.292969 722.152344 124.023438 723.394531 Z M 124.023438 723.394531 " fill-opacity="1" fill-rule="nonzero"/><path fill="#fafafa" d="M 178.382812 602.96875 C 169.269531 606.105469 160.289062 608.84375 150.855469 604.9375 C 148.453125 603.851562 146.214844 602.496094 144.136719 600.867188 C 143.925781 600.675781 143.738281 600.460938 143.578125 600.222656 C 143.417969 599.984375 143.285156 599.734375 143.183594 599.464844 C 143.078125 599.195312 143.011719 598.921875 142.972656 598.636719 C 142.933594 598.351562 142.929688 598.066406 142.960938 597.78125 C 142.988281 597.496094 143.050781 597.214844 143.144531 596.945312 C 143.238281 596.675781 143.363281 596.417969 143.519531 596.175781 C 143.675781 595.933594 143.855469 595.714844 144.0625 595.515625 C 144.265625 595.316406 144.492188 595.140625 144.742188 594.996094 C 147.113281 593.53125 149.664062 592.519531 152.398438 591.953125 C 157.511719 591.21875 162.652344 590.761719 167.820312 590.578125 C 172.726562 590.335938 176.890625 592.765625 180.988281 595.023438 C 182.90625 596.085938 183.039062 597.335938 181.71875 599.230469 C 180.683594 600.546875 179.574219 601.792969 178.382812 602.96875 Z M 169.316406 598.535156 C 165.03125 596.171875 157.355469 596.503906 154.183594 599.230469 C 156.671875 599.960938 159.214844 600.265625 161.808594 600.148438 C 164.402344 600.027344 166.902344 599.492188 169.316406 598.535156 Z M 169.316406 598.535156 " fill-opacity="1" fill-rule="nonzero"/><path fill="#fafafa" d="M 56.5 755.453125 C 53.582031 758.085938 51.179688 760.238281 48.792969 762.398438 C 43.789062 766.871094 38.097656 770.15625 31.71875 772.253906 C 26.742188 773.957031 22.207031 772.3125 17.699219 770.613281 C 16.871094 770.300781 16.410156 769 15.796875 768.183594 C 16.492188 766.28125 17.683594 764.769531 19.375 763.652344 C 22.222656 761.65625 24.730469 759.183594 27.390625 756.929688 C 27.910156 756.417969 28.496094 755.996094 29.148438 755.667969 C 34.832031 753.363281 40.441406 750.808594 46.28125 748.984375 C 49.359375 748.355469 52.460938 748.195312 55.589844 748.496094 C 57.132812 748.496094 60.097656 751.609375 59.960938 753.070312 C 59.769531 754 59.261719 754.703125 58.441406 755.179688 C 57.816406 755.4375 57.167969 755.527344 56.5 755.453125 Z M 47.695312 756.0625 L 47.0625 755.265625 C 41.230469 756.40625 35.714844 758.421875 30.523438 761.308594 C 29.039062 762.175781 27.730469 763.257812 26.601562 764.550781 C 25.46875 765.84375 24.570312 767.28125 23.902344 768.867188 C 25.664062 769.148438 27.417969 769.136719 29.175781 768.828125 C 30.929688 768.523438 32.585938 767.9375 34.140625 767.070312 C 37.402344 765.011719 40.566406 762.769531 43.613281 760.398438 C 45.089844 759.0625 46.453125 757.617188 47.695312 756.0625 Z M 47.695312 756.0625 " fill-opacity="1" fill-rule="nonzero"/><path fill="#fafafa" d="M 174.332031 573.828125 C 173.601562 574.265625 173.007812 574.660156 172.371094 575.007812 C 171.960938 575.269531 171.523438 575.46875 171.058594 575.613281 C 170.59375 575.753906 170.121094 575.828125 169.636719 575.839844 C 169.148438 575.851562 168.671875 575.800781 168.199219 575.679688 C 167.730469 575.5625 167.285156 575.382812 166.863281 575.144531 C 166.441406 574.902344 166.058594 574.609375 165.714844 574.265625 C 165.375 573.921875 165.082031 573.539062 164.847656 573.117188 C 164.609375 572.691406 164.429688 572.246094 164.316406 571.773438 C 164.199219 571.300781 164.148438 570.824219 164.164062 570.339844 C 164.222656 568.164062 164.761719 566.121094 165.785156 564.203125 C 167.445312 561.128906 169.292969 558.167969 171.320312 555.328125 C 171.921875 554.410156 172.746094 553.800781 173.796875 553.492188 C 179.476562 552.4375 185.183594 551.507812 190.902344 550.671875 C 191.378906 550.621094 191.855469 550.640625 192.328125 550.730469 C 192.800781 550.824219 193.25 550.980469 193.675781 551.207031 C 194.097656 551.429688 194.480469 551.714844 194.820312 552.054688 C 195.160156 552.394531 195.445312 552.777344 195.671875 553.203125 C 195.78125 553.640625 195.820312 554.085938 195.789062 554.535156 C 195.757812 554.984375 195.65625 555.421875 195.484375 555.839844 C 195.3125 556.257812 195.082031 556.640625 194.789062 556.984375 C 194.496094 557.328125 194.15625 557.617188 193.769531 557.855469 C 187.269531 563.207031 180.757812 568.546875 174.332031 573.828125 Z M 179.253906 560.164062 C 175.882812 560 175.804688 560.066406 175.386719 563 Z M 179.253906 560.164062 " fill-opacity="1" fill-rule="nonzero"/><path fill="#fafafa" d="M 192.773438 618.859375 C 192.480469 618.132812 192.179688 617.765625 192.234375 617.464844 C 192.761719 614.476562 190.535156 612.230469 190.136719 609.566406 C 189.734375 606.347656 189.601562 603.113281 189.742188 599.871094 C 189.820312 597.457031 190.128906 595.074219 190.667969 592.71875 C 191.070312 590.949219 191.730469 589.285156 192.652344 587.726562 C 192.820312 587.464844 193.011719 587.21875 193.222656 586.996094 C 193.4375 586.769531 193.671875 586.5625 193.925781 586.382812 C 194.175781 586.199219 194.445312 586.042969 194.726562 585.914062 C 195.007812 585.78125 195.300781 585.679688 195.601562 585.601562 C 195.90625 585.527344 196.210938 585.480469 196.523438 585.460938 C 196.832031 585.441406 197.140625 585.453125 197.449219 585.496094 C 197.757812 585.535156 198.0625 585.605469 198.359375 585.703125 C 198.652344 585.800781 198.9375 585.921875 199.207031 586.074219 C 203.226562 587.597656 203.792969 591.175781 204.550781 594.496094 C 204.941406 596.453125 205.148438 598.429688 205.179688 600.425781 C 205.210938 602.421875 205.058594 604.40625 204.730469 606.375 C 204.402344 608.34375 203.902344 610.265625 203.222656 612.144531 C 202.546875 614.023438 201.707031 615.824219 200.703125 617.550781 C 199.214844 620.425781 197.546875 621.160156 195.175781 620.335938 C 194.316406 619.945312 193.515625 619.453125 192.773438 618.859375 Z M 192.773438 618.859375 " fill-opacity="1" fill-rule="nonzero"/><path fill="#fafafa" d="M 175.019531 620.222656 C 175.898438 620.203125 176.757812 620.324219 177.59375 620.582031 C 178.527344 620.949219 179.222656 621.578125 179.675781 622.46875 C 181.589844 627.910156 185.035156 632.878906 185.574219 638.695312 C 185.789062 641.132812 185.609375 643.542969 185.035156 645.921875 C 184.464844 648.300781 183.527344 650.527344 182.226562 652.601562 C 180.15625 655.953125 177.214844 655.914062 174.628906 652.875 C 173.191406 651.40625 171.847656 649.859375 170.59375 648.230469 C 169.265625 646.625 168.417969 644.800781 168.042969 642.753906 C 167.800781 635.851562 168.132812 628.945312 172.371094 622.96875 C 172.804688 622.390625 173.269531 621.835938 173.765625 621.3125 C 174.007812 621.042969 174.3125 620.832031 175.019531 620.222656 Z M 176.722656 631.984375 C 174.015625 637.160156 174.210938 641.144531 177.136719 643.96875 C 177.773438 642.011719 178.054688 640 177.984375 637.941406 C 177.914062 635.882812 177.496094 633.898438 176.734375 631.984375 Z M 176.722656 631.984375 " fill-opacity="1" fill-rule="nonzero"/><path fill="#fafafa" d="M 202.835938 691.183594 C 203.8125 692.890625 204.53125 694.703125 204.984375 696.617188 C 205.4375 698.53125 205.613281 700.46875 205.507812 702.433594 C 205.101562 708.671875 204.15625 714.882812 200.042969 720.027344 C 199.542969 720.710938 198.941406 721.292969 198.246094 721.773438 C 194.882812 723.847656 192.472656 722.574219 191.859375 718.707031 C 191.410156 715.886719 190.417969 713.152344 189.945312 710.328125 C 188.765625 703.285156 188.660156 696.40625 193.488281 690.414062 C 193.910156 689.824219 194.289062 689.210938 194.636719 688.574219 C 194.859375 687.96875 195.226562 687.46875 195.742188 687.078125 C 196.257812 686.691406 196.839844 686.46875 197.484375 686.421875 C 198.125 686.371094 198.734375 686.5 199.304688 686.804688 C 199.871094 687.109375 200.3125 687.546875 200.628906 688.109375 C 201.324219 688.9375 201.898438 689.863281 202.835938 691.183594 Z M 197.777344 696.980469 C 196.542969 700.542969 193.890625 704.042969 196.960938 708.457031 C 197.4375 707.589844 197.816406 706.675781 198.097656 705.722656 C 198.378906 704.769531 198.554688 703.800781 198.625 702.808594 C 198.695312 701.820312 198.660156 700.832031 198.515625 699.847656 C 198.371094 698.867188 198.125 697.910156 197.777344 696.980469 Z M 197.777344 696.980469 " fill-opacity="1" fill-rule="nonzero"/><path fill="#fafafa" d="M 141.171875 514.871094 C 137.722656 509.375 138.140625 504.03125 138.519531 498.722656 C 138.941406 496.339844 139.183594 493.941406 139.246094 491.523438 C 139.238281 491.066406 139.296875 490.617188 139.414062 490.179688 C 139.535156 489.738281 139.710938 489.324219 139.949219 488.933594 C 140.183594 488.542969 140.46875 488.195312 140.804688 487.882812 C 141.136719 487.574219 141.507812 487.316406 141.914062 487.113281 C 142.324219 486.90625 142.75 486.761719 143.199219 486.675781 C 143.644531 486.589844 144.097656 486.570312 144.550781 486.613281 C 145.003906 486.652344 145.441406 486.757812 145.867188 486.921875 C 146.292969 487.089844 146.6875 487.308594 147.046875 487.585938 C 148.859375 488.839844 150.347656 490.402344 151.511719 492.273438 C 152.679688 494.144531 153.425781 496.171875 153.75 498.347656 C 154.167969 501.355469 154.195312 504.363281 153.835938 507.375 C 153.476562 510.386719 152.742188 513.300781 151.636719 516.125 C 150.085938 520.417969 146.757812 521.203125 143.65625 517.941406 C 142.578125 516.8125 141.683594 515.507812 141.171875 514.871094 Z M 146.269531 502.980469 C 146.007812 502.921875 145.882812 502.851562 145.800781 502.886719 C 145.6875 502.941406 145.621094 503.027344 145.601562 503.148438 C 145.648438 504.226562 145.710938 505.296875 145.773438 506.375 L 146.386719 506.3125 C 146.355469 505.1875 146.316406 504.066406 146.277344 502.980469 Z M 146.269531 502.980469 " fill-opacity="1" fill-rule="nonzero"/><path fill="#fafafa" d="M 127.925781 761.902344 C 127.351562 762.347656 126.707031 762.621094 125.984375 762.714844 C 125.265625 762.8125 124.570312 762.71875 123.902344 762.4375 C 123.234375 762.15625 122.679688 761.726562 122.246094 761.144531 C 121.808594 760.5625 121.550781 759.914062 121.472656 759.191406 C 121.285156 757.742188 121.320312 756.300781 121.582031 754.867188 C 121.84375 753.429688 122.320312 752.070312 123.003906 750.78125 C 124.011719 748.246094 125.34375 745.894531 126.996094 743.722656 C 128.652344 741.554688 130.566406 739.648438 132.746094 738.003906 C 136.066406 735.636719 139.753906 734.261719 143.8125 733.875 C 147.226562 733.484375 149.082031 736.222656 147.765625 739.609375 C 146.722656 742.179688 145.519531 744.675781 144.152344 747.089844 C 142.769531 749.539062 140.886719 751.507812 138.503906 753 C 135.121094 755.511719 131.898438 758.214844 128.84375 761.109375 C 128.476562 761.410156 128.117188 761.726562 127.925781 761.902344 Z M 138.667969 742.800781 C 134.820312 744.226562 131.789062 746.386719 130.980469 750.589844 C 132.652344 749.746094 134.144531 748.65625 135.460938 747.324219 C 136.777344 745.992188 137.847656 744.484375 138.667969 742.800781 Z M 138.667969 742.800781 " fill-opacity="1" fill-rule="nonzero"/><path fill="#fafafa" d="M 211.453125 664.464844 C 209.070312 667.183594 206.257812 669.339844 203.015625 670.9375 C 198.214844 672.898438 193.4375 674.925781 188.570312 676.714844 C 186.644531 677.445312 184.652344 677.808594 182.59375 677.804688 C 181.835938 677.773438 181.105469 677.609375 180.410156 677.304688 C 179.710938 677.003906 179.09375 676.582031 178.554688 676.050781 C 178.324219 675.726562 178.152344 675.371094 178.042969 674.988281 C 177.933594 674.605469 177.890625 674.214844 177.914062 673.816406 C 177.9375 673.417969 178.03125 673.035156 178.1875 672.667969 C 178.34375 672.300781 178.554688 671.972656 178.828125 671.675781 C 179.96875 670.117188 181.054688 668.519531 182.136719 666.917969 C 182.535156 666.238281 183.007812 665.613281 183.558594 665.050781 C 184.105469 664.484375 184.714844 663.996094 185.386719 663.578125 C 186.054688 663.164062 186.761719 662.835938 187.511719 662.59375 C 188.261719 662.351562 189.03125 662.203125 189.816406 662.148438 C 190.777344 662.003906 191.699219 661.71875 192.574219 661.292969 C 196.523438 659.785156 200.613281 658.996094 204.84375 658.929688 C 209.457031 658.816406 210.183594 659.53125 211.453125 664.464844 Z M 193.828125 666.917969 C 189.296875 666.179688 188.59375 666.597656 187.59375 670.128906 C 190.007812 670.050781 191.3125 668.21875 193.828125 666.917969 Z M 193.828125 666.917969 " fill-opacity="1" fill-rule="nonzero"/><path fill="#fafafa" d="M 161.765625 750.867188 C 160.417969 748.519531 159.402344 746.035156 158.722656 743.417969 C 158.039062 740.796875 157.714844 738.132812 157.746094 735.429688 C 157.832031 732.296875 158.207031 729.199219 158.863281 726.132812 C 159.3125 724.140625 160.089844 722.289062 161.199219 720.574219 C 161.414062 720.160156 161.722656 719.835938 162.125 719.605469 C 162.53125 719.371094 162.964844 719.265625 163.429688 719.289062 C 163.894531 719.3125 164.316406 719.460938 164.699219 719.730469 C 165.078125 720 165.351562 720.351562 165.527344 720.785156 C 166.066406 721.738281 166.414062 722.753906 166.574219 723.835938 C 167.707031 730.109375 168.886719 736.375 169.804688 742.679688 C 170.109375 745.441406 170.199219 748.207031 170.082031 750.980469 C 170.097656 751.632812 169.941406 752.238281 169.609375 752.796875 C 169.28125 753.355469 168.824219 753.785156 168.246094 754.082031 C 167.667969 754.378906 167.050781 754.496094 166.40625 754.441406 C 165.757812 754.382812 165.175781 754.15625 164.65625 753.761719 C 163.597656 752.890625 162.636719 751.925781 161.765625 750.867188 Z M 161.765625 750.867188 " fill-opacity="1" fill-rule="nonzero"/><path fill="#fafafa" d="M 175.140625 683.898438 C 175.859375 685.210938 176.265625 686.613281 176.363281 688.105469 C 176.457031 689.597656 176.234375 691.042969 175.695312 692.4375 C 174.949219 694.5625 174.324219 696.71875 173.816406 698.910156 C 172.660156 702.3125 171.363281 705.675781 170.101562 709.042969 C 169.933594 709.53125 169.695312 709.984375 169.390625 710.402344 C 169.085938 710.816406 168.722656 711.175781 168.304688 711.484375 C 167.890625 711.789062 167.4375 712.023438 166.949219 712.191406 C 166.460938 712.355469 165.957031 712.445312 165.441406 712.460938 C 164.980469 712.433594 164.539062 712.332031 164.113281 712.164062 C 163.683594 711.992188 163.296875 711.757812 162.945312 711.457031 C 162.59375 711.160156 162.300781 710.816406 162.0625 710.421875 C 161.824219 710.027344 161.65625 709.605469 161.554688 709.160156 C 160.988281 707.433594 160.699219 705.660156 160.6875 703.84375 C 160.660156 701.9375 160.832031 700.050781 161.199219 698.179688 C 161.5625 696.3125 162.117188 694.5 162.859375 692.742188 C 163.597656 690.988281 164.511719 689.328125 165.59375 687.757812 C 166.679688 686.191406 167.914062 684.753906 169.296875 683.441406 C 169.636719 682.941406 170.078125 682.554688 170.625 682.292969 C 171.171875 682.027344 171.746094 681.921875 172.351562 681.96875 C 172.953125 682.015625 173.507812 682.210938 174.003906 682.554688 C 174.503906 682.898438 174.882812 683.347656 175.140625 683.898438 Z M 168.273438 697.195312 L 167.542969 696.898438 L 167.195312 698.5625 L 167.738281 698.710938 Z M 168.273438 697.195312 " fill-opacity="1" fill-rule="nonzero"/><path fill="#fafafa" d="M 106.042969 649.363281 C 105.84375 649.503906 105.65625 649.652344 105.449219 649.78125 C 100.957031 652.597656 98.667969 652.355469 94.867188 648.773438 C 94.574219 648.558594 94.332031 648.296875 94.136719 647.988281 C 93.945312 647.679688 93.816406 647.347656 93.75 646.992188 C 93.6875 646.632812 93.691406 646.277344 93.765625 645.921875 C 93.839844 645.5625 93.976562 645.234375 94.175781 644.929688 C 94.828125 643.65625 95.292969 642.316406 95.574219 640.914062 C 95.714844 640.316406 95.90625 639.738281 96.148438 639.171875 C 96.390625 638.609375 96.679688 638.070312 97.015625 637.558594 C 97.351562 637.042969 97.730469 636.5625 98.148438 636.113281 C 98.566406 635.667969 99.023438 635.257812 99.511719 634.886719 C 100.003906 634.519531 100.519531 634.195312 101.066406 633.914062 C 101.613281 633.636719 102.179688 633.40625 102.765625 633.222656 C 103.351562 633.042969 103.949219 632.910156 104.558594 632.832031 C 105.167969 632.753906 105.777344 632.730469 106.390625 632.757812 C 109.609375 633.109375 112.828125 633.589844 116.003906 634.234375 C 117.054688 634.566406 117.933594 635.152344 118.644531 635.992188 C 120.101562 637.503906 120.039062 638.691406 118.4375 639.972656 C 114.386719 643.203125 110.277344 646.359375 106.1875 649.546875 Z M 106.703125 639.832031 L 106.136719 639.15625 C 104.710938 639.265625 104.167969 640.144531 103.964844 642.230469 Z M 106.703125 639.832031 " fill-opacity="1" fill-rule="nonzero"/><path fill="#fafafa" d="M 75.992188 670.933594 C 78.628906 674.390625 80.78125 678.125 82.457031 682.136719 C 84.128906 686.152344 85.261719 690.3125 85.863281 694.617188 C 85.4375 694.949219 84.976562 695.21875 84.476562 695.421875 C 83.976562 695.628906 83.457031 695.757812 82.921875 695.816406 C 82.382812 695.875 81.847656 695.859375 81.316406 695.765625 C 80.785156 695.675781 80.277344 695.511719 79.789062 695.277344 C 77.308594 694.375 74.878906 693.34375 72.503906 692.183594 C 70.410156 690.953125 68.75 689.292969 67.53125 687.191406 C 66.996094 685.3125 67.054688 683.449219 67.714844 681.605469 C 68.535156 678.097656 69.535156 674.5625 72.796875 672.375 C 73.820312 671.804688 74.886719 671.324219 75.992188 670.933594 Z M 76.789062 686.34375 L 75.589844 682.882812 C 74.054688 684.75 74.425781 685.539062 76.789062 686.34375 Z M 76.789062 686.34375 " fill-opacity="1" fill-rule="nonzero"/><path fill="#fafafa" d="M 201.566406 539.289062 C 199.90625 540.019531 198.28125 540.832031 196.578125 541.4375 C 195.992188 541.71875 195.371094 541.828125 194.722656 541.769531 C 194.074219 541.707031 193.488281 541.484375 192.960938 541.097656 C 192.4375 540.714844 192.046875 540.222656 191.796875 539.621094 C 191.542969 539.019531 191.460938 538.398438 191.554688 537.75 C 191.914062 534.5 192.757812 531.378906 194.085938 528.390625 C 196.210938 524.128906 200.53125 522.773438 204.988281 522.320312 C 207.039062 522.269531 209.089844 522.339844 211.132812 522.539062 C 211.5 522.542969 211.855469 522.601562 212.203125 522.71875 C 212.550781 522.835938 212.871094 523 213.164062 523.214844 C 213.457031 523.433594 213.714844 523.6875 213.929688 523.984375 C 214.140625 524.28125 214.304688 524.601562 214.421875 524.949219 C 215.019531 526.285156 214.332031 527.242188 213.414062 528.144531 C 209.554688 531.9375 205.703125 535.742188 201.859375 539.558594 Z M 204.660156 528.824219 C 200.359375 528.4375 199.613281 529.238281 199.921875 533.34375 Z M 204.660156 528.824219 " fill-opacity="1" fill-rule="nonzero"/><path fill="#fafafa" d="M 131.109375 534.175781 C 129.738281 534.488281 128.351562 534.707031 126.949219 534.824219 C 121.84375 534.664062 116.964844 533.542969 112.304688 531.453125 C 108.46875 530.066406 107.988281 526.429688 111.15625 523.839844 C 112.652344 522.613281 114.289062 521.609375 116.058594 520.824219 C 116.695312 520.613281 117.34375 520.449219 118.003906 520.339844 C 118.667969 520.230469 119.335938 520.171875 120.007812 520.167969 C 120.675781 520.164062 121.34375 520.214844 122.007812 520.316406 C 122.671875 520.421875 123.324219 520.574219 123.960938 520.78125 C 124.601562 520.988281 125.21875 521.246094 125.816406 521.550781 C 126.414062 521.859375 126.984375 522.210938 127.527344 522.605469 C 128.066406 523.003906 128.574219 523.441406 129.046875 523.917969 C 129.515625 524.394531 129.949219 524.90625 130.339844 525.453125 C 130.917969 526.335938 131.609375 527.113281 132.421875 527.785156 C 134.917969 529.929688 134.726562 532.105469 131.109375 534.175781 Z M 118.535156 526.464844 C 120.171875 528.597656 120.511719 528.691406 123.511719 528.03125 Z M 118.535156 526.464844 " fill-opacity="1" fill-rule="nonzero"/><g clip-path="url(#18f9433119)"><path fill="#fafafa" d="M 169.605469 491.753906 C 168.808594 490.246094 168.261719 488.921875 167.480469 487.761719 C 167.148438 487.273438 166.871094 486.761719 166.640625 486.21875 C 166.414062 485.679688 166.238281 485.121094 166.117188 484.546875 C 165.996094 483.972656 165.933594 483.394531 165.925781 482.804688 C 165.917969 482.21875 165.96875 481.636719 166.074219 481.058594 C 166.179688 480.484375 166.339844 479.921875 166.554688 479.375 C 166.769531 478.828125 167.035156 478.308594 167.351562 477.816406 C 167.667969 477.320312 168.03125 476.863281 168.4375 476.4375 C 168.839844 476.015625 169.285156 475.632812 169.765625 475.296875 C 170.871094 474.546875 172.054688 473.941406 173.3125 473.484375 C 175.054688 472.835938 176.675781 472.363281 176.65625 469.917969 C 176.65625 468.703125 177.949219 468.316406 179.144531 468.339844 C 179.695312 468.347656 180.230469 468.445312 180.746094 468.640625 C 181.261719 468.835938 181.730469 469.113281 182.148438 469.472656 C 182.566406 469.832031 182.910156 470.253906 183.179688 470.734375 C 183.449219 471.21875 183.628906 471.730469 183.714844 472.273438 C 183.996094 473.839844 183.929688 475.390625 183.507812 476.921875 C 182.746094 479.558594 181.609375 482.019531 180.101562 484.3125 C 178.59375 486.601562 176.78125 488.621094 174.660156 490.359375 C 174.003906 491.027344 173.222656 491.484375 172.320312 491.734375 C 171.417969 491.980469 170.511719 491.988281 169.605469 491.753906 Z M 172.566406 483.414062 L 173.515625 483.898438 L 176.097656 479.257812 C 174.113281 480.132812 172.453125 481.183594 172.566406 483.414062 Z M 172.566406 483.414062 " fill-opacity="1" fill-rule="nonzero"/></g><path fill="#fafafa" d="M 224.375 574.929688 C 220.988281 575.835938 217.085938 577.070312 213.105469 577.847656 C 211.289062 578.097656 209.519531 577.910156 207.792969 577.285156 C 207.464844 577.222656 207.148438 577.109375 206.847656 576.953125 C 206.550781 576.792969 206.28125 576.59375 206.042969 576.355469 C 205.804688 576.117188 205.605469 575.847656 205.449219 575.550781 C 205.289062 575.25 205.179688 574.933594 205.117188 574.605469 C 205.050781 574.273438 205.039062 573.9375 205.074219 573.601562 C 205.113281 573.265625 205.199219 572.941406 205.332031 572.632812 C 205.464844 572.324219 205.640625 572.039062 205.859375 571.78125 C 206.078125 571.523438 206.332031 571.304688 206.617188 571.125 C 208.472656 569.421875 210.363281 567.75 212.351562 566.210938 C 213.582031 565.386719 214.90625 564.753906 216.316406 564.3125 C 217.730469 563.871094 219.175781 563.636719 220.65625 563.609375 C 222.132812 563.582031 223.585938 563.765625 225.015625 564.160156 C 226.441406 564.550781 227.785156 565.136719 229.042969 565.914062 C 229.222656 566.027344 229.386719 566.15625 229.539062 566.304688 C 229.6875 566.453125 229.820312 566.621094 229.929688 566.800781 C 230.042969 566.980469 230.128906 567.171875 230.195312 567.371094 C 230.261719 567.574219 230.304688 567.777344 230.324219 567.988281 C 230.339844 568.199219 230.335938 568.410156 230.300781 568.621094 C 230.269531 568.828125 230.214844 569.03125 230.136719 569.226562 C 230.054688 569.425781 229.953125 569.609375 229.832031 569.78125 C 229.710938 569.953125 229.566406 570.109375 229.410156 570.25 C 228.054688 571.765625 226.433594 573.042969 224.375 574.929688 Z M 219.132812 570.246094 L 218.722656 569.09375 L 215.476562 570.6875 L 215.796875 571.441406 Z M 219.132812 570.246094 " fill-opacity="1" fill-rule="nonzero"/><path fill="#fafafa" d="M 47.328125 723.28125 C 49.558594 722.988281 51.800781 722.871094 54.050781 722.929688 C 56.675781 723.324219 59.277344 723.847656 61.851562 724.507812 C 63.101562 724.785156 64.261719 725.269531 65.339844 725.960938 C 66.417969 726.652344 67.347656 727.503906 68.125 728.519531 C 68.414062 728.785156 68.644531 729.097656 68.816406 729.453125 C 68.988281 729.808594 69.085938 730.183594 69.113281 730.574219 C 69.136719 730.96875 69.089844 731.351562 68.96875 731.726562 C 68.847656 732.101562 68.660156 732.441406 68.40625 732.746094 C 65.878906 736.558594 63.90625 737.328125 59.601562 735.613281 C 55.90625 734.144531 52.246094 732.589844 48.585938 731.03125 C 47.6875 730.679688 46.847656 730.222656 46.058594 729.664062 C 43.175781 727.480469 43.273438 725.738281 47.328125 723.28125 Z M 47.328125 723.28125 " fill-opacity="1" fill-rule="nonzero"/><path fill="#fafafa" d="M 112.816406 544.789062 C 114.859375 544.371094 117.40625 543.769531 119.988281 543.363281 C 120.15625 543.320312 120.324219 543.296875 120.492188 543.296875 C 120.664062 543.296875 120.832031 543.320312 120.996094 543.363281 C 121.164062 543.402344 121.320312 543.46875 121.46875 543.550781 C 121.617188 543.632812 121.753906 543.734375 121.878906 543.851562 C 122.003906 543.96875 122.109375 544.101562 122.199219 544.246094 C 122.289062 544.394531 122.359375 544.546875 122.40625 544.710938 C 122.457031 544.875 122.488281 545.039062 122.496094 545.210938 C 122.503906 545.382812 122.488281 545.550781 122.453125 545.71875 C 122.363281 547.394531 122.058594 549.03125 121.535156 550.628906 C 120.335938 554.042969 118.796875 557.339844 117.648438 560.765625 C 117.515625 561.167969 117.328125 561.542969 117.089844 561.894531 C 116.851562 562.242188 116.570312 562.550781 116.242188 562.820312 C 115.917969 563.089844 115.558594 563.308594 115.171875 563.476562 C 114.78125 563.644531 114.378906 563.753906 113.957031 563.808594 C 113.542969 563.902344 113.117188 563.933594 112.691406 563.894531 C 112.265625 563.855469 111.855469 563.75 111.460938 563.582031 C 111.070312 563.410156 110.710938 563.183594 110.390625 562.898438 C 110.070312 562.613281 109.804688 562.289062 109.585938 561.917969 C 108.929688 560.792969 108.441406 559.597656 108.128906 558.332031 C 107.8125 557.070312 107.683594 555.785156 107.738281 554.484375 C 107.792969 553.179688 108.027344 551.914062 108.445312 550.679688 C 108.867188 549.445312 109.449219 548.296875 110.199219 547.230469 C 111.027344 546.371094 111.902344 545.554688 112.816406 544.789062 Z M 112.816406 544.789062 " fill-opacity="1" fill-rule="nonzero"/><path fill="#fafafa" d="M 177.9375 509.820312 C 178.246094 511.753906 178.273438 513.6875 178.023438 515.628906 C 176.578125 520.601562 174.890625 525.519531 172.976562 530.328125 C 172.714844 530.960938 172.308594 531.480469 171.753906 531.886719 C 171.195312 532.289062 170.578125 532.515625 169.890625 532.566406 C 169.207031 532.621094 168.558594 532.488281 167.949219 532.171875 C 167.339844 531.855469 166.859375 531.402344 166.507812 530.8125 C 165.792969 529.96875 165.324219 529.003906 165.105469 527.917969 C 164.890625 526.832031 164.945312 525.761719 165.277344 524.703125 C 166.882812 520.285156 168.238281 515.777344 169.765625 511.332031 C 170.761719 508.417969 171.628906 507.808594 174.582031 508.21875 C 175.773438 508.597656 176.894531 509.132812 177.9375 509.820312 Z M 177.9375 509.820312 " fill-opacity="1" fill-rule="nonzero"/><path fill="#fafafa" d="M 108.902344 576.972656 C 111.019531 576.621094 113.152344 576.429688 115.300781 576.40625 C 116.9375 576.589844 118.507812 577.011719 120.015625 577.675781 C 121.523438 578.335938 122.898438 579.210938 124.136719 580.292969 C 124.464844 580.464844 124.75 580.691406 125 580.960938 C 125.25 581.234375 125.445312 581.539062 125.589844 581.878906 C 125.738281 582.21875 125.820312 582.574219 125.847656 582.941406 C 125.871094 583.308594 125.835938 583.671875 125.734375 584.027344 C 125.164062 585.605469 124.574219 587.183594 122.527344 587.570312 C 117.699219 588.480469 112.914062 588.300781 108.167969 587.03125 C 107.878906 586.992188 107.59375 586.914062 107.324219 586.804688 C 107.050781 586.691406 106.796875 586.546875 106.5625 586.375 C 106.324219 586.199219 106.113281 585.996094 105.929688 585.769531 C 105.742188 585.539062 105.589844 585.292969 105.464844 585.027344 C 105.339844 584.757812 105.253906 584.480469 105.199219 584.191406 C 105.144531 583.902344 105.128906 583.613281 105.148438 583.316406 C 105.167969 583.023438 105.222656 582.738281 105.3125 582.457031 C 105.40625 582.179688 105.527344 581.914062 105.6875 581.667969 C 106.617188 580.003906 107.6875 578.441406 108.902344 576.972656 Z M 108.902344 576.972656 " fill-opacity="1" fill-rule="nonzero"/><g clip-path="url(#80b9009956)"><path fill="#fafafa" d="M 56.277344 776.566406 C 56.386719 777.492188 56.394531 778.417969 56.292969 779.34375 C 56.195312 780.269531 55.996094 781.171875 55.695312 782.054688 C 55.390625 782.933594 54.996094 783.769531 54.503906 784.5625 C 54.015625 785.355469 53.441406 786.082031 52.789062 786.742188 C 52.03125 787.679688 51.363281 788.675781 50.785156 789.734375 C 50.601562 790.035156 50.390625 790.316406 50.148438 790.574219 C 49.902344 790.828125 49.636719 791.054688 49.34375 791.253906 C 49.050781 791.453125 48.738281 791.617188 48.410156 791.75 C 48.082031 791.878906 47.742188 791.976562 47.394531 792.03125 C 47.046875 792.089844 46.695312 792.109375 46.339844 792.089844 C 45.988281 792.074219 45.640625 792.015625 45.300781 791.921875 C 44.960938 791.828125 44.632812 791.699219 44.320312 791.535156 C 44.007812 791.371094 43.714844 791.175781 43.445312 790.949219 C 42.609375 790.082031 42.179688 789.046875 42.152344 787.839844 C 42.171875 787.121094 42.246094 786.410156 42.375 785.699219 C 42.503906 784.992188 42.6875 784.300781 42.921875 783.617188 C 43.15625 782.9375 43.441406 782.28125 43.777344 781.644531 C 44.113281 781.007812 44.496094 780.402344 44.925781 779.824219 C 45.351562 779.246094 45.824219 778.703125 46.332031 778.195312 C 46.84375 777.691406 47.390625 777.226562 47.972656 776.804688 C 48.558594 776.382812 49.167969 776.007812 49.808594 775.675781 C 50.449219 775.347656 51.109375 775.070312 51.792969 774.84375 C 53.820312 774.214844 54.863281 775.652344 56.277344 776.566406 Z M 56.277344 776.566406 " fill-opacity="1" fill-rule="nonzero"/></g><g clip-path="url(#4bf73bbe10)"><g transform="matrix(1, 0, 0, 1, 15, 9)"><g clip-path="url(#191c74ff90)"><path fill="#fafafa" d="M 164.929688 12.371094 C 165.375 14.730469 165.640625 17.109375 165.722656 19.507812 C 165.65625 22.589844 164.917969 25.660156 164.652344 28.738281 C 163.996094 33.210938 162.496094 37.382812 160.15625 41.253906 C 156.042969 49.144531 151.171875 56.515625 141.878906 59.285156 C 140.378906 59.734375 138.910156 60.3125 137.453125 60.898438 C 136.804688 61.222656 136.125 61.445312 135.410156 61.566406 C 134.695312 61.691406 133.976562 61.707031 133.257812 61.617188 C 132.535156 61.527344 131.84375 61.335938 131.183594 61.042969 C 130.519531 60.75 129.910156 60.367188 129.363281 59.894531 C 128.863281 59.574219 128.429688 59.1875 128.050781 58.734375 C 127.675781 58.277344 127.378906 57.777344 127.160156 57.226562 C 126.941406 56.679688 126.816406 56.109375 126.777344 55.519531 C 126.738281 54.929688 126.789062 54.351562 126.933594 53.777344 C 128.890625 46.933594 131.578125 40.390625 134.996094 34.148438 C 137.617188 28.902344 141.84375 24.898438 145.390625 20.355469 C 148.832031 15.953125 153.617188 13.359375 157.621094 9.75 C 159.726562 7.855469 162.695312 8.792969 164.929688 12.371094 Z M 157.035156 18.320312 C 146.722656 22.992188 135.089844 45.394531 135.328125 52.492188 C 149.996094 50.492188 160.046875 30.433594 157.035156 18.320312 Z M 157.035156 18.320312 " fill-opacity="1" fill-rule="nonzero"/><path fill="#fafafa" d="M 3.6875 178.945312 C 3.125 178.359375 2.660156 177.703125 2.300781 176.972656 C 1.941406 176.242188 1.699219 175.476562 1.578125 174.671875 C 1.457031 173.867188 1.460938 173.0625 1.589844 172.257812 C 1.714844 171.453125 1.964844 170.6875 2.332031 169.960938 C 3.949219 165.921875 5.1875 161.703125 7.109375 157.816406 C 8.386719 155.179688 10.144531 152.914062 12.375 151.015625 C 15.847656 148.175781 19.570312 145.71875 23.546875 143.648438 C 28.179688 141.246094 33.019531 142.226562 37.523438 144.445312 C 37.765625 144.550781 37.996094 144.675781 38.210938 144.824219 C 38.425781 144.976562 38.625 145.144531 38.808594 145.335938 C 38.988281 145.527344 39.148438 145.734375 39.289062 145.957031 C 39.425781 146.179688 39.542969 146.414062 39.632812 146.660156 C 39.722656 146.90625 39.789062 147.160156 39.828125 147.421875 C 39.867188 147.679688 39.878906 147.941406 39.867188 148.203125 C 39.851562 148.46875 39.8125 148.726562 39.742188 148.980469 C 39.675781 149.234375 39.585938 149.480469 39.46875 149.714844 C 37.300781 154.511719 36.417969 159.976562 32.316406 163.800781 C 31.773438 164.457031 31.347656 165.183594 31.03125 165.972656 C 29.964844 168.21875 28.523438 170.191406 26.703125 171.886719 C 24.882812 173.582031 22.816406 174.882812 20.5 175.789062 C 17.421875 176.960938 14.398438 178.296875 11.242188 179.371094 C 8.390625 180.351562 6.039062 179.082031 3.6875 178.945312 Z M 12.289062 170.707031 C 20.546875 171.875 28.578125 158.828125 29.4375 151.507812 C 23.367188 151.617188 12.292969 162.257812 12.289062 170.703125 Z M 12.289062 170.707031 " fill-opacity="1" fill-rule="nonzero"/><path fill="#fafafa" d="M 90.316406 175.640625 C 89.3125 173.605469 87.976562 171.285156 87 168.824219 C 86.023438 166.472656 85.375 164.035156 85.042969 161.515625 C 84.714844 158.992188 84.71875 156.46875 85.054688 153.949219 C 85.136719 153.226562 85.40625 152.589844 85.867188 152.03125 C 86.332031 151.472656 86.910156 151.085938 87.601562 150.875 C 88.472656 150.5 89.375 150.246094 90.3125 150.117188 C 91.253906 149.992188 92.191406 149.992188 93.128906 150.125 C 94.070312 150.257812 94.972656 150.511719 95.839844 150.894531 C 96.707031 151.273438 97.507812 151.765625 98.238281 152.367188 C 99.925781 153.390625 101.511719 154.550781 103 155.84375 C 104.488281 157.140625 105.855469 158.554688 107.101562 160.082031 C 108.347656 161.613281 109.453125 163.238281 110.421875 164.957031 C 111.386719 166.675781 112.203125 168.464844 112.863281 170.324219 C 114.640625 175.789062 116.277344 181.414062 114.765625 187.378906 C 114.730469 187.632812 114.675781 187.882812 114.605469 188.128906 C 114.535156 188.375 114.453125 188.617188 114.351562 188.851562 C 114.253906 189.089844 114.136719 189.316406 114.007812 189.539062 C 113.878906 189.761719 113.738281 189.976562 113.582031 190.179688 C 113.425781 190.382812 113.257812 190.574219 113.078125 190.757812 C 112.898438 190.941406 112.707031 191.113281 112.507812 191.269531 C 112.304688 191.429688 112.09375 191.574219 111.875 191.707031 C 111.65625 191.839844 111.429688 191.957031 111.195312 192.0625 C 110.960938 192.164062 110.71875 192.253906 110.472656 192.328125 C 110.226562 192.402344 109.976562 192.457031 109.726562 192.5 C 109.472656 192.542969 109.21875 192.570312 108.960938 192.578125 C 108.703125 192.589844 108.449219 192.582031 108.195312 192.558594 C 107.9375 192.539062 107.683594 192.5 107.433594 192.445312 C 107.183594 192.390625 106.9375 192.320312 106.695312 192.238281 C 106.453125 192.152344 106.21875 192.050781 105.988281 191.9375 C 105.757812 191.820312 105.539062 191.691406 105.324219 191.550781 C 102.230469 189.527344 99.414062 187.171875 96.878906 184.484375 C 94.339844 181.792969 92.152344 178.847656 90.316406 175.640625 Z M 93.957031 160.125 C 93.183594 166.824219 100.292969 180.605469 106.121094 183.699219 C 108.488281 175.34375 101.695312 162.1875 93.96875 160.125 Z M 93.957031 160.125 " fill-opacity="1" fill-rule="nonzero"/><path fill="#fafafa" d="M 118.703125 109.910156 C 122.160156 108.835938 125.484375 107.777344 128.820312 106.777344 C 130.082031 106.402344 131.429688 106.277344 132.65625 105.808594 C 133.085938 105.660156 133.527344 105.574219 133.980469 105.554688 C 134.433594 105.535156 134.882812 105.578125 135.320312 105.6875 C 135.761719 105.792969 136.179688 105.960938 136.570312 106.1875 C 136.964844 106.414062 137.316406 106.691406 137.628906 107.019531 C 137.96875 107.28125 138.25 107.59375 138.480469 107.949219 C 138.710938 108.308594 138.875 108.695312 138.972656 109.113281 C 139.070312 109.527344 139.09375 109.949219 139.046875 110.371094 C 139 110.796875 138.882812 111.199219 138.695312 111.582031 C 136.914062 117.433594 134.152344 122.78125 130.421875 127.625 C 127.453125 131.316406 124.144531 134.667969 120.488281 137.675781 C 117.730469 139.851562 114.777344 141.714844 111.628906 143.261719 C 111.3125 143.429688 110.980469 143.554688 110.632812 143.640625 C 110.289062 143.726562 109.9375 143.769531 109.578125 143.769531 C 109.222656 143.769531 108.871094 143.726562 108.527344 143.640625 C 108.179688 143.554688 107.847656 143.429688 107.53125 143.265625 C 107.214844 143.101562 106.925781 142.898438 106.65625 142.664062 C 106.390625 142.429688 106.15625 142.164062 105.953125 141.871094 C 105.75 141.578125 105.582031 141.265625 105.457031 140.933594 C 105.328125 140.597656 105.242188 140.253906 105.199219 139.902344 C 105 138.609375 104.925781 137.308594 104.972656 136.003906 C 104.972656 133.710938 105.121094 131.414062 105.046875 129.128906 C 104.96875 128.09375 105.082031 127.085938 105.386719 126.09375 C 105.691406 125.105469 106.164062 124.203125 106.804688 123.390625 C 108.0625 121.800781 108.8125 119.78125 110.171875 118.308594 C 112.851562 115.402344 115.800781 112.738281 118.703125 109.910156 Z M 112.957031 132.441406 C 119.300781 130.042969 126.921875 120.738281 127.171875 115.523438 C 121.796875 118.050781 117.097656 121.042969 114.433594 126.351562 C 113.726562 128.332031 113.238281 130.359375 112.957031 132.441406 Z M 112.957031 132.441406 " fill-opacity="1" fill-rule="nonzero"/><path fill="#fafafa" d="M 87.976562 255.515625 C 86.988281 253.882812 85.964844 252.269531 85.023438 250.613281 C 83.792969 248.265625 82.957031 245.78125 82.515625 243.167969 C 82.074219 240.554688 82.046875 237.933594 82.433594 235.3125 C 83.066406 229.933594 84.347656 224.714844 86.277344 219.652344 C 87.6875 215.621094 89.332031 214.894531 93.40625 215.863281 C 99.589844 217.367188 101.339844 219.355469 101.988281 225.664062 C 102.246094 228.175781 102.472656 230.691406 102.691406 233.207031 C 102.960938 237.609375 102.253906 241.847656 100.570312 245.921875 C 99.640625 248.40625 98.628906 250.863281 97.609375 253.308594 C 97.234375 254.199219 96.765625 255.035156 96.195312 255.816406 C 93.445312 259.582031 90.527344 259.429688 87.976562 255.515625 Z M 90.980469 247.5 C 95.976562 241.613281 97.101562 230.890625 93.339844 225.398438 C 90.613281 229.476562 90.410156 234.140625 89.972656 238.570312 C 89.691406 241.34375 88.578125 244.542969 90.980469 247.503906 Z M 90.980469 247.5 " fill-opacity="1" fill-rule="nonzero"/><path fill="#fafafa" d="M 101.675781 100.722656 C 105.152344 102.875 106.011719 104.605469 104.929688 108.621094 C 104.367188 112.105469 103.152344 115.34375 101.289062 118.335938 C 100.21875 120.214844 99.375 122.191406 98.75 124.261719 C 98.332031 125.257812 97.804688 126.195312 97.171875 127.074219 C 96.175781 128.585938 95.003906 129.941406 93.648438 131.140625 C 92.296875 132.34375 90.808594 133.351562 89.191406 134.160156 C 87.574219 134.96875 85.875 135.558594 84.105469 135.921875 C 82.332031 136.285156 80.539062 136.410156 78.734375 136.300781 C 77.984375 136.328125 77.242188 136.414062 76.507812 136.566406 C 76.070312 136.261719 75.699219 135.882812 75.402344 135.4375 C 75.105469 134.988281 74.898438 134.503906 74.78125 133.980469 C 74.667969 133.457031 74.652344 132.929688 74.734375 132.398438 C 74.816406 131.867188 74.996094 131.371094 75.265625 130.90625 C 76.019531 128.128906 76.53125 125.308594 76.804688 122.445312 C 77.035156 121.304688 77.335938 120.183594 77.707031 119.082031 C 78.082031 117.980469 78.523438 116.910156 79.035156 115.863281 C 79.542969 114.820312 80.117188 113.8125 80.757812 112.839844 C 81.398438 111.871094 82.09375 110.945312 82.851562 110.0625 C 83.609375 109.183594 84.421875 108.351562 85.285156 107.574219 C 86.152344 106.796875 87.0625 106.078125 88.015625 105.417969 C 88.972656 104.757812 89.96875 104.160156 91 103.625 C 92.035156 103.09375 93.097656 102.625 94.1875 102.230469 C 96.636719 101.480469 99.132812 100.980469 101.675781 100.722656 Z M 81.691406 129.339844 C 82.457031 129.472656 83.222656 129.5 83.996094 129.421875 C 84.769531 129.347656 85.519531 129.171875 86.246094 128.894531 C 86.96875 128.617188 87.644531 128.246094 88.269531 127.785156 C 88.894531 127.324219 89.449219 126.792969 89.929688 126.183594 C 91.519531 124.269531 92.84375 122.1875 93.894531 119.933594 C 94.949219 117.679688 95.699219 115.332031 96.148438 112.882812 C 96.285156 111.863281 96.367188 110.839844 96.390625 109.808594 C 94.464844 110.71875 92.679688 111.847656 91.027344 113.191406 C 89.375 114.535156 87.910156 116.058594 86.628906 117.761719 C 85.351562 119.460938 84.292969 121.289062 83.457031 123.25 C 82.621094 125.207031 82.03125 127.238281 81.691406 129.339844 Z M 81.691406 129.339844 " fill-opacity="1" fill-rule="nonzero"/><path fill="#fafafa" d="M 134.523438 73.867188 C 138.410156 70.679688 142.890625 70.070312 147.222656 69.039062 C 148.261719 68.78125 149.253906 68.40625 150.207031 67.921875 C 151.171875 67.410156 152.203125 67.160156 153.292969 67.167969 C 154.382812 67.175781 155.410156 67.4375 156.367188 67.960938 C 156.675781 68.40625 156.917969 68.882812 157.101562 69.394531 C 157.28125 69.902344 157.394531 70.429688 157.4375 70.96875 C 157.476562 71.507812 157.449219 72.042969 157.351562 72.574219 C 157.253906 73.105469 157.085938 73.617188 156.851562 74.105469 C 156.136719 76.074219 155.21875 77.945312 154.101562 79.714844 C 152.980469 81.488281 151.6875 83.125 150.222656 84.621094 C 148.753906 86.117188 147.144531 87.441406 145.390625 88.589844 C 143.640625 89.742188 141.789062 90.695312 139.832031 91.449219 C 135.632812 93.355469 131.273438 94.773438 126.757812 95.703125 C 125.074219 96.019531 123.433594 95.875 121.832031 95.269531 C 118.375 93.90625 117.929688 90.808594 120.484375 88.152344 C 123.03125 85.4375 125.414062 82.582031 127.632812 79.589844 C 129.367188 77.003906 131.664062 75.097656 134.523438 73.867188 Z M 146.726562 75.792969 C 139.824219 77.550781 133.183594 82.574219 131.699219 86.984375 C 140.554688 84.300781 145.308594 80.824219 146.726562 75.792969 Z M 146.726562 75.792969 " fill-opacity="1" fill-rule="nonzero"/><path fill="#fafafa" d="M 107.800781 83.898438 C 106.613281 84.6875 105.351562 85.339844 104.023438 85.855469 C 102.695312 86.371094 101.324219 86.742188 99.914062 86.964844 C 98.507812 87.1875 97.089844 87.257812 95.667969 87.179688 C 94.242188 87.097656 92.84375 86.867188 91.46875 86.484375 C 89.292969 85.863281 86.945312 85.863281 84.742188 85.316406 C 80.996094 84.386719 80.335938 82.902344 81.144531 79.222656 C 81.324219 78.175781 81.648438 77.175781 82.109375 76.222656 C 82.574219 75.265625 83.160156 74.394531 83.867188 73.601562 C 84.574219 72.8125 85.378906 72.136719 86.277344 71.570312 C 87.179688 71.007812 88.136719 70.578125 89.160156 70.285156 C 94.746094 68.375 100.210938 66.058594 105.839844 64.265625 C 108.539062 63.5625 111.28125 63.171875 114.066406 63.085938 C 114.382812 63.039062 114.699219 63.03125 115.019531 63.058594 C 115.335938 63.089844 115.644531 63.160156 115.949219 63.265625 C 116.25 63.371094 116.535156 63.511719 116.800781 63.6875 C 117.070312 63.863281 117.3125 64.066406 117.53125 64.300781 C 117.75 64.535156 117.933594 64.792969 118.089844 65.070312 C 118.246094 65.351562 118.363281 65.644531 118.449219 65.953125 C 118.53125 66.261719 118.578125 66.578125 118.585938 66.898438 C 118.59375 67.214844 118.5625 67.53125 118.492188 67.84375 C 117.453125 72.429688 116.210938 76.972656 111.90625 79.933594 C 110.402344 81.113281 109.03125 82.433594 107.800781 83.898438 Z M 110.675781 69.125 C 108.808594 67.703125 107.578125 68.859375 106.324219 69.367188 C 102.679688 70.878906 99.035156 72.414062 95.425781 74.042969 C 93.558594 74.878906 91.757812 75.839844 90.027344 76.929688 C 89.71875 77.078125 89.476562 77.296875 89.300781 77.59375 C 89.128906 77.886719 89.050781 78.203125 89.074219 78.546875 C 89.097656 78.886719 89.214844 79.195312 89.425781 79.464844 C 89.636719 79.734375 89.902344 79.921875 90.230469 80.023438 C 91.984375 80.886719 93.835938 81.359375 95.789062 81.445312 C 97.742188 81.527344 99.628906 81.21875 101.453125 80.511719 C 102.613281 79.988281 103.695312 79.335938 104.703125 78.558594 C 105.710938 77.78125 106.613281 76.898438 107.414062 75.910156 C 108.214844 74.921875 108.890625 73.855469 109.441406 72.707031 C 109.992188 71.5625 110.402344 70.367188 110.675781 69.125 Z M 110.675781 69.125 " fill-opacity="1" fill-rule="nonzero"/><path fill="#fafafa" d="M 56.316406 189.550781 C 65.429688 186.414062 74.410156 183.671875 83.839844 187.578125 C 86.242188 188.667969 88.484375 190.023438 90.558594 191.648438 C 90.773438 191.84375 90.957031 192.058594 91.121094 192.296875 C 91.28125 192.53125 91.414062 192.785156 91.515625 193.054688 C 91.617188 193.320312 91.6875 193.597656 91.726562 193.882812 C 91.761719 194.167969 91.769531 194.453125 91.738281 194.738281 C 91.710938 195.023438 91.648438 195.300781 91.554688 195.574219 C 91.457031 195.84375 91.332031 196.101562 91.179688 196.34375 C 91.023438 196.582031 90.84375 196.804688 90.636719 197.003906 C 90.429688 197.203125 90.203125 197.375 89.957031 197.523438 C 87.585938 198.988281 85.03125 200 82.300781 200.5625 C 77.1875 201.300781 72.042969 201.757812 66.878906 201.941406 C 61.972656 202.183594 57.808594 199.753906 53.710938 197.492188 C 51.792969 196.433594 51.660156 195.183594 52.980469 193.289062 C 54.015625 191.972656 55.125 190.726562 56.316406 189.550781 Z M 65.378906 193.980469 C 69.667969 196.347656 77.34375 196.015625 80.515625 193.285156 C 78.027344 192.558594 75.484375 192.25 72.890625 192.371094 C 70.296875 192.488281 67.792969 193.027344 65.378906 193.980469 Z M 65.378906 193.980469 " fill-opacity="1" fill-rule="nonzero"/><path fill="#fafafa" d="M 178.199219 37.066406 C 181.113281 34.433594 183.519531 32.28125 185.90625 30.121094 C 190.910156 25.644531 196.601562 22.359375 202.980469 20.261719 C 207.957031 18.5625 212.488281 20.207031 216.996094 21.902344 C 217.828125 22.21875 218.289062 23.515625 218.902344 24.332031 C 218.207031 26.238281 217.011719 27.75 215.320312 28.867188 C 212.476562 30.863281 209.964844 33.335938 207.308594 35.589844 C 206.785156 36.101562 206.203125 36.523438 205.550781 36.851562 C 199.863281 39.152344 194.257812 41.707031 188.417969 43.535156 C 185.339844 44.160156 182.234375 44.324219 179.109375 44.019531 C 177.566406 44.019531 174.601562 40.90625 174.738281 39.449219 C 174.929688 38.519531 175.4375 37.816406 176.257812 37.335938 C 176.882812 37.082031 177.527344 36.988281 178.199219 37.066406 Z M 187.003906 36.457031 L 187.636719 37.25 C 193.46875 36.113281 198.980469 34.097656 204.175781 31.207031 C 205.660156 30.339844 206.964844 29.261719 208.097656 27.96875 C 209.230469 26.675781 210.128906 25.238281 210.792969 23.652344 C 209.035156 23.367188 207.277344 23.378906 205.523438 23.6875 C 203.769531 23.996094 202.113281 24.582031 200.558594 25.449219 C 197.296875 27.507812 194.128906 29.746094 191.085938 32.121094 C 189.605469 33.453125 188.246094 34.898438 187.003906 36.457031 Z M 187.003906 36.457031 " fill-opacity="1" fill-rule="nonzero"/><path fill="#fafafa" d="M 60.367188 218.6875 C 61.097656 218.253906 61.691406 217.855469 62.328125 217.507812 C 62.738281 217.25 63.175781 217.046875 63.640625 216.90625 C 64.101562 216.765625 64.578125 216.6875 65.0625 216.675781 C 65.546875 216.664062 66.027344 216.71875 66.496094 216.835938 C 66.96875 216.957031 67.414062 217.132812 67.835938 217.375 C 68.257812 217.613281 68.640625 217.90625 68.984375 218.25 C 69.324219 218.59375 69.613281 218.980469 69.851562 219.402344 C 70.089844 219.824219 70.265625 220.273438 70.382812 220.746094 C 70.5 221.214844 70.550781 221.695312 70.535156 222.179688 C 70.476562 224.351562 69.9375 226.398438 68.914062 228.316406 C 67.253906 231.390625 65.40625 234.347656 63.375 237.191406 C 62.777344 238.105469 61.953125 238.71875 60.902344 239.027344 C 55.222656 240.082031 49.511719 241.011719 43.796875 241.84375 C 43.316406 241.898438 42.84375 241.878906 42.371094 241.785156 C 41.898438 241.695312 41.449219 241.539062 41.023438 241.3125 C 40.597656 241.085938 40.21875 240.804688 39.875 240.464844 C 39.535156 240.125 39.253906 239.742188 39.027344 239.316406 C 38.917969 238.878906 38.878906 238.433594 38.910156 237.984375 C 38.941406 237.53125 39.042969 237.097656 39.214844 236.679688 C 39.386719 236.261719 39.617188 235.878906 39.910156 235.535156 C 40.203125 235.191406 40.542969 234.898438 40.925781 234.664062 C 47.429688 229.308594 53.941406 223.96875 60.367188 218.6875 Z M 55.445312 232.355469 C 58.816406 232.519531 58.894531 232.453125 59.3125 229.515625 Z M 55.445312 232.355469 " fill-opacity="1" fill-rule="nonzero"/><path fill="#fafafa" d="M 41.921875 173.65625 C 42.21875 174.386719 42.519531 174.753906 42.464844 175.054688 C 41.933594 178.042969 44.164062 180.289062 44.5625 182.953125 C 44.964844 186.171875 45.097656 189.402344 44.953125 192.644531 C 44.878906 195.0625 44.570312 197.445312 44.027344 199.800781 C 43.628906 201.566406 42.96875 203.230469 42.046875 204.792969 C 41.878906 205.054688 41.6875 205.296875 41.472656 205.523438 C 41.261719 205.75 41.027344 205.953125 40.773438 206.136719 C 40.519531 206.316406 40.253906 206.472656 39.972656 206.605469 C 39.6875 206.738281 39.398438 206.839844 39.09375 206.917969 C 38.792969 206.992188 38.488281 207.039062 38.175781 207.058594 C 37.867188 207.074219 37.554688 207.066406 37.246094 207.023438 C 36.9375 206.984375 36.636719 206.914062 36.339844 206.816406 C 36.046875 206.71875 35.761719 206.59375 35.488281 206.445312 C 31.472656 204.921875 30.902344 201.34375 30.144531 198.023438 C 29.757812 196.066406 29.550781 194.085938 29.519531 192.089844 C 29.488281 190.09375 29.636719 188.113281 29.964844 186.144531 C 30.296875 184.175781 30.796875 182.25 31.472656 180.371094 C 32.152344 178.496094 32.992188 176.691406 33.992188 174.964844 C 35.484375 172.089844 37.152344 171.359375 39.519531 172.183594 C 40.382812 172.574219 41.183594 173.066406 41.921875 173.65625 Z M 41.921875 173.65625 " fill-opacity="1" fill-rule="nonzero"/><path fill="#fafafa" d="M 59.679688 172.296875 C 58.800781 172.3125 57.941406 172.191406 57.101562 171.933594 C 56.167969 171.570312 55.476562 170.941406 55.023438 170.046875 C 53.109375 164.609375 49.664062 159.636719 49.125 153.824219 C 48.910156 151.386719 49.089844 148.976562 49.660156 146.597656 C 50.234375 144.21875 51.171875 141.988281 52.472656 139.917969 C 54.542969 136.566406 57.484375 136.605469 60.070312 139.640625 C 61.503906 141.113281 62.851562 142.660156 64.105469 144.289062 C 65.433594 145.890625 66.28125 147.714844 66.65625 149.761719 C 66.898438 156.667969 66.566406 163.574219 62.328125 169.546875 C 61.894531 170.128906 61.429688 170.679688 60.929688 171.207031 C 60.691406 171.472656 60.386719 171.6875 59.679688 172.296875 Z M 57.976562 160.53125 C 60.679688 155.359375 60.488281 151.375 57.558594 148.546875 C 56.925781 150.507812 56.644531 152.515625 56.714844 154.574219 C 56.785156 156.632812 57.199219 158.621094 57.964844 160.53125 Z M 57.976562 160.53125 " fill-opacity="1" fill-rule="nonzero"/><path fill="#fafafa" d="M 31.859375 101.335938 C 30.882812 99.628906 30.167969 97.816406 29.714844 95.902344 C 29.257812 93.988281 29.085938 92.050781 29.1875 90.085938 C 29.597656 83.847656 30.542969 77.636719 34.652344 72.492188 C 35.15625 71.808594 35.757812 71.226562 36.453125 70.746094 C 39.816406 68.671875 42.226562 69.945312 42.839844 73.808594 C 43.289062 76.632812 44.277344 79.367188 44.753906 82.1875 C 45.929688 89.234375 46.039062 96.109375 41.210938 102.105469 C 40.789062 102.695312 40.40625 103.308594 40.0625 103.945312 C 39.839844 104.550781 39.46875 105.046875 38.957031 105.4375 C 38.441406 105.828125 37.859375 106.046875 37.214844 106.097656 C 36.570312 106.148438 35.964844 106.019531 35.394531 105.714844 C 34.828125 105.40625 34.386719 104.972656 34.070312 104.40625 C 33.375 103.582031 32.800781 102.652344 31.859375 101.335938 Z M 36.921875 95.539062 C 38.15625 91.976562 40.808594 88.476562 37.738281 84.058594 C 37.261719 84.929688 36.882812 85.839844 36.601562 86.792969 C 36.320312 87.746094 36.144531 88.71875 36.074219 89.710938 C 36.003906 90.699219 36.039062 91.6875 36.183594 92.667969 C 36.324219 93.652344 36.574219 94.609375 36.921875 95.539062 Z M 36.921875 95.539062 " fill-opacity="1" fill-rule="nonzero"/><path fill="#fafafa" d="M 93.527344 277.648438 C 96.976562 283.140625 96.554688 288.484375 96.179688 293.796875 C 95.757812 296.179688 95.515625 298.578125 95.453125 300.996094 C 95.457031 301.453125 95.402344 301.898438 95.28125 302.339844 C 95.164062 302.78125 94.984375 303.195312 94.75 303.585938 C 94.515625 303.972656 94.230469 304.324219 93.894531 304.632812 C 93.558594 304.941406 93.191406 305.199219 92.78125 305.40625 C 92.375 305.613281 91.949219 305.757812 91.5 305.839844 C 91.054688 305.925781 90.601562 305.949219 90.148438 305.90625 C 89.695312 305.863281 89.253906 305.761719 88.832031 305.59375 C 88.40625 305.429688 88.011719 305.210938 87.648438 304.933594 C 85.839844 303.679688 84.351562 302.117188 83.183594 300.246094 C 82.019531 298.375 81.273438 296.347656 80.945312 294.167969 C 80.53125 291.164062 80.503906 288.15625 80.863281 285.144531 C 81.222656 282.132812 81.953125 279.214844 83.0625 276.390625 C 84.613281 272.101562 87.9375 271.316406 91.039062 274.574219 C 92.117188 275.707031 93.015625 277.007812 93.527344 277.648438 Z M 88.425781 289.535156 C 88.691406 289.59375 88.816406 289.664062 88.898438 289.632812 C 89.011719 289.578125 89.074219 289.492188 89.09375 289.371094 C 89.050781 288.292969 88.984375 287.21875 88.925781 286.144531 L 88.3125 286.203125 C 88.34375 287.328125 88.382812 288.453125 88.421875 289.535156 Z M 88.425781 289.535156 " fill-opacity="1" fill-rule="nonzero"/><path fill="#fafafa" d="M 106.773438 30.617188 C 107.347656 30.167969 107.992188 29.898438 108.710938 29.800781 C 109.433594 29.707031 110.125 29.796875 110.796875 30.078125 C 111.464844 30.359375 112.015625 30.792969 112.453125 31.371094 C 112.886719 31.953125 113.144531 32.605469 113.226562 33.328125 C 113.414062 34.773438 113.375 36.214844 113.113281 37.652344 C 112.851562 39.085938 112.378906 40.449219 111.695312 41.738281 C 110.6875 44.273438 109.355469 46.625 107.699219 48.792969 C 106.046875 50.964844 104.128906 52.871094 101.953125 54.511719 C 98.632812 56.882812 94.945312 58.257812 90.886719 58.640625 C 87.472656 59.03125 85.617188 56.296875 86.933594 52.910156 C 87.972656 50.335938 89.179688 47.84375 90.546875 45.425781 C 91.929688 42.980469 93.8125 41.011719 96.195312 39.519531 C 99.578125 37.007812 102.796875 34.304688 105.855469 31.40625 C 106.222656 31.105469 106.582031 30.792969 106.773438 30.617188 Z M 96.03125 49.714844 C 99.878906 48.289062 102.910156 46.132812 103.71875 41.929688 C 102.046875 42.773438 100.554688 43.863281 99.238281 45.195312 C 97.921875 46.527344 96.851562 48.035156 96.03125 49.714844 Z M 96.03125 49.714844 " fill-opacity="1" fill-rule="nonzero"/><path fill="#fafafa" d="M 23.242188 128.050781 C 25.628906 125.335938 28.441406 123.179688 31.683594 121.578125 C 36.484375 119.621094 41.261719 117.59375 46.128906 115.804688 C 48.054688 115.074219 50.046875 114.710938 52.105469 114.714844 C 52.863281 114.746094 53.59375 114.910156 54.289062 115.214844 C 54.984375 115.515625 55.605469 115.933594 56.144531 116.46875 C 56.375 116.792969 56.546875 117.148438 56.65625 117.53125 C 56.765625 117.914062 56.808594 118.304688 56.785156 118.703125 C 56.757812 119.101562 56.667969 119.484375 56.511719 119.851562 C 56.355469 120.21875 56.140625 120.546875 55.871094 120.839844 C 54.730469 122.398438 53.644531 124 52.5625 125.601562 C 52.164062 126.28125 51.691406 126.902344 51.140625 127.46875 C 50.59375 128.035156 49.984375 128.523438 49.3125 128.941406 C 48.644531 129.355469 47.933594 129.683594 47.183594 129.925781 C 46.433594 130.167969 45.667969 130.316406 44.882812 130.371094 C 43.917969 130.515625 43 130.800781 42.125 131.222656 C 38.171875 132.734375 34.082031 133.523438 29.855469 133.589844 C 25.242188 133.703125 24.515625 132.988281 23.242188 128.050781 Z M 40.871094 125.597656 C 45.402344 126.339844 46.101562 125.917969 47.105469 122.390625 C 44.691406 122.464844 43.386719 124.300781 40.871094 125.597656 Z M 40.871094 125.597656 " fill-opacity="1" fill-rule="nonzero"/><path fill="#fafafa" d="M 72.933594 41.652344 C 74.277344 44 75.292969 46.484375 75.976562 49.101562 C 76.660156 51.722656 76.984375 54.382812 76.953125 57.089844 C 76.863281 60.222656 76.492188 63.320312 75.835938 66.386719 C 75.386719 68.375 74.605469 70.230469 73.5 71.945312 C 73.285156 72.359375 72.976562 72.679688 72.574219 72.914062 C 72.167969 73.144531 71.734375 73.25 71.269531 73.230469 C 70.800781 73.207031 70.378906 73.058594 70 72.789062 C 69.621094 72.519531 69.34375 72.167969 69.171875 71.734375 C 68.632812 70.78125 68.285156 69.765625 68.121094 68.683594 C 66.992188 62.410156 65.8125 56.144531 64.890625 49.835938 C 64.589844 47.078125 64.496094 44.308594 64.617188 41.535156 C 64.597656 40.886719 64.757812 40.28125 65.085938 39.722656 C 65.417969 39.160156 65.875 38.734375 66.453125 38.4375 C 67.03125 38.140625 67.644531 38.019531 68.292969 38.078125 C 68.941406 38.136719 69.523438 38.363281 70.042969 38.757812 C 71.097656 39.628906 72.0625 40.59375 72.933594 41.652344 Z M 72.933594 41.652344 " fill-opacity="1" fill-rule="nonzero"/><path fill="#fafafa" d="M 59.558594 108.621094 C 58.839844 107.308594 58.433594 105.90625 58.335938 104.414062 C 58.238281 102.921875 58.460938 101.476562 59.003906 100.082031 C 59.746094 97.957031 60.375 95.800781 60.882812 93.605469 C 62.039062 90.207031 63.335938 86.84375 64.597656 83.472656 C 64.765625 82.984375 65.003906 82.535156 65.308594 82.117188 C 65.613281 81.703125 65.976562 81.339844 66.390625 81.035156 C 66.808594 80.730469 67.261719 80.496094 67.75 80.328125 C 68.238281 80.160156 68.742188 80.070312 69.257812 80.058594 C 69.714844 80.085938 70.160156 80.183594 70.585938 80.355469 C 71.011719 80.527344 71.402344 80.761719 71.753906 81.058594 C 72.101562 81.355469 72.398438 81.703125 72.636719 82.097656 C 72.871094 82.488281 73.042969 82.910156 73.144531 83.359375 C 73.710938 85.085938 74 86.859375 74.011719 88.675781 C 74.039062 90.578125 73.867188 92.46875 73.5 94.335938 C 73.136719 96.207031 72.582031 98.019531 71.839844 99.773438 C 71.101562 101.53125 70.1875 103.191406 69.101562 104.757812 C 68.019531 106.324219 66.785156 107.765625 65.402344 109.074219 C 65.0625 109.578125 64.621094 109.960938 64.074219 110.226562 C 63.527344 110.488281 62.953125 110.597656 62.347656 110.550781 C 61.742188 110.503906 61.191406 110.308594 60.691406 109.964844 C 60.195312 109.617188 59.816406 109.171875 59.558594 108.621094 Z M 66.425781 95.320312 L 67.152344 95.621094 L 67.503906 93.957031 L 66.960938 93.808594 Z M 66.425781 95.320312 " fill-opacity="1" fill-rule="nonzero"/><path fill="#fafafa" d="M 128.65625 143.152344 C 128.855469 143.015625 129.042969 142.863281 129.25 142.738281 C 133.742188 139.917969 136.03125 140.164062 139.832031 143.746094 C 140.125 143.960938 140.367188 144.222656 140.558594 144.53125 C 140.753906 144.835938 140.882812 145.171875 140.945312 145.527344 C 141.011719 145.886719 141.007812 146.242188 140.933594 146.597656 C 140.859375 146.953125 140.722656 147.285156 140.523438 147.585938 C 139.871094 148.863281 139.40625 150.199219 139.125 151.605469 C 138.984375 152.199219 138.792969 152.78125 138.550781 153.34375 C 138.308594 153.910156 138.019531 154.445312 137.683594 154.960938 C 137.347656 155.472656 136.96875 155.957031 136.550781 156.402344 C 136.128906 156.851562 135.675781 157.261719 135.1875 157.628906 C 134.695312 158 134.175781 158.324219 133.632812 158.605469 C 133.085938 158.882812 132.519531 159.113281 131.933594 159.296875 C 131.347656 159.476562 130.75 159.605469 130.140625 159.683594 C 129.53125 159.761719 128.921875 159.789062 128.308594 159.757812 C 125.085938 159.40625 121.871094 158.929688 118.695312 158.28125 C 117.644531 157.953125 116.765625 157.367188 116.050781 156.527344 C 114.59375 155.015625 114.660156 153.828125 116.261719 152.546875 C 120.3125 149.316406 124.421875 146.160156 128.511719 142.96875 Z M 127.996094 152.6875 L 128.5625 153.363281 C 129.988281 153.253906 130.53125 152.375 130.734375 150.289062 Z M 127.996094 152.6875 " fill-opacity="1" fill-rule="nonzero"/><path fill="#fafafa" d="M 158.707031 121.585938 C 156.070312 118.128906 153.914062 114.394531 152.242188 110.378906 C 150.570312 106.367188 149.433594 102.207031 148.835938 97.902344 C 149.261719 97.566406 149.722656 97.296875 150.222656 97.09375 C 150.722656 96.890625 151.242188 96.757812 151.777344 96.703125 C 152.316406 96.644531 152.847656 96.660156 153.382812 96.753906 C 153.914062 96.84375 154.421875 97.007812 154.90625 97.242188 C 157.390625 98.144531 159.820312 99.175781 162.195312 100.335938 C 164.289062 101.5625 165.945312 103.226562 167.167969 105.324219 C 167.703125 107.207031 167.640625 109.070312 166.984375 110.910156 C 166.164062 114.417969 165.164062 117.957031 161.902344 120.140625 C 160.878906 120.710938 159.8125 121.195312 158.707031 121.585938 Z M 157.910156 106.175781 L 159.109375 109.632812 C 160.640625 107.769531 160.269531 106.980469 157.910156 106.175781 Z M 157.910156 106.175781 " fill-opacity="1" fill-rule="nonzero"/><path fill="#fafafa" d="M 33.132812 253.230469 C 34.792969 252.5 36.417969 251.683594 38.121094 251.082031 C 38.707031 250.800781 39.324219 250.691406 39.972656 250.75 C 40.625 250.8125 41.210938 251.035156 41.734375 251.417969 C 42.261719 251.804688 42.652344 252.296875 42.902344 252.898438 C 43.15625 253.5 43.238281 254.121094 43.144531 254.765625 C 42.785156 258.019531 41.941406 261.136719 40.613281 264.128906 C 38.488281 268.390625 34.167969 269.746094 29.710938 270.199219 C 27.65625 270.25 25.609375 270.175781 23.5625 269.980469 C 23.199219 269.976562 22.84375 269.914062 22.496094 269.800781 C 22.148438 269.683594 21.828125 269.519531 21.535156 269.300781 C 21.238281 269.085938 20.984375 268.828125 20.769531 268.535156 C 20.554688 268.238281 20.390625 267.914062 20.277344 267.570312 C 19.679688 266.234375 20.367188 265.277344 21.285156 264.375 C 25.140625 260.582031 28.992188 256.777344 32.839844 252.960938 Z M 30.035156 263.691406 C 34.339844 264.082031 35.085938 263.28125 34.777344 259.175781 Z M 30.035156 263.691406 " fill-opacity="1" fill-rule="nonzero"/><path fill="#fafafa" d="M 103.589844 258.34375 C 104.960938 258.027344 106.347656 257.8125 107.75 257.695312 C 112.855469 257.851562 117.734375 258.976562 122.394531 261.066406 C 126.230469 262.453125 126.710938 266.085938 123.542969 268.679688 C 122.042969 269.902344 120.410156 270.910156 118.640625 271.691406 C 118.003906 271.90625 117.355469 272.070312 116.691406 272.179688 C 116.03125 272.289062 115.363281 272.347656 114.691406 272.351562 C 114.019531 272.351562 113.355469 272.304688 112.691406 272.199219 C 112.027344 272.097656 111.375 271.941406 110.738281 271.734375 C 110.097656 271.527344 109.480469 271.273438 108.882812 270.964844 C 108.285156 270.660156 107.714844 270.308594 107.171875 269.914062 C 106.632812 269.515625 106.125 269.078125 105.652344 268.601562 C 105.179688 268.121094 104.75 267.609375 104.359375 267.0625 C 103.78125 266.183594 103.085938 265.40625 102.277344 264.730469 C 99.78125 262.589844 99.972656 260.414062 103.589844 258.34375 Z M 116.164062 266.054688 C 114.527344 263.921875 114.1875 263.824219 111.1875 264.488281 Z M 116.164062 266.054688 " fill-opacity="1" fill-rule="nonzero"/><g clip-path="url(#97436b9386)"><path fill="#fafafa" d="M 65.089844 300.765625 C 65.886719 302.273438 66.4375 303.597656 67.21875 304.757812 C 67.546875 305.246094 67.828125 305.757812 68.054688 306.296875 C 68.285156 306.839844 68.460938 307.394531 68.582031 307.96875 C 68.699219 308.542969 68.765625 309.125 68.773438 309.710938 C 68.78125 310.296875 68.730469 310.878906 68.625 311.457031 C 68.519531 312.035156 68.359375 312.597656 68.144531 313.144531 C 67.929688 313.6875 67.664062 314.207031 67.347656 314.703125 C 67.03125 315.199219 66.667969 315.65625 66.261719 316.082031 C 65.855469 316.503906 65.414062 316.886719 64.933594 317.222656 C 63.828125 317.972656 62.644531 318.574219 61.386719 319.03125 C 59.644531 319.679688 58.023438 320.15625 58.039062 322.601562 C 58.039062 323.816406 56.75 324.203125 55.554688 324.179688 C 55.003906 324.171875 54.46875 324.070312 53.953125 323.875 C 53.4375 323.679688 52.96875 323.402344 52.550781 323.042969 C 52.132812 322.683594 51.789062 322.265625 51.519531 321.78125 C 51.25 321.300781 51.070312 320.789062 50.984375 320.246094 C 50.699219 318.679688 50.769531 317.128906 51.1875 315.59375 C 51.953125 312.960938 53.085938 310.496094 54.597656 308.207031 C 56.105469 305.914062 57.917969 303.898438 60.039062 302.15625 C 60.695312 301.492188 61.476562 301.03125 62.378906 300.785156 C 63.28125 300.535156 64.183594 300.53125 65.089844 300.765625 Z M 62.132812 309.105469 L 61.179688 308.621094 L 58.601562 313.257812 C 60.582031 312.382812 62.246094 311.335938 62.132812 309.105469 Z M 62.132812 309.105469 " fill-opacity="1" fill-rule="nonzero"/></g><path fill="#fafafa" d="M 10.324219 217.585938 C 13.710938 216.683594 17.609375 215.445312 21.59375 214.671875 C 23.410156 214.421875 25.179688 214.609375 26.902344 215.234375 C 27.234375 215.296875 27.550781 215.40625 27.847656 215.566406 C 28.148438 215.726562 28.417969 215.921875 28.65625 216.164062 C 28.894531 216.402344 29.09375 216.671875 29.25 216.96875 C 29.410156 217.265625 29.519531 217.582031 29.582031 217.914062 C 29.644531 218.246094 29.660156 218.582031 29.621094 218.917969 C 29.585938 219.253906 29.5 219.574219 29.367188 219.886719 C 29.234375 220.195312 29.054688 220.480469 28.835938 220.738281 C 28.617188 220.992188 28.367188 221.214844 28.082031 221.394531 C 26.226562 223.09375 24.335938 224.769531 22.34375 226.308594 C 21.113281 227.132812 19.792969 227.765625 18.382812 228.207031 C 16.96875 228.648438 15.523438 228.882812 14.042969 228.910156 C 12.5625 228.933594 11.109375 228.753906 9.683594 228.359375 C 8.257812 227.96875 6.914062 227.382812 5.65625 226.601562 C 5.476562 226.492188 5.3125 226.363281 5.160156 226.210938 C 5.011719 226.0625 4.878906 225.898438 4.769531 225.71875 C 4.65625 225.539062 4.566406 225.347656 4.5 225.148438 C 4.433594 224.945312 4.394531 224.738281 4.375 224.527344 C 4.359375 224.316406 4.363281 224.109375 4.394531 223.898438 C 4.425781 223.6875 4.484375 223.484375 4.5625 223.289062 C 4.640625 223.09375 4.742188 222.910156 4.867188 222.738281 C 4.988281 222.5625 5.128906 222.410156 5.289062 222.269531 C 6.644531 220.75 8.265625 219.476562 10.324219 217.585938 Z M 15.566406 222.273438 L 15.972656 223.421875 L 19.222656 221.828125 L 18.902344 221.078125 Z M 15.566406 222.273438 " fill-opacity="1" fill-rule="nonzero"/><path fill="#fafafa" d="M 187.371094 69.238281 C 185.140625 69.53125 182.898438 69.648438 180.648438 69.589844 C 178.019531 69.195312 175.421875 68.667969 172.847656 68.011719 C 171.597656 67.730469 170.433594 67.246094 169.355469 66.558594 C 168.277344 65.867188 167.351562 65.015625 166.574219 63.996094 C 166.28125 63.730469 166.050781 63.421875 165.882812 63.066406 C 165.710938 62.710938 165.613281 62.335938 165.585938 61.941406 C 165.558594 61.550781 165.609375 61.164062 165.730469 60.789062 C 165.851562 60.414062 166.039062 60.078125 166.292969 59.773438 C 168.816406 55.957031 170.792969 55.1875 175.097656 56.902344 C 178.789062 58.371094 182.449219 59.929688 186.109375 61.484375 C 187.007812 61.839844 187.851562 62.296875 188.640625 62.855469 C 191.523438 65.035156 191.425781 66.777344 187.371094 69.238281 Z M 187.371094 69.238281 " fill-opacity="1" fill-rule="nonzero"/><path fill="#fafafa" d="M 121.882812 247.730469 C 119.839844 248.144531 117.289062 248.75 114.710938 249.15625 C 114.542969 249.199219 114.375 249.222656 114.203125 249.222656 C 114.035156 249.222656 113.867188 249.199219 113.699219 249.15625 C 113.535156 249.113281 113.378906 249.050781 113.230469 248.96875 C 113.078125 248.882812 112.941406 248.785156 112.820312 248.664062 C 112.695312 248.546875 112.589844 248.417969 112.5 248.269531 C 112.410156 248.125 112.339844 247.972656 112.289062 247.808594 C 112.238281 247.644531 112.210938 247.476562 112.203125 247.308594 C 112.195312 247.136719 112.210938 246.96875 112.246094 246.800781 C 112.332031 245.121094 112.640625 243.484375 113.164062 241.890625 C 114.363281 238.472656 115.902344 235.179688 117.050781 231.75 C 117.183594 231.347656 117.367188 230.972656 117.605469 230.625 C 117.847656 230.277344 118.128906 229.964844 118.457031 229.695312 C 118.78125 229.429688 119.140625 229.210938 119.527344 229.042969 C 119.917969 228.875 120.320312 228.765625 120.738281 228.710938 C 121.15625 228.613281 121.578125 228.585938 122.007812 228.625 C 122.433594 228.664062 122.84375 228.769531 123.234375 228.9375 C 123.628906 229.109375 123.984375 229.335938 124.304688 229.621094 C 124.628906 229.902344 124.894531 230.230469 125.113281 230.601562 C 125.769531 231.726562 126.257812 232.917969 126.570312 234.183594 C 126.886719 235.449219 127.015625 236.734375 126.960938 238.035156 C 126.90625 239.335938 126.671875 240.605469 126.25 241.839844 C 125.832031 243.074219 125.25 244.222656 124.5 245.289062 C 123.667969 246.148438 122.796875 246.960938 121.882812 247.730469 Z M 121.882812 247.730469 " fill-opacity="1" fill-rule="nonzero"/><path fill="#fafafa" d="M 56.761719 282.699219 C 56.453125 280.765625 56.425781 278.832031 56.675781 276.890625 C 58.117188 271.917969 59.808594 267 61.722656 262.191406 C 61.984375 261.554688 62.390625 261.035156 62.945312 260.632812 C 63.5 260.230469 64.121094 260 64.808594 259.949219 C 65.492188 259.898438 66.136719 260.03125 66.746094 260.347656 C 67.359375 260.664062 67.839844 261.117188 68.191406 261.707031 C 68.90625 262.550781 69.371094 263.515625 69.589844 264.601562 C 69.808594 265.6875 69.753906 266.757812 69.417969 267.8125 C 67.816406 272.230469 66.460938 276.738281 64.933594 281.1875 C 63.933594 284.101562 63.070312 284.710938 60.117188 284.296875 C 58.925781 283.917969 57.804688 283.386719 56.761719 282.699219 Z M 56.761719 282.699219 " fill-opacity="1" fill-rule="nonzero"/><path fill="#fafafa" d="M 125.796875 215.546875 C 123.679688 215.898438 121.546875 216.085938 119.398438 216.113281 C 117.761719 215.929688 116.191406 215.507812 114.683594 214.84375 C 113.175781 214.179688 111.800781 213.308594 110.5625 212.226562 C 110.234375 212.050781 109.949219 211.828125 109.699219 211.554688 C 109.449219 211.285156 109.25 210.976562 109.105469 210.640625 C 108.960938 210.300781 108.875 209.945312 108.851562 209.578125 C 108.828125 209.207031 108.863281 208.847656 108.960938 208.492188 C 109.535156 206.914062 110.125 205.332031 112.171875 204.949219 C 117 204.039062 121.785156 204.21875 126.53125 205.488281 C 126.820312 205.527344 127.101562 205.605469 127.375 205.714844 C 127.648438 205.828125 127.902344 205.96875 128.136719 206.144531 C 128.375 206.320312 128.585938 206.523438 128.769531 206.75 C 128.957031 206.976562 129.109375 207.226562 129.234375 207.492188 C 129.355469 207.757812 129.445312 208.039062 129.5 208.328125 C 129.554688 208.617188 129.570312 208.90625 129.550781 209.199219 C 129.53125 209.492188 129.476562 209.78125 129.386719 210.058594 C 129.292969 210.339844 129.167969 210.601562 129.011719 210.851562 C 128.082031 212.515625 127.011719 214.078125 125.796875 215.546875 Z M 125.796875 215.546875 " fill-opacity="1" fill-rule="nonzero"/><g clip-path="url(#6bc4f32ed7)"><path fill="#fafafa" d="M 178.421875 15.953125 C 178.3125 15.027344 178.304688 14.101562 178.402344 13.175781 C 178.503906 12.25 178.703125 11.34375 179.003906 10.464844 C 179.308594 9.582031 179.703125 8.746094 180.195312 7.957031 C 180.683594 7.164062 181.257812 6.4375 181.910156 5.773438 C 182.667969 4.839844 183.335938 3.839844 183.914062 2.785156 C 184.09375 2.480469 184.308594 2.203125 184.550781 1.945312 C 184.796875 1.6875 185.0625 1.460938 185.355469 1.261719 C 185.648438 1.066406 185.960938 0.898438 186.289062 0.769531 C 186.617188 0.636719 186.953125 0.542969 187.304688 0.484375 C 187.652344 0.429688 188.003906 0.40625 188.355469 0.425781 C 188.710938 0.445312 189.058594 0.5 189.398438 0.59375 C 189.738281 0.6875 190.066406 0.816406 190.378906 0.980469 C 190.691406 1.144531 190.984375 1.34375 191.253906 1.570312 C 192.089844 2.4375 192.519531 3.472656 192.542969 4.675781 C 192.523438 5.394531 192.449219 6.109375 192.320312 6.816406 C 192.191406 7.523438 192.011719 8.21875 191.777344 8.898438 C 191.542969 9.578125 191.257812 10.238281 190.921875 10.875 C 190.585938 11.511719 190.203125 12.117188 189.773438 12.695312 C 189.347656 13.273438 188.875 13.816406 188.363281 14.320312 C 187.851562 14.828125 187.304688 15.292969 186.722656 15.714844 C 186.140625 16.136719 185.53125 16.511719 184.890625 16.839844 C 184.25 17.167969 183.589844 17.449219 182.90625 17.675781 C 180.878906 18.304688 179.835938 16.867188 178.421875 15.953125 Z M 178.421875 15.953125 " fill-opacity="1" fill-rule="nonzero"/></g></g></g></g></svg>